<svg width="92" height="71" viewBox="0 0 92 71" fill="none" xmlns="http://www.w3.org/2000/svg">
<path d="M28 14.6232C50.1803 8.0689 51.1588 14.6232 66 14.6232" stroke="#ADE03B" stroke-width="2" stroke-linecap="round"/>
<path d="M16 23.8237C23.5084 23.8237 34.8191 17.5381 47.9601 20.0863C61.1011 22.6345 69.1229 18.545 77 24.3333" stroke="#ADE03B" stroke-width="2" stroke-linecap="round"/>
<path d="M4 35.0144C21.9459 29.5168 54.8468 26.3754 87 32.6584" stroke="#ADE03B" stroke-width="2" stroke-linecap="round"/>
<path d="M37.8512 5.88403L8.43948 30.1209C5.60188 32.4593 3.80769 35.8277 3.45053 39.4872L3.04182 43.6752C1.83411 56.0498 9.29189 66.9881 21.6803 68.0463C28.1917 68.6024 36.4815 69 46.876 69C56.9607 69 65.0003 68.6258 71.3303 68.0956C83.7218 67.0576 90.9599 56.0708 89.4541 43.7274L88.8784 39.0082C88.4669 35.6353 86.8329 32.5304 84.2857 30.2815L56.6529 5.88403" stroke="black" stroke-width="4" stroke-linecap="round"/>
<path d="M38 5.88404C38 5.88404 47.88 -2.85505 57 5.88407" stroke="black" stroke-width="4" stroke-linecap="round"/>
<path d="M46 68.029V50.8116C46 45.8411 50.0294 41.8116 55 41.8116V41.8116C59.9706 41.8116 64 45.8411 64 50.8116V68.029" stroke="black" stroke-width="4" stroke-linecap="round"/>
</svg>
