<svg width="421" height="421" viewBox="0 0 421 421" fill="none" xmlns="http://www.w3.org/2000/svg">
<path fill-rule="evenodd" clip-rule="evenodd" d="M114.265 329.1L155.51 331.24L155.521 331.07C152.322 323.05 144.21 317.234 135.587 316.786C126.965 316.337 118.29 321.273 114.274 328.916L114.265 329.1ZM163.678 331.665C171.433 351.814 179.56 371.908 196.909 384.757C197.489 385.186 198.072 385.603 198.663 386.002L198.309 386.518C165.891 401.911 125.462 402.287 93.4567 386.052C71.1148 374.715 52.1242 355.314 45.0339 331.283C37.9435 307.252 44.419 278.778 63.7512 262.834C76.3628 252.432 92.8367 248.074 108.965 245.409C126.475 242.417 144.244 241.204 161.999 241.787L162.192 241.63V241.504L162.551 241.5C167.69 247.592 172.145 254.23 175.834 261.295C178.374 251.207 180.963 240.993 185.971 231.875L185.967 231.762C188.664 231.678 191.361 231.592 194.058 231.502L194.072 231.879C192.368 265.497 191.695 299.12 192.055 332.75L192.032 333.141L163.678 331.665ZM162.014 286.638L162.018 286.74C162.588 290.862 163.158 295.033 162.785 299.179C162.413 303.326 161.022 307.512 158.137 310.515C155.252 313.519 150.71 315.106 146.761 313.787C144.288 312.961 142.251 311.094 140.832 308.904C139.414 306.714 138.566 304.201 137.929 301.675C136.74 296.96 136.223 292.101 136.394 287.243L136.69 287.251C137.475 287.233 138.26 287.214 139.044 287.194C139.807 287.175 140.569 287.157 141.331 287.139C141.205 285.641 141.097 284.132 141.007 282.629C140.916 281.897 140.971 281.154 141.169 280.444C141.274 280.089 141.478 279.772 141.757 279.53C142.036 279.287 142.379 279.129 142.744 279.075C143.812 279.003 144.575 280.089 144.961 281.09C145.644 282.866 145.88 284.783 145.648 286.672L145.657 287.032C151.109 286.903 156.562 286.772 162.014 286.638ZM86.7484 255.437C87.0966 255.306 87.4847 255.482 87.6158 255.83C87.7469 256.178 87.5711 256.566 87.2233 256.697C70.5469 262.979 57.2227 277.56 52.4636 294.734C47.7046 311.908 51.6256 331.267 62.6922 345.236C62.9229 345.527 62.8737 345.951 62.5825 346.181C62.2909 346.412 61.8677 346.363 61.6366 346.072C50.3034 331.766 46.292 311.963 51.166 294.374C56.0399 276.786 69.6702 261.871 86.7484 255.437Z" fill="url(#paint0_linear_1532_1834)"/>
<path d="M141.332 287.141C139.788 287.177 138.24 287.217 136.692 287.253L136.396 287.244C136.225 292.103 136.742 296.962 137.931 301.676C138.568 304.203 139.416 306.716 140.834 308.906C142.252 311.096 144.29 312.963 146.762 313.788C150.709 315.108 155.253 313.519 158.138 310.517C161.024 307.515 162.419 303.328 162.787 299.181C163.154 295.034 162.589 290.866 162.019 286.742L162.015 286.638C156.563 286.769 151.11 286.9 145.657 287.033L141.332 287.141Z" fill="url(#paint1_linear_1532_1834)"/>
<path d="M145.648 286.674C145.881 284.785 145.645 282.868 144.962 281.092C144.576 280.091 143.813 279.005 142.745 279.077C142.38 279.131 142.037 279.289 141.758 279.531C141.479 279.774 141.275 280.091 141.17 280.446C140.972 281.156 140.917 281.899 141.008 282.631C141.096 284.134 141.206 285.642 141.331 287.141L145.658 287.033L145.648 286.674Z" fill="#171717"/>
<path d="M162.549 241.498C167.689 247.59 172.143 254.228 175.832 261.293C178.372 251.206 180.963 240.991 185.969 231.872L185.965 231.76C184.686 231.804 183.402 231.845 182.124 231.885L174.226 232.142C171.147 232.245 167.885 232.402 165.345 234.143C162.827 235.866 162.149 237.01 162.19 241.502L162.549 241.498Z" fill="#171717"/>
<path d="M217.67 248.001C220.51 245.487 223.988 243.544 227.756 243.154L227.81 243.167C228.941 238.985 225.867 234.528 221.927 232.667C218.714 231.145 215.101 230.916 211.516 230.956C210.632 230.965 209.752 230.992 208.882 231.019C205.866 231.118 202.852 231.215 199.839 231.311L199.843 231.445C204.178 239.433 207.235 248.045 210.273 256.617C212.54 253.574 214.824 250.509 217.67 248.001Z" fill="#171717"/>
<path d="M232.357 356.676C232.264 357.329 232.024 357.954 231.657 358.502C231.29 359.05 230.804 359.509 230.235 359.844C228.794 360.611 226.963 360.293 225.568 359.44C224.172 358.588 223.126 357.286 222.139 355.989C217.71 350.187 213.788 343.949 211.05 337.186C210.629 336.176 210.286 335.135 210.023 334.073C209.466 331.735 209.439 329.329 210.777 327.413C212.443 325.035 215.601 324.321 218.473 323.913C226.42 322.787 234.588 322.597 242.417 324.357C250.246 326.117 258.345 330.51 263.717 336.474L263.699 336.86L247.692 336.029C249.689 340.046 251.686 344.064 253.683 348.083C254.338 349.407 255.007 350.758 255.208 352.22C255.41 353.683 255.06 355.308 253.961 356.295C252.871 357.274 251.233 357.444 249.806 357.099C248.379 356.753 247.104 355.954 245.859 355.169L245.392 355.322C245.625 355.986 245.674 356.701 245.536 357.391C245.073 359.302 242.794 360.154 240.828 360.154C239.347 360.151 237.882 359.851 236.519 359.272C235.155 358.693 233.922 357.847 232.891 356.783L232.357 356.676ZM336.613 350.434C342.321 331.985 338.035 311.284 327.574 295.053C317.114 278.821 300.995 266.776 283.43 258.753C265.866 250.729 248.14 243.737 227.753 243.365C227.771 243.298 227.793 243.233 227.811 243.167L227.757 243.154C223.986 243.544 220.51 245.487 217.671 248.001C214.832 250.514 212.54 253.574 210.275 256.617C207.237 248.045 204.18 239.434 199.846 231.444L199.842 231.31C197.912 231.377 195.987 231.436 194.057 231.498L194.071 231.875C192.37 265.469 191.697 299.093 192.054 332.747L192.031 333.137L163.679 331.666C171.434 351.816 179.561 371.911 196.909 384.757C197.488 385.184 198.071 385.601 198.663 386C211.098 394.522 226.455 397.996 241.519 399.279C260.735 400.917 280.597 399.221 298.197 391.341C315.798 383.462 330.913 368.855 336.613 350.434Z" fill="url(#paint2_linear_1532_1834)"/>
<path d="M191.319 197.565C189.25 197.214 187.183 196.861 185.117 196.506C185.413 188.487 185.712 180.466 186.015 172.443C186.078 170.777 186.001 168.826 184.641 167.871C183.771 167.26 182.622 167.265 181.554 167.291C177.421 167.399 173.289 167.508 169.16 167.619" stroke="#171717" stroke-width="4" stroke-linecap="round" stroke-linejoin="round"/>
<path d="M177.08 177.853V173.731" stroke="#171717" stroke-width="3.07" stroke-linecap="round" stroke-linejoin="round"/>
<path d="M197.462 176.909C197.543 175.639 197.623 174.37 197.704 173.103" stroke="#171717" stroke-width="3.07" stroke-linecap="round" stroke-linejoin="round"/>
<path d="M192.342 207.734C193.716 208.111 195.172 208.076 196.526 207.633C197.881 207.189 199.075 206.357 199.959 205.239C200.844 204.121 201.38 202.769 201.501 201.348C201.622 199.928 201.323 198.504 200.639 197.253" stroke="#171717" stroke-width="3.07" stroke-linecap="round" stroke-linejoin="round"/>
<path d="M211.513 230.113L211.109 199.81C211.001 191.903 210.895 183.995 210.79 176.089C210.723 170.901 210.341 165.027 206.366 161.697C203.583 159.373 199.733 158.928 196.12 158.654C184.977 157.811 173.792 157.653 162.63 158.178L161.239 158.246" stroke="#171717" stroke-width="4" stroke-linecap="round" stroke-linejoin="round"/>
<path d="M182.111 231.464C183.318 227.618 181.891 223.39 179.638 220.047C177.385 216.704 174.365 213.967 171.861 210.812C166.278 203.771 163.478 194.854 162.446 185.929C162.406 185.574 162.365 185.224 162.334 184.869C161.463 176.289 162.071 167.624 162.671 159.017" stroke="#171717" stroke-width="4" stroke-linecap="round" stroke-linejoin="round"/>
<path d="M148.835 137.247C148.129 136.472 147.223 135.908 146.216 135.616C145.209 135.324 144.142 135.317 143.131 135.596C140.25 136.484 138.401 139.567 138.356 142.579C138.312 145.59 139.81 148.466 141.843 150.692C143.876 152.917 146.429 154.591 148.952 156.238C146.183 154.771 142.449 155.991 140.707 158.594C138.965 161.197 139.118 164.805 140.675 167.52C142.233 170.235 145.029 172.108 148.023 173.027C144.298 176.437 144.295 183.088 148.014 186.507C151.732 189.927 158.802 188.913 161.894 184.919" stroke="#171717" stroke-width="3.07" stroke-linecap="round" stroke-linejoin="round"/>
<path d="M148.835 137.247C149.123 138.081 149.493 138.883 149.939 139.644C149.831 138.749 149.445 137.91 148.835 137.247Z" stroke="#171717" stroke-width="3.07" stroke-linecap="round" stroke-linejoin="round"/>
<path d="M161.023 129.241C160.595 128.037 159.797 126.999 158.742 126.276C157.688 125.554 156.431 125.184 155.154 125.221C152.089 125.378 149.432 127.855 148.557 130.794C147.975 132.922 148.072 135.178 148.835 137.247" stroke="#171717" stroke-width="3.07" stroke-linecap="round" stroke-linejoin="round"/>
<path d="M161.023 129.241C161.036 129.743 161.11 130.242 161.242 130.727C161.253 130.223 161.179 129.721 161.023 129.241Z" stroke="#171717" stroke-width="3.07" stroke-linecap="round" stroke-linejoin="round"/>
<path d="M211.652 199.8C214.38 204.197 221.093 205.445 225.222 202.326C229.351 199.207 229.984 192.404 226.497 188.576C231.092 187.181 233.107 181.36 231.891 176.711C230.675 172.061 227.148 168.418 223.611 165.169C228.79 163.526 232.187 157.594 230.979 152.294C229.77 146.994 224.148 143.117 218.768 143.871C222.492 141.286 222.978 135.434 220.33 131.755C217.681 128.075 212.683 126.567 208.204 127.271C203.725 127.976 199.736 130.588 196.491 133.765C198.47 130.655 196.913 126.145 193.777 124.22C190.64 122.295 186.502 122.613 183.19 124.229C179.878 125.844 177.267 128.582 174.92 131.421C176.589 127.175 173.122 121.795 168.565 121.562C164.513 121.359 160.91 125.282 161.022 129.24" stroke="#171717" stroke-width="3.07" stroke-linecap="round" stroke-linejoin="round"/>
<path d="M162.19 241.628V241.502C162.15 237.01 162.827 235.866 165.345 234.143C167.885 232.402 171.147 232.245 174.226 232.142L182.124 231.885C183.403 231.845 184.686 231.805 185.965 231.76C188.662 231.675 191.359 231.588 194.056 231.5C195.986 231.437 197.911 231.379 199.841 231.311C202.857 231.217 205.871 231.12 208.883 231.019C209.754 230.993 210.633 230.966 211.517 230.957C215.103 230.916 218.716 231.145 221.929 232.667C225.869 234.529 228.943 238.985 227.812 243.168C227.794 243.235 227.771 243.299 227.753 243.365C248.14 243.738 265.863 250.725 283.431 258.753C300.999 266.782 317.113 278.816 327.575 295.053C338.036 311.289 342.321 331.985 336.613 350.434C330.912 368.855 315.799 383.467 298.199 391.342C280.599 399.218 260.737 400.919 241.521 399.28C226.457 397.997 211.1 394.523 198.665 386.001C198.072 385.602 197.489 385.185 196.911 384.758C179.562 371.909 171.435 351.815 163.68 331.666" stroke="#171717" stroke-width="4" stroke-linecap="round" stroke-linejoin="round"/>
<path d="M161.997 241.785C144.242 241.201 126.474 242.415 108.963 245.407C92.8346 248.072 76.3608 252.43 63.7492 262.832C44.4169 278.776 37.9414 307.25 45.0318 331.281C52.1221 355.312 71.1149 374.715 93.4568 386.052C125.462 402.287 165.891 401.911 198.309 386.518" stroke="#171717" stroke-width="4" stroke-linecap="round" stroke-linejoin="round"/>
<path d="M210.028 334.072H210.023L192.032 333.139L163.68 331.667L155.512 331.24L114.267 329.1L111.4 328.952L109.502 285.023" stroke="#171717" stroke-width="4" stroke-linecap="round" stroke-linejoin="round"/>
<path d="M267.675 294.106L270 337.187L263.699 336.859L247.692 336.029" stroke="#171717" stroke-width="4" stroke-linecap="round" stroke-linejoin="round"/>
<path d="M263.717 336.474C258.345 330.51 250.25 326.116 242.419 324.357C234.588 322.598 226.421 322.787 218.474 323.913C215.602 324.321 212.443 325.035 210.778 327.413C209.441 329.329 209.468 331.735 210.025 334.073C210.288 335.135 210.631 336.176 211.052 337.186C213.79 343.949 217.712 350.187 222.141 355.989C223.128 357.286 224.178 358.592 225.57 359.44C226.961 360.288 228.796 360.611 230.237 359.844C230.805 359.509 231.291 359.05 231.658 358.502C232.026 357.953 232.265 357.329 232.359 356.676C232.462 356.139 232.489 355.591 232.44 355.047C232.278 353.189 231.403 351.479 230.542 349.823C227.634 344.21 224.723 338.595 221.809 332.977" stroke="#171717" stroke-width="4" stroke-linecap="round" stroke-linejoin="round"/>
<path d="M232.892 356.783C233.923 357.846 235.156 358.692 236.52 359.271C237.883 359.85 239.348 360.15 240.829 360.154C242.795 360.154 245.074 359.301 245.536 357.391C245.675 356.701 245.625 355.986 245.393 355.322C245.255 354.886 245.094 354.457 244.911 354.039C241.772 346.577 238.157 339.325 234.087 332.328" stroke="#171717" stroke-width="4" stroke-linecap="round" stroke-linejoin="round"/>
<path d="M245.861 355.168C247.104 355.953 248.379 356.747 249.808 357.097C251.237 357.448 252.872 357.273 253.963 356.294C255.062 355.307 255.41 353.687 255.21 352.219C255.011 350.751 254.34 349.405 253.685 348.082C251.688 344.065 249.691 340.047 247.694 336.028C247.084 334.803 246.478 333.582 245.867 332.357" stroke="#171717" stroke-width="4" stroke-linecap="round" stroke-linejoin="round"/>
<path d="M155.522 331.07C152.32 323.05 144.207 317.239 135.588 316.786C126.968 316.332 118.293 321.273 114.275 328.916" stroke="#171717" stroke-width="4" stroke-linecap="round" stroke-linejoin="round"/>
<path d="M227.758 243.152C223.986 243.542 220.51 245.486 217.671 247.999C214.832 250.512 212.54 253.572 210.276 256.615C207.238 248.044 204.18 239.432 199.846 231.443" stroke="#171717" stroke-width="3.07" stroke-linecap="round" stroke-linejoin="round"/>
<path d="M185.969 231.872C180.961 240.991 178.372 251.205 175.832 261.293C172.143 254.228 167.689 247.59 162.549 241.498" stroke="#171717" stroke-width="3.07" stroke-linecap="round" stroke-linejoin="round"/>
<path d="M194.07 231.877C192.368 265.471 191.696 299.095 192.052 332.748" stroke="#171717" stroke-width="4" stroke-linecap="round" stroke-linejoin="round"/>
<path d="M162.019 286.743C162.589 290.865 163.159 295.036 162.787 299.182C162.414 303.329 161.023 307.515 158.138 310.518C155.253 313.522 150.711 315.109 146.762 313.79C144.289 312.964 142.252 311.097 140.834 308.907C139.415 306.717 138.568 304.204 137.93 301.678C136.742 296.963 136.225 292.105 136.396 287.246C136.396 287.21 136.4 287.174 136.4 287.138" stroke="#171717" stroke-width="3.07" stroke-linecap="round" stroke-linejoin="round"/>
<path d="M162.504 286.625L162.015 286.638C156.563 286.769 151.11 286.9 145.658 287.033L141.331 287.14C139.788 287.176 138.24 287.217 136.691 287.253" stroke="#171717" stroke-width="3.07" stroke-linecap="round" stroke-linejoin="round"/>
<path d="M143.203 302.34C142.382 297.305 141.758 292.239 141.331 287.141C141.206 285.642 141.098 284.134 141.008 282.631C140.917 281.899 140.972 281.156 141.17 280.446C141.275 280.091 141.479 279.774 141.758 279.531C142.037 279.289 142.38 279.131 142.745 279.077C143.813 279.005 144.576 280.091 144.962 281.092C145.645 282.868 145.881 284.785 145.648 286.674C145.509 286.63 145.37 286.589 145.231 286.543" stroke="#171717" stroke-width="4" stroke-linecap="round" stroke-linejoin="round"/>
<path d="M72.7576 307.197L67.9011 302.972" stroke="#171717" stroke-width="2.784" stroke-linecap="round" stroke-linejoin="round"/>
<path d="M68.4301 307.493L71.873 302.946" stroke="#171717" stroke-width="2.784" stroke-linecap="round" stroke-linejoin="round"/>
<path d="M120.916 290.76C122.506 290.162 123.891 289.124 124.91 287.765" stroke="#171717" stroke-width="2.784" stroke-linecap="round" stroke-linejoin="round"/>
<path d="M125.103 291.381L121.519 286.94" stroke="#171717" stroke-width="2.784" stroke-linecap="round" stroke-linejoin="round"/>
<path d="M174.528 274.06L169.592 269.446L169.896 269.608" stroke="#171717" stroke-width="2.784" stroke-linecap="round" stroke-linejoin="round"/>
<path d="M170.954 275.099C171.611 273.129 172.693 271.327 174.122 269.82" stroke="#171717" stroke-width="2.784" stroke-linecap="round" stroke-linejoin="round"/>
<path d="M217.655 303.593C216.981 302.279 215.942 301.187 214.662 300.45" stroke="#171717" stroke-width="2.784" stroke-linecap="round" stroke-linejoin="round"/>
<path d="M215.133 304.062L217.717 300.51" stroke="#171717" stroke-width="2.784" stroke-linecap="round" stroke-linejoin="round"/>
<path d="M255.667 272.553C254.636 270.031 253.137 267.727 251.25 265.762" stroke="#171717" stroke-width="2.784" stroke-linecap="round" stroke-linejoin="round"/>
<path d="M251.727 271.819L256.861 266.819" stroke="#171717" stroke-width="2.784" stroke-linecap="round" stroke-linejoin="round"/>
<path d="M281.001 324.962L284.163 321.999" stroke="#171717" stroke-width="2.784" stroke-linecap="round" stroke-linejoin="round"/>
<path d="M285.202 326.627L281.19 321.136" stroke="#171717" stroke-width="2.784" stroke-linecap="round" stroke-linejoin="round"/>
<path d="M282.668 378.155C283.742 380.096 285.175 381.816 286.891 383.223" stroke="#171717" stroke-width="2.784" stroke-linecap="round" stroke-linejoin="round"/>
<path d="M283.24 382.968L285.907 379.263" stroke="#171717" stroke-width="2.784" stroke-linecap="round" stroke-linejoin="round"/>
<path d="M198.356 358.905L201.18 354.476C201.148 354.467 201.113 354.468 201.081 354.48C201.049 354.492 201.022 354.514 201.002 354.542C200.983 354.57 200.973 354.603 200.974 354.638C200.975 354.671 200.986 354.704 201.007 354.732C201.027 354.759 201.055 354.779 201.088 354.789C201.12 354.8 201.155 354.8 201.188 354.789C201.22 354.779 201.249 354.759 201.269 354.731C201.289 354.704 201.301 354.671 201.301 354.637" stroke="#171717" stroke-width="2.784" stroke-linecap="round" stroke-linejoin="round"/>
<path d="M202.381 358.765L198.376 354.745" stroke="#171717" stroke-width="2.784" stroke-linecap="round" stroke-linejoin="round"/>
<path d="M123.872 355.571L127.03 352.602" stroke="#171717" stroke-width="2.784" stroke-linecap="round" stroke-linejoin="round"/>
<path d="M127.24 356.403L124.284 352.813" stroke="#171717" stroke-width="2.784" stroke-linecap="round" stroke-linejoin="round"/>
<path d="M307.421 302.806L311.538 299.795" stroke="#171717" stroke-width="2.784" stroke-linecap="round" stroke-linejoin="round"/>
<path d="M311.21 303.778L308.381 298.697" stroke="#171717" stroke-width="2.784" stroke-linecap="round" stroke-linejoin="round"/>
<path d="M71.9424 353.366L75.374 348.891" stroke="#171717" stroke-width="2.784" stroke-linecap="round" stroke-linejoin="round"/>
<path d="M76.3623 353.47C74.3463 352.281 72.476 350.86 70.7885 349.237" stroke="#171717" stroke-width="2.784" stroke-linecap="round" stroke-linejoin="round"/>
<path d="M103.798 261.373L100.842 256.727" stroke="#171717" stroke-width="2.784" stroke-linecap="round" stroke-linejoin="round"/>
<path d="M100.637 260.957L105.115 257.206" stroke="#171717" stroke-width="2.784" stroke-linecap="round" stroke-linejoin="round"/>
<path d="M393.242 206.567C400.054 224.953 404.619 244.523 403.199 264.078C402.773 269.95 401.765 275.914 398.928 281.073C396.091 286.231 391.162 290.507 385.333 291.34C379.505 292.173 373.005 288.84 371.315 283.2C369.624 277.559 374.237 270.633 380.116 270.958C384.616 271.207 388.224 275.3 389.123 279.716C390.022 284.133 388.728 288.717 386.85 292.814C384.383 298.199 380.923 303.065 378.137 308.291C375.35 313.518 373.205 319.343 373.715 325.244C374.225 331.145 377.956 337.063 383.661 338.654C389.367 340.245 396.395 335.963 396.358 330.04" stroke="#171717" stroke-width="4" stroke-linecap="round" stroke-linejoin="round"/>
<path d="M19.5191 149.641C20.0427 164.288 20.719 179.523 27.6558 192.433C29.6293 196.101 32.1728 199.604 35.7289 201.774C39.2851 203.944 44.0025 204.55 47.6134 202.473C51.2244 200.397 53.0382 195.284 50.8222 191.758C48.3225 187.779 42.0106 187.707 38.4387 190.761C34.8668 193.814 33.6761 198.895 33.8888 203.59C34.1725 209.85 36.5385 215.804 38.8803 221.614C41.2221 227.424 43.6016 233.373 43.9161 239.631C44.2305 245.889 42.0983 252.632 36.9897 256.261C31.8812 259.89 23.6142 259.049 20.5291 253.595C17.4439 248.14 22.7656 239.759 28.8219 241.364C30.5256 241.857 32.0298 242.875 33.1196 244.275C36.4306 248.378 35.8206 255.08 31.8224 258.518C27.8242 261.956 21.1071 261.556 17.5452 257.668" stroke="#171717" stroke-width="4" stroke-linecap="round" stroke-linejoin="round"/>
<path d="M197.761 106.59L202.552 67.2767" stroke="#171717" stroke-width="4" stroke-linecap="round" stroke-linejoin="round"/>
<path d="M213.301 110.095C217.393 107.993 221.156 105.305 224.472 102.117" stroke="#171717" stroke-width="2.784" stroke-linecap="round" stroke-linejoin="round"/>
<path d="M183.79 105.603L180.61 97.6891" stroke="#171717" stroke-width="4" stroke-linecap="round" stroke-linejoin="round"/>
<path d="M145.751 84.8447C141.702 83.1729 141.001 77.6526 141.999 73.3886C142.997 69.1247 145.057 64.8599 144.2 60.5639C143.304 56.0636 139.356 52.7482 135.157 50.8971C130.553 48.8685 125.282 48.1699 120.422 49.4723C115.562 50.7748 111.204 54.2007 109.264 58.8413C107.324 63.482 108.076 69.2646 111.515 72.9352C114.785 76.4255 119.738 77.6074 124.199 79.3304C128.661 81.0535 133.329 84.1141 134.003 88.8494" stroke="#171717" stroke-width="4" stroke-linecap="round" stroke-linejoin="round"/>
<path d="M130.83 79.3357C128.709 76.836 127.158 73.9043 126.286 70.7447C127.41 71.6564 129.028 72.5909 130.176 71.7095C131.303 70.8442 130.861 69.0782 130.314 67.767C130.393 68.1077 130.544 68.4278 130.755 68.7068C130.967 68.9857 131.235 69.2168 131.542 69.3852C131.849 69.5536 132.187 69.6558 132.536 69.6847C132.885 69.7136 133.236 69.6689 133.566 69.5531C133.897 69.4374 134.199 69.2536 134.453 69.0137C134.708 68.7734 134.909 68.4822 135.044 68.1595C135.178 67.8363 135.244 67.4885 135.235 67.1385C135.227 66.789 135.145 66.4448 134.995 66.1286L137.083 75.8203" stroke="#171717" stroke-width="4" stroke-linecap="round" stroke-linejoin="round"/>
<path d="M102.271 187.282C92.0627 182.444 82.5862 177.88 73.1049 171.739C72.1375 171.194 71.2846 170.466 70.5934 169.598C69.9597 168.689 69.7067 167.427 70.2623 166.47C70.814 165.519 71.9867 165.116 73.0813 165.018C76.0129 164.755 78.8222 166.11 81.4372 167.462C89.0679 171.407 96.7011 175.107 104.026 179.607" stroke="#171717" stroke-width="4" stroke-linecap="round" stroke-linejoin="round"/>
<path d="M104.41 179.874L112.676 187.967L102.322 187.326" stroke="#171717" stroke-width="4" stroke-linecap="round" stroke-linejoin="round"/>
<path d="M106.437 187.501L108.192 183.993" stroke="#171717" stroke-width="4" stroke-linecap="round" stroke-linejoin="round"/>
<path d="M77.6192 174.052L80.1575 167.085" stroke="#171717" stroke-width="4" stroke-linecap="round" stroke-linejoin="round"/>
<path d="M89.3349 125.584L90.6001 118.299" stroke="#171717" stroke-width="4" stroke-linecap="round" stroke-linejoin="round"/>
<path d="M93.4668 123.013L86.8106 120.172" stroke="#171717" stroke-width="4" stroke-linecap="round" stroke-linejoin="round"/>
<path d="M82.6804 119.882L81.8739 124.538L82.1099 123.06" stroke="#171717" stroke-width="4" stroke-linecap="round" stroke-linejoin="round"/>
<path d="M78.4626 121.914L87.9824 129.178" stroke="#171717" stroke-width="4" stroke-linecap="round" stroke-linejoin="round"/>
<path d="M88.8087 209.583L91.5864 204.16" stroke="#171717" stroke-width="4" stroke-linecap="round" stroke-linejoin="round"/>
<path d="M95.0117 209.876L85.7304 203.035" stroke="#171717" stroke-width="4" stroke-linecap="round" stroke-linejoin="round"/>
<path d="M165.357 79.3357L168.525 73.0001" stroke="#171717" stroke-width="4" stroke-linecap="round" stroke-linejoin="round"/>
<path d="M170.441 78.0438L164.419 74.2486" stroke="#171717" stroke-width="4" stroke-linecap="round" stroke-linejoin="round"/>
<path d="M80.4574 78.6937L86.4751 74.574" stroke="#171717" stroke-width="4" stroke-linecap="round" stroke-linejoin="round"/>
<path d="M82.2681 73.6996L86.3198 79.448" stroke="#171717" stroke-width="4" stroke-linecap="round" stroke-linejoin="round"/>
<path d="M298.408 127.363C298.291 129.571 297.034 131.775 295.016 132.677C288.495 135.591 283.869 125.977 287.729 121.238C292.279 115.65 298.712 121.621 298.408 127.363Z" stroke="#171717" stroke-width="4" stroke-linecap="round" stroke-linejoin="round"/>
<path d="M266.739 163.29L270.253 158.243" stroke="#171717" stroke-width="4" stroke-linecap="round" stroke-linejoin="round"/>
<path d="M271.471 163.285L265.448 158.538" stroke="#171717" stroke-width="4" stroke-linecap="round" stroke-linejoin="round"/>
<path d="M329.142 135.738L334.758 131.198" stroke="#171717" stroke-width="4" stroke-linecap="round" stroke-linejoin="round"/>
<path d="M334.821 136.359L331.021 129.389" stroke="#171717" stroke-width="4" stroke-linecap="round" stroke-linejoin="round"/>
<path d="M337.196 370.936C340.481 368.054 343.139 364.527 345.006 360.576C346.874 356.624 347.91 352.332 348.05 347.964" stroke="#171717" stroke-width="4" stroke-linecap="round" stroke-linejoin="round"/>
<path d="M60.2031 374.539C53.3316 370.901 47.3214 365.829 42.5799 359.667C37.8384 353.505 34.4756 346.396 32.7197 338.821" stroke="#171717" stroke-width="4" stroke-linecap="round" stroke-linejoin="round"/>
<path d="M351.837 230.279C353.089 229.308 354.1 228.061 354.793 226.635C355.485 225.21 355.839 223.644 355.828 222.06C355.817 220.475 355.441 218.914 354.728 217.499C354.016 216.084 352.987 214.851 351.722 213.897C349.439 212.177 346.434 211.392 344.607 209.194C342.449 206.598 342.579 202.813 343.247 199.503C344.171 194.955 345.886 190.604 348.316 186.649" stroke="#171717" stroke-width="4" stroke-linecap="round" stroke-linejoin="round"/>
<path d="M300.019 207.263C304.083 198.185 308.156 189.081 311.218 179.615C312.35 176.114 313.291 172.083 311.402 168.924C310.876 168.047 310.054 167.24 309.034 167.16C307.727 167.058 306.659 168.14 305.833 169.156C297.983 178.785 293.213 190.498 288.668 202.059" stroke="#171717" stroke-width="4" stroke-linecap="round" stroke-linejoin="round"/>
<path d="M299.834 207.235L288.871 202.412" stroke="#171717" stroke-width="4" stroke-linecap="round" stroke-linejoin="round"/>
<path d="M305.044 184.329C304.569 183.477 304.162 183.103 303.388 182.507C302.725 181.958 301.634 182.214 301.108 182.895C300.867 183.253 300.712 183.662 300.656 184.09C300.6 184.518 300.644 184.953 300.784 185.361C300.894 185.782 301.088 186.177 301.355 186.521C301.622 186.865 301.957 187.151 302.339 187.361C302.726 187.561 303.164 187.639 303.597 187.584C304.029 187.53 304.435 187.345 304.76 187.054C305.448 186.366 305.457 185.211 305.044 184.329Z" stroke="#171717" stroke-width="4" stroke-linecap="round" stroke-linejoin="round"/>
<path d="M305.157 196.95C307.073 200.064 308.123 203.634 308.197 207.29C308.272 210.946 307.369 214.556 305.582 217.746C305.501 215.617 304.995 213.525 304.094 211.594C303.193 209.663 301.915 207.932 300.335 206.503" stroke="#171717" stroke-width="4" stroke-linecap="round" stroke-linejoin="round"/>
<path d="M293.886 188.983C289.53 187.73 284.707 189.69 281.594 192.986C278.481 196.281 276.833 200.699 275.813 205.115C279.577 202.45 284.116 201.103 288.725 201.284" stroke="#171717" stroke-width="4" stroke-linecap="round" stroke-linejoin="round"/>
<path d="M288.992 209.081C291.363 209.884 293.671 210.858 295.9 211.997" stroke="#171717" stroke-width="4" stroke-linecap="round" stroke-linejoin="round"/>
<path d="M295.853 211.745L296.211 230.238L292.011 221.451L286.47 235.168L286.745 222.81C283.993 226.002 280.901 228.885 277.524 231.407L283.195 221.579C279.526 222.003 275.809 221.615 272.306 220.444C275.801 218.989 279.426 217.869 283.131 217.098L278.281 214.055C281.789 212.468 285.29 210.864 288.782 209.244" stroke="#171717" stroke-width="4" stroke-linecap="round" stroke-linejoin="round"/>
<path d="M367.14 235.168L348.051 241.643L334.758 205.251" stroke="#171717" stroke-width="4" stroke-linecap="round" stroke-linejoin="round"/>
<path d="M329.141 73.0001L302.982 91.3728L300.642 55.5194L329.141 73.0001Z" stroke="#171717" stroke-width="4" stroke-linecap="round" stroke-linejoin="round"/>
<path d="M193.017 39.4227L186.377 21.05L180.239 36.2551L193.017 39.4227Z" stroke="#171717" stroke-width="4" stroke-linecap="round" stroke-linejoin="round"/>
<path d="M105.115 113.547L103.869 125.584L89.9664 106.589L70.7886 118.298" stroke="#171717" stroke-width="4" stroke-linecap="round" stroke-linejoin="round"/>
<path d="M60.2031 133.468L46.4614 144.59L38.9663 129.178L60.2031 133.468Z" stroke="#171717" stroke-width="4" stroke-linecap="round" stroke-linejoin="round"/>
<path d="M227.758 86.9326L251.726 55.5194L275.813 76.1462L258.844 105.603L227.758 86.9326Z" stroke="#171717" stroke-width="4" stroke-linecap="round" stroke-linejoin="round"/>
<path d="M265.449 80.5614L247.691 68.8304L253.459 63.814L269.997 76.1462L265.449 80.5614Z" stroke="#171717" stroke-width="4" stroke-linecap="round" stroke-linejoin="round"/>
<path d="M261.972 84.5622L246.134 74.2486" stroke="#171717" stroke-width="4" stroke-linecap="round" stroke-linejoin="round"/>
<path d="M257.854 89.1555L242.174 79.3357" stroke="#171717" stroke-width="4" stroke-linecap="round" stroke-linejoin="round"/>
<path d="M254.845 94.8574L239.007 84.5622" stroke="#171717" stroke-width="4" stroke-linecap="round" stroke-linejoin="round"/>
<path d="M245.62 227.425L251.726 212.065L239.007 211.997L245.62 227.425Z" stroke="#171717" stroke-width="4" stroke-linecap="round" stroke-linejoin="round"/>
<path d="M146.433 85.3349C147.769 89.7138 149.522 93.9545 151.667 97.9987L142.333 103.144L138.21 96.4664C137.425 95.1947 134.041 91.311 134.192 89.8883C134.339 88.5126 138.282 87.4325 139.455 87.0137C141.714 86.2046 144.053 85.6419 146.433 85.3349Z" stroke="#171717" stroke-width="4" stroke-linecap="round" stroke-linejoin="round"/>
<path d="M136.8 94.3549C139.817 91.8587 143.199 89.8388 146.828 88.3657" stroke="#171717" stroke-width="2.784" stroke-linecap="round" stroke-linejoin="round"/>
<path d="M140.188 98.5136L148.033 90.6781" stroke="#171717" stroke-width="2.784" stroke-linecap="round" stroke-linejoin="round"/>
<path d="M142.008 101.772C144.704 99.3994 147.192 96.8019 149.447 94.0075" stroke="#171717" stroke-width="2.784" stroke-linecap="round" stroke-linejoin="round"/>
<path d="M103.927 58.6773L99.1704 57.1073" stroke="#171717" stroke-width="2.784" stroke-linecap="round" stroke-linejoin="round"/>
<path d="M113.073 47.3498L108.024 35.6846V36.574" stroke="#171717" stroke-width="2.784" stroke-linecap="round" stroke-linejoin="round"/>
<path d="M132.383 44.8076C132.388 43.434 132.85 42.1011 133.695 41.0182" stroke="#171717" stroke-width="4" stroke-linecap="round" stroke-linejoin="round"/>
<path d="M146.668 53.3604L153.32 48.9259" stroke="#171717" stroke-width="4" stroke-linecap="round" stroke-linejoin="round"/>
<path d="M148.568 68.5686L152.37 69.2019" stroke="#171717" stroke-width="4" stroke-linecap="round" stroke-linejoin="round"/>
<path d="M103.941 70.867L96.1467 74.2232" stroke="#171717" stroke-width="2.784" stroke-linecap="round" stroke-linejoin="round"/>
<path d="M113.512 80.0146L112.57 82.2353" stroke="#171717" stroke-width="4" stroke-linecap="round" stroke-linejoin="round"/>
<path d="M122.277 85.0376L122.331 96.3923C122.382 96.4243 122.441 96.4423 122.502 96.4445C122.562 96.4472 122.622 96.434 122.676 96.4064C122.729 96.3787 122.775 96.3375 122.809 96.2871C122.842 96.2366 122.861 96.1788 122.866 96.1182" stroke="#171717" stroke-width="4" stroke-linecap="round" stroke-linejoin="round"/>
<path fill-rule="evenodd" clip-rule="evenodd" d="M206.364 161.696C203.581 159.371 199.732 158.927 196.119 158.653C184.976 157.81 173.791 157.651 162.628 158.177L162.669 159.017L162.665 159.077C162.066 167.664 161.464 176.309 162.332 184.869L161.893 184.919C158.801 188.913 151.731 189.927 148.013 186.507C144.295 183.088 144.297 176.437 148.022 173.027C145.029 172.108 142.231 170.233 140.674 167.518C139.116 164.803 138.963 161.195 140.705 158.592C142.447 155.99 146.181 154.769 148.95 156.237C146.428 154.589 143.874 152.916 141.841 150.69C139.808 148.464 138.31 145.588 138.355 142.577C138.399 139.565 140.248 136.483 143.129 135.594C144.14 135.316 145.208 135.323 146.215 135.614C147.221 135.906 148.128 136.471 148.833 137.246C148.07 135.176 147.973 132.92 148.555 130.792C149.43 127.853 152.087 125.376 155.152 125.219C156.429 125.183 157.686 125.552 158.741 126.275C159.795 126.997 160.593 128.035 161.021 129.24C160.908 125.282 164.512 121.359 168.564 121.562C173.12 121.795 176.587 127.175 174.918 131.421C177.265 128.582 179.877 125.844 183.189 124.229C186.501 122.613 190.639 122.295 193.775 124.22C196.912 126.145 198.469 130.655 196.49 133.765C199.735 130.588 203.724 127.976 208.202 127.271C212.681 126.567 217.68 128.075 220.328 131.755C222.976 135.434 222.491 141.286 218.766 143.871C224.147 143.117 229.769 146.994 230.977 152.294C232.185 157.594 228.788 163.526 223.61 165.169C227.146 168.418 230.673 172.061 231.889 176.711C233.105 181.36 231.09 187.181 226.495 188.576C229.982 192.404 229.35 199.207 225.221 202.326C221.092 205.445 214.379 204.197 211.65 199.8L211.107 199.808C211.003 191.901 210.897 183.994 210.789 176.087C210.721 170.9 210.34 165.025 206.364 161.696ZM161.24 130.725C161.108 130.241 161.034 129.742 161.021 129.24C161.178 129.719 161.252 130.221 161.24 130.725ZM149.937 139.642C149.491 138.881 149.121 138.079 148.833 137.246C149.444 137.909 149.83 138.747 149.937 139.642ZM158.788 130.205C159.125 130.047 159.526 130.193 159.683 130.53C159.84 130.867 159.694 131.267 159.358 131.425C155.427 133.259 153.44 138.48 155.156 142.463C155.284 142.759 155.183 143.104 154.917 143.286C154.65 143.467 154.292 143.434 154.064 143.208C152.519 141.676 149.616 141.817 147.987 143.419C146.365 145.013 145.999 147.728 146.918 149.914C147.835 152.097 149.862 153.752 152.169 154.592C152.519 154.719 152.699 155.105 152.572 155.455C152.445 155.804 152.059 155.984 151.709 155.857C149.136 154.921 146.771 153.041 145.676 150.435C144.583 147.832 144.962 144.505 147.043 142.459C148.652 140.878 151.268 140.345 153.361 141.177C152.53 136.889 154.779 132.076 158.788 130.205Z" fill="#171717"/>
<g opacity="0.1">
<path d="M222.36 243.323C246.454 243.331 270.623 250.51 291.493 262.41C310.421 273.203 327.728 288.7 335.605 309.49C339.575 319.971 340.921 331.42 338.988 342.474C337.049 353.565 331.289 363.534 323.183 371.276C307.34 386.408 285.322 394.941 263.857 397.763C251.673 399.345 239.319 399.049 227.225 396.886C221.256 395.835 215.383 394.297 209.665 392.288C203.902 390.259 197.934 387.984 192.956 384.4C191.48 383.337 190.681 381.601 191.459 379.831C192.127 378.311 194.056 377.033 195.776 377.712C200.529 379.588 205.069 381.927 209.862 383.713C223.989 388.976 239.049 391.272 254.102 390.458C274.138 389.462 294.07 382.98 310.394 371.218C318.583 365.317 325.826 357.469 329.197 347.808C332.458 338.462 332.705 327.963 330.332 318.377C325.398 298.449 310.253 282.931 293.443 272.074C272.078 258.273 247.557 250.814 222.36 248.296C219.24 247.983 219.093 243.32 222.36 243.321L222.36 243.323Z" fill="#171717"/>
</g>
<g opacity="0.1">
<path d="M105.295 326.921C104.084 320.334 103.928 313.393 103.433 306.719L102.701 296.851C102.451 293.485 101.708 289.767 102.359 286.445C103.099 282.664 108.3 283.324 109.376 286.445C110.411 289.448 110.11 293.259 110.314 296.422L110.95 306.289C111.368 312.785 112.197 319.52 111.912 326.024C111.754 329.624 106.014 330.834 105.295 326.919L105.295 326.921Z" fill="#171717"/>
</g>
<g opacity="0.1">
<path d="M194.387 386.555C193.466 388.062 192.816 389.168 191.189 390.058C189.399 391.038 187.399 391.62 185.458 392.216C182.058 393.26 178.615 394.167 175.128 394.871C167.919 396.33 160.602 397.189 153.252 397.439C138.517 397.981 123.81 395.787 109.875 390.966C102.19 388.276 94.6579 385.208 88.6455 379.583C87.8329 378.822 88.6894 377.566 89.6857 377.796C96.3476 379.331 102.629 381.882 109.168 383.848C115.882 385.842 122.74 387.316 129.68 388.258C143.165 390.124 157.067 390.086 170.47 387.633C174.208 386.949 177.93 386.123 181.6 385.14C183.493 384.633 185.357 383.984 187.263 383.535C188.277 383.262 189.319 383.102 190.368 383.057C191.446 383.051 192.285 383.521 193.282 383.835C193.553 383.914 193.803 384.054 194.012 384.243C194.222 384.432 194.386 384.666 194.492 384.927C194.598 385.189 194.645 385.471 194.627 385.753C194.608 386.035 194.527 386.309 194.388 386.554L194.387 386.555Z" fill="#171717"/>
</g>
<defs>
<linearGradient id="paint0_linear_1532_1834" x1="120.453" y1="231.502" x2="120.453" y2="398.145" gradientUnits="userSpaceOnUse">
<stop stop-color="#B1E938"/>
<stop offset="1" stop-color="#ABF600"/>
</linearGradient>
<linearGradient id="paint1_linear_1532_1834" x1="149.634" y1="286.638" x2="149.634" y2="314.256" gradientUnits="userSpaceOnUse">
<stop stop-color="#B1E938"/>
<stop offset="1" stop-color="#ABF600"/>
</linearGradient>
<linearGradient id="paint2_linear_1532_1834" x1="251.417" y1="231.31" x2="251.417" y2="399.846" gradientUnits="userSpaceOnUse">
<stop stop-color="#B1E938"/>
<stop offset="1" stop-color="#ABF600"/>
</linearGradient>
</defs>
</svg>
