<svg width="434" height="301" viewBox="0 0 434 301" fill="none" xmlns="http://www.w3.org/2000/svg">
<mask id="mask0_1650_1835" style="mask-type:luminance" maskUnits="userSpaceOnUse" x="0" y="0" width="434" height="301">
<path d="M433.825 0.0416565H0.174805V300.45H433.825V0.0416565Z" fill="white"/>
</mask>
<g mask="url(#mask0_1650_1835)">
<path fill-rule="evenodd" clip-rule="evenodd" d="M330.048 220.234C333.796 244.154 334.825 268.478 330.287 292.085L331.162 292.25C331.968 291.681 332.772 291.099 333.571 290.512C356.072 273.928 373.845 251.745 385.123 226.169C396.692 199.805 401.117 171.095 397.422 142.546C380.718 150.751 365.798 162.958 353.873 177.602C343.521 190.25 335.563 204.68 330.387 220.182L330.048 220.234ZM394.149 168.716C394.187 168.34 393.912 168.004 393.536 167.967C393.159 167.93 392.824 168.204 392.787 168.581C389.092 205.899 373.434 241.024 348.15 268.718C347.895 268.998 347.915 269.431 348.194 269.685C348.473 269.941 348.906 269.921 349.161 269.642C374.645 241.729 390.425 206.328 394.149 168.716Z" fill="#171717"/>
<path fill-rule="evenodd" clip-rule="evenodd" d="M314.422 153.08C318.294 167.338 322.166 181.598 325.392 196.011C327.186 204.01 328.775 212.1 330.047 220.234L330.386 220.182C335.562 204.679 343.52 190.25 353.871 177.602L353.581 177.367C362.241 155.753 361.741 129.856 352.083 108.665L352 108.704C334.686 117.688 320.923 132.051 313.627 150.138H313.624C313.89 151.119 314.156 152.099 314.422 153.08ZM352.739 118.64C352.629 118.278 352.246 118.074 351.885 118.183C351.523 118.293 351.318 118.675 351.428 119.037C356.11 134.489 356.136 150.979 351.504 166.446C351.395 166.808 351.601 167.19 351.963 167.298C352.325 167.407 352.707 167.201 352.815 166.839C357.525 151.114 357.499 134.35 352.739 118.64Z" fill="url(#paint0_linear_1650_1835)"/>
<path fill-rule="evenodd" clip-rule="evenodd" d="M311.126 248.949C314.071 241.305 311.057 234.669 304.795 230.062C300.013 226.549 295.957 225.802 290.234 227.383C286.138 228.517 282.304 230.146 279.281 233.234C274.873 237.743 272.876 244.565 274.452 250.674C276.028 256.784 281.24 261.873 287.445 263.015C292.592 263.962 297.968 262.285 302.332 259.393C306.189 256.84 309.463 253.265 311.126 248.949ZM298.125 230.976C297.755 230.9 297.393 231.139 297.318 231.509C297.241 231.88 297.48 232.242 297.851 232.318C300.783 232.919 303.362 234.649 305.028 237.137C306.695 239.623 307.315 242.666 306.756 245.607C306.685 245.979 306.929 246.337 307.3 246.408C307.672 246.478 308.03 246.234 308.101 245.863C308.728 242.569 308.032 239.16 306.166 236.374C304.299 233.588 301.411 231.649 298.125 230.976Z" fill="url(#paint1_linear_1650_1835)"/>
<path fill-rule="evenodd" clip-rule="evenodd" d="M90.3813 288.076L90.3636 287.99L90.3631 287.989C91.0563 287.812 91.782 287.8 92.4807 287.957C93.1789 288.113 93.8308 288.432 94.3825 288.888C94.9341 289.344 95.3702 289.924 95.6549 290.581C95.9401 291.237 96.0654 291.952 96.0217 292.666C96.0148 292.777 96.0045 292.891 95.9941 293.006C95.9361 293.666 95.8742 294.37 96.3476 294.799C96.7061 295.056 97.1397 295.187 97.5808 295.172C102.82 295.535 108.06 295.902 113.301 296.271C114.305 296.34 115.46 296.353 116.129 295.602C116.41 295.231 116.562 294.778 116.562 294.313C116.562 293.846 116.41 293.394 116.129 293.022C115.545 292.289 114.734 291.771 113.823 291.55C113.398 291.421 112.963 291.326 112.528 291.23C112.054 291.125 111.58 291.02 111.119 290.873C108.378 289.996 106.298 287.651 105.139 285.015C103.979 282.379 103.623 279.469 103.406 276.603L103.402 276.438C97.3477 276.51 91.2943 276.243 85.2704 275.639L85.262 275.747C84.9223 281.147 84.5806 286.548 84.2369 291.95C84.1804 292.383 84.2113 292.823 84.3284 293.244C84.4518 293.536 84.6376 293.797 84.8722 294.009C85.1072 294.221 85.3854 294.38 85.6878 294.473C86.2936 294.657 86.9229 294.751 87.5562 294.751C88.3635 294.79 89.3321 294.745 89.749 294.056C89.9049 293.745 89.9865 293.401 89.9879 293.053L90.3813 288.076ZM100.376 279.688C100.396 279.31 100.105 278.988 99.7279 278.969C99.3503 278.949 99.0282 279.239 99.009 279.617C98.9048 281.615 99.2844 283.608 100.115 285.428C100.946 287.248 102.203 288.841 103.781 290.071C104.079 290.304 104.509 290.251 104.741 289.953C104.974 289.654 104.921 289.224 104.623 288.992C103.219 287.897 102.1 286.479 101.361 284.86C100.622 283.24 100.284 281.466 100.376 279.688Z" fill="url(#paint2_linear_1650_1835)"/>
<path fill-rule="evenodd" clip-rule="evenodd" d="M33.7516 282.366C34.4738 280.593 35.1931 278.818 35.9095 277.042C36.9041 277.457 37.9607 277.705 39.036 277.774C38.8851 279.601 38.9564 281.44 39.2489 283.25C39.5503 285.076 40.5056 286.73 41.9368 287.902C43.2506 288.89 44.8908 289.242 46.5133 289.591C46.8806 289.67 47.2468 289.748 47.6082 289.834C48.8403 290.126 50.0661 290.515 51.2908 290.903C54.2541 291.843 57.2115 292.78 60.2416 292.344C59.4731 291.225 58.3801 290.404 57.2857 289.582C56.2773 288.824 55.2674 288.065 54.5093 287.072C52.7722 284.793 52.6591 281.601 53.5018 278.861C54.3445 276.121 56.0295 273.732 57.6879 271.396L57.7272 271.21C50.8616 269.741 44.0392 268.07 37.2645 266.324L37.2385 266.419C35.0673 270.592 32.8956 274.762 30.7244 278.931C30.5675 279.198 30.4535 279.488 30.3856 279.791C30.3532 280.187 30.4387 280.585 30.631 280.933C30.8237 281.281 31.1143 281.566 31.4673 281.749C32.1802 282.105 32.957 282.314 33.7516 282.366ZM52.3617 273.735C52.6276 273.465 52.6247 273.032 52.3553 272.766C52.0863 272.501 51.6527 272.504 51.3872 272.773C49.773 274.409 48.654 276.467 48.1594 278.712C47.6648 280.956 47.8147 283.295 48.592 285.458C48.7199 285.814 49.1117 285.998 49.4677 285.871C49.8237 285.743 50.0085 285.35 49.8807 284.995C49.1904 283.075 49.0572 280.999 49.4962 279.006C49.9353 277.014 50.9289 275.187 52.3617 273.735Z" fill="url(#paint3_linear_1650_1835)"/>
<path fill-rule="evenodd" clip-rule="evenodd" d="M121.137 273.202C122.644 271.209 122.292 268.43 121.866 265.967C118.947 249.056 115.935 232.159 112.833 215.277C110.24 201.167 107.582 187.066 104.86 172.974C103.888 167.954 102.91 162.934 101.924 157.913L101.798 157.453C96.5259 158.887 91.2321 160.233 85.8774 161.305C75.7889 163.33 65.3926 164.389 55.1915 162.995C53.7494 162.804 52.3187 162.535 50.9051 162.191L50.8402 162.437C51.1692 165.325 51.4047 168.217 51.5477 171.114C51.8447 176.947 51.7769 182.793 51.3437 188.617C50.0949 205.479 45.8665 221.984 38.8554 237.369C36.0401 243.552 32.7808 249.524 29.1031 255.236L29.0848 255.265C28.277 256.525 27.4252 257.853 27.3823 259.345C27.2775 262.945 31.5339 264.834 35.0169 265.742C35.7633 265.937 36.515 266.132 37.2663 266.323C44.0405 268.07 50.8633 269.741 57.729 271.209C66.8184 273.205 76.0136 274.683 85.2707 275.639C91.2946 276.243 97.3475 276.51 103.401 276.438C104.501 276.426 105.603 276.399 106.706 276.355C109.318 276.263 111.931 276.09 114.545 275.839C116.972 275.604 119.665 275.148 121.137 273.202ZM97.9979 160.981C97.9188 160.612 97.5545 160.376 97.1847 160.455C96.815 160.535 96.58 160.899 96.6591 161.268C104.021 195.551 110.366 230.032 115.693 264.711C115.751 265.085 116.1 265.342 116.474 265.284C116.847 265.227 117.104 264.877 117.047 264.503C111.715 229.798 105.366 195.29 97.9979 160.981Z" fill="#171717"/>
<path fill-rule="evenodd" clip-rule="evenodd" d="M60.6424 79.1764C66.2537 78.2083 71.4625 75.629 75.6338 71.7522C78.6732 74.7568 79.012 79.6513 78.0277 83.8305C77.5001 86.0558 76.6633 88.1891 75.8265 90.3239C75.0723 92.2473 74.3181 94.1717 73.789 96.164C72.8799 99.5776 72.7644 103.464 74.3058 106.543V106.547C74.6632 107.269 75.116 107.94 75.652 108.541L75.8521 108.858C76.0605 108.919 76.2685 108.974 76.477 109.023C78.0006 109.388 79.5769 109.48 81.1326 109.293C83.495 109.002 85.7434 108.111 87.6644 106.705C89.8695 105.102 91.5765 102.908 92.5889 100.377C95.238 93.7459 92.1071 85.3557 85.7621 82.0772C88.0985 81.9553 89.9275 79.6494 90.0312 77.313C90.135 74.9766 88.8326 72.7538 87.0911 71.1942C85.3496 69.6346 83.1956 68.6272 81.0721 67.637C81.0372 66.6817 80.9983 65.7219 80.9595 64.7666L82.8008 64.865L94.2438 44.4323L40.3936 60.5742L47.2405 74.065L55.5133 71.203C55.7203 72.3275 55.9258 73.4524 56.1303 74.5773L56.4342 74.8812C56.3727 75.1541 56.3127 75.4284 56.2528 75.7023C56.1933 75.9737 56.1343 76.2451 56.0738 76.514C54.1238 76.8356 52.3042 77.7014 50.8243 79.0117C49.3448 80.322 48.2656 82.0236 47.7105 83.921C47.1554 85.8178 47.1481 87.8327 47.6879 89.7339C48.2283 91.6352 49.2942 93.3452 50.7638 94.6668C47.1589 96.7122 45.7783 101.733 47.4937 105.507C48.8787 108.551 51.9792 110.601 55.2974 111.083C56.0866 111.202 56.887 111.225 57.6815 111.152C58.8576 111.049 60.0032 110.72 61.0554 110.183C62.2113 109.623 63.1887 108.753 63.8785 107.669C64.0594 107.373 64.2128 107.062 64.3382 106.739C64.5034 106.305 64.6199 105.854 64.6858 105.394C64.9159 103.851 64.6509 102.223 64.382 100.664C63.1454 93.5399 61.9064 86.4152 60.6645 79.289L60.6424 79.1764ZM85.5812 74.5355C85.3112 74.271 84.8781 74.2755 84.6131 74.5454C84.3486 74.8153 84.353 75.249 84.6229 75.5135C85.0934 75.9747 85.4435 76.5435 85.6426 77.1714C85.8417 77.7987 85.8845 78.4654 85.766 79.1135C85.648 79.761 85.3727 80.3697 84.9651 80.8864C84.557 81.4031 84.0285 81.8122 83.4257 82.0772C83.1838 82.1839 83.025 82.4199 83.0171 82.6839C83.0093 82.948 83.1538 83.1928 83.3893 83.3133C84.8682 84.0714 86.1599 85.1506 87.1697 86.4712C88.1791 87.7919 88.8817 89.321 89.2254 90.9479C89.5696 92.5743 89.546 94.2568 89.1571 95.8729C88.7686 97.4895 88.0243 98.9989 86.978 100.291C86.7405 100.585 86.7857 101.016 87.0798 101.254C87.3738 101.492 87.8045 101.446 88.0424 101.152C89.2165 99.702 90.0524 98.0077 90.4885 96.1935C90.9251 94.3792 90.9511 92.4902 90.5652 90.6642C90.1792 88.8386 89.3906 87.1222 88.2573 85.6393C87.3689 84.477 86.2857 83.4814 85.059 82.6957C85.4238 82.4194 85.7537 82.0969 86.0394 81.735C86.5861 81.0428 86.9549 80.2271 87.1132 79.3588C87.2715 78.491 87.2145 77.5976 86.9475 76.7564C86.6805 75.9157 86.2115 75.1531 85.5812 74.5355Z" fill="#171717"/>
<path d="M407.24 201.886C409.694 210.329 409.156 219.361 405.716 227.453L405.746 227.479C405.169 228.196 404.582 228.908 403.983 229.607L403.87 229.508C402.285 223.636 401.201 217.641 400.631 211.586C400.318 208.316 400.17 204.963 401.061 201.802C401.258 200.972 401.631 200.194 402.155 199.522C402.42 199.187 402.761 198.92 403.148 198.742C403.536 198.564 403.961 198.48 404.387 198.497C405.95 198.642 406.797 200.375 407.24 201.886Z" fill="url(#paint4_linear_1650_1835)"/>
<path d="M406.076 227.287C413.198 223.826 420.468 220.322 428.31 219.227C429.115 219.076 429.939 219.065 430.746 219.196C431.15 219.266 431.531 219.426 431.864 219.664C432.195 219.903 432.469 220.213 432.664 220.573C433.285 221.893 432.36 223.418 431.344 224.464C427.939 227.96 423.084 229.749 418.237 230.331C413.43 230.908 408.558 230.405 403.742 229.884C403.824 229.792 403.902 229.701 403.98 229.606C404.579 228.906 405.166 228.194 405.744 227.477C405.817 227.386 405.896 227.295 405.969 227.2L406.076 227.287Z" fill="url(#paint5_linear_1650_1835)"/>
<path d="M329.557 97.5347L329.61 97.0135L329.979 97.0524C333.566 87.9167 339.646 79.9719 347.527 74.123C349.217 77.1458 348.127 80.9498 346.576 84.0508C342.795 91.5551 336.647 97.605 329.083 101.265C329.091 101.228 329.097 101.19 329.101 101.152C329.271 99.9483 329.419 98.7417 329.557 97.5347Z" fill="#171717"/>
<path d="M343.801 56.5607C344.856 57.4294 344.887 59.019 344.7 60.3735C344.108 64.3162 342.479 68.0308 339.978 71.1351C337.477 74.24 334.195 76.6231 330.469 78.0401L330.321 78.044C330.295 77.1536 330.256 76.2677 330.208 75.3817L330.282 75.3772C332.31 69.4586 334.408 63.413 338.296 58.5101C338.928 57.6173 339.756 56.8807 340.715 56.3561C341.198 56.101 341.742 55.9849 342.287 56.0213C342.832 56.0572 343.356 56.244 343.801 56.5607Z" fill="#171717"/>
<path d="M330.321 78.0451C330.326 78.1316 330.33 78.2191 330.33 78.3057L329.965 78.319C327.737 75.9742 324.785 74.4889 322.044 72.7685C319.303 71.0482 316.612 68.9124 315.438 65.8945C314.957 64.6521 314.787 63.154 315.543 62.0556C315.854 61.6431 316.258 61.3093 316.72 61.0792C317.183 60.8496 317.692 60.7301 318.209 60.7311C319.244 60.7394 320.26 61.0098 321.162 61.5177C323.663 62.8079 325.579 65.04 326.951 67.4979C328.323 69.9557 329.2 72.6481 330.069 75.3276L330.208 75.3409V75.3842C330.256 76.2692 330.294 77.1562 330.321 78.0451Z" fill="#171717"/>
<path d="M318.231 78.315C323.945 83.3624 327.91 90.0919 329.557 97.5357C329.418 98.7428 329.27 99.9503 329.101 101.153L328.905 101.127C323.237 95.7185 317.461 90.1661 313.901 83.1869C313.345 82.093 312.832 80.9203 312.885 79.6912C312.937 78.462 313.697 77.1837 314.9 76.929C316.12 76.6679 317.288 77.4929 318.231 78.315Z" fill="#171717"/>
<path d="M316.442 241.879C317.063 251.862 311.574 262.077 302.719 266.724C293.864 271.37 282.095 269.963 274.847 263.072C267.599 256.18 265.653 244.215 270.678 235.564C272.993 231.586 276.523 228.494 280.484 226.219C287.602 222.123 293.312 221.177 301.112 223.109C310.297 225.389 315.851 232.381 316.442 241.879ZM311.126 248.949C314.071 241.305 311.057 234.67 304.795 230.062C300.013 226.549 295.957 225.802 290.234 227.382C286.138 228.513 282.304 230.145 279.281 233.233C274.873 237.741 272.875 244.568 274.452 250.674C276.029 256.78 281.24 261.874 287.445 263.014C292.592 263.961 297.967 262.285 302.332 259.393C306.188 256.839 309.463 253.265 311.126 248.949Z" fill="url(#paint6_linear_1650_1835)"/>
<path d="M131.106 230.888C132.009 247.976 131.562 265.021 128.743 281.715C115.733 280.863 106.709 276.434 106.709 276.434L106.704 276.356C109.318 276.26 111.931 276.088 114.542 275.839C116.97 275.605 119.662 275.151 121.135 273.203C122.641 271.21 122.29 268.43 121.864 265.968C118.941 249.058 115.93 232.162 112.831 215.28H112.835C112.835 215.28 116.968 217.112 131.106 230.888Z" fill="url(#paint7_linear_1650_1835)"/>
<path d="M96.8082 136.789C99.4269 136.311 102.037 135.751 104.62 135.108C106.714 134.587 109.158 134.096 110.987 135.012C111.334 135.182 111.653 135.403 111.933 135.668C113.224 136.88 113.484 138.795 113.675 140.554C113.929 142.53 114.011 144.523 113.921 146.513C113.76 148.805 113.178 150.981 111.723 152.736C109.686 155.197 106.421 156.188 103.342 157.035C102.825 157.178 102.312 157.317 101.796 157.456C96.5236 158.889 91.2298 160.235 85.875 161.308C75.7865 163.332 65.3902 164.392 55.1891 162.998C53.7471 162.807 52.3163 162.538 50.9028 162.194C47.32 161.299 43.9241 159.793 41.4707 157.1C38.8476 154.225 37.6145 150.269 37.5098 146.378C37.4051 142.487 38.3614 138.635 39.6682 134.965C42.9594 125.733 47.9892 117.885 55.2585 111.31L55.2934 111.08C56.0825 111.199 56.8829 111.223 57.6775 111.149C58.854 111.046 59.9996 110.717 61.0518 110.181L61.1039 110.285C59.7444 114.224 61.5636 118.949 65.0992 121.155C68.6348 123.361 73.5239 122.992 76.8377 120.46C78.4671 119.149 79.7223 117.431 80.477 115.481C81.2317 113.53 81.4594 111.415 81.1369 109.348L81.1285 109.292C83.491 109.001 85.7393 108.11 87.6598 106.704C96.8889 109.37 106.255 111.54 115.716 113.203C116.342 119.398 117.132 125.715 118.048 132.28L118.126 132.441C117.918 132.545 117.705 132.649 117.487 132.753L117.37 132.507C117.447 130.888 117.136 129.274 116.463 127.8C116.098 127.001 115.368 126.133 114.513 126.345C114.254 126.45 114.019 126.608 113.824 126.809C113.629 127.009 113.477 127.248 113.379 127.509C112.688 128.863 112.202 130.312 111.937 131.808L111.412 131.67L99.213 129.31C98.6009 129.192 97.8973 129.092 97.4022 129.475C96.8727 129.883 96.8205 130.643 96.8078 131.308C96.7856 133.001 96.761 134.695 96.7335 136.389L96.8082 136.789Z" fill="#171717"/>
<path d="M72.7757 115.466C73.8653 114.933 74.7793 114.099 75.4106 113.064C76.0414 112.028 76.3625 110.833 76.3364 109.621L76.4755 109.022C77.9992 109.386 79.5755 109.477 81.1311 109.291L81.1395 109.348C81.4615 111.414 81.2339 113.529 80.4792 115.48C79.7245 117.43 78.4692 119.147 76.8404 120.459C73.5265 122.991 68.6413 123.36 65.1018 121.154C61.5623 118.948 59.7471 114.221 61.106 110.284L61.0569 110.18C62.2128 109.62 63.1902 108.749 63.8795 107.666L64.2488 107.865C63.8599 109.019 63.8191 110.261 64.1308 111.438C64.443 112.614 65.0935 113.673 66.0025 114.483C66.9111 115.293 68.0381 115.817 69.2426 115.992C70.4472 116.166 71.6769 115.983 72.7782 115.465L72.7757 115.466Z" fill="url(#paint8_linear_1650_1835)"/>
<path d="M51.2231 188.611L51.3446 188.619C50.0957 205.48 45.8674 221.986 38.8562 237.371L38.8071 237.348C24.5237 222.879 15.4348 203.389 18.0972 183.23C26.1571 184.066 32.9272 185.058 38.2038 185.961C46.6113 187.399 51.2231 188.611 51.2231 188.611Z" fill="url(#paint9_linear_1650_1835)"/>
<path d="M329.222 27.5691C326.208 26.0916 322.806 25.5965 319.495 26.1531C314.401 27.0346 310.215 30.1223 306.984 34.2046C304.297 37.6856 302.234 41.6057 300.887 45.7912C300.31 47.5327 299.814 49.2958 299.398 51.0673C295.876 66.0327 297.822 81.9833 300.744 97.1999C304.17 115.04 308.865 132.594 313.625 150.138C317.76 165.377 321.946 180.607 325.394 196.011C327.187 204.01 328.777 212.1 330.049 220.234C333.797 244.154 334.826 268.477 330.288 292.085C329.971 293.709 329.631 295.33 329.268 296.949" stroke="#171717" stroke-width="2.785" stroke-linecap="round" stroke-linejoin="round"/>
<path d="M331.537 28.989C330.812 28.4487 330.04 27.9747 329.231 27.573" stroke="#171717" stroke-width="2.785" stroke-linecap="round" stroke-linejoin="round"/>
<path d="M323.544 32.8358C323.495 32.8402 323.453 32.8491 323.406 32.8574C317.769 33.7424 314.668 41.3633 317.734 46.2027C319.455 48.9217 322.607 50.3588 325.812 50.4458C328.387 50.5535 330.91 49.7009 332.892 48.0529C337.256 44.27 337.858 37.1049 334.673 32.2841C333.832 31.0186 332.778 29.9074 331.558 29.0008" stroke="#171717" stroke-width="2.785" stroke-linecap="round" stroke-linejoin="round"/>
<path d="M329.106 296.97C261.677 294.66 192.075 294.647 124.776 299.468" stroke="#171717" stroke-width="2.785" stroke-linecap="round" stroke-linejoin="round"/>
<path d="M118.049 132.281C117.133 125.715 116.342 119.399 115.717 113.204C113.871 94.8954 113.471 77.6566 115.573 58.2427C116.442 50.2216 118.157 41.5663 124.246 36.2686C129.331 31.8436 136.41 30.7054 143.089 29.8022C188.981 23.5944 235.192 20.0377 281.493 19.1498C297.848 18.8371 315.175 19.4939 329.224 27.57C329.226 27.5705 329.228 27.571 329.229 27.5715C329.23 27.5725 329.232 27.5735 329.233 27.5745C330.01 28.0219 330.779 28.4939 331.539 28.9905C331.543 28.9915 331.546 28.9929 331.55 28.9949C331.553 28.9974 331.555 29.0003 331.557 29.0037C331.712 29.1021 331.864 29.2039 332.021 29.3076" stroke="#171717" stroke-width="2.785" stroke-linecap="round" stroke-linejoin="round"/>
<path d="M124.776 299.467C126.421 293.626 127.746 287.699 128.745 281.713C131.563 265.02 132.01 247.974 131.108 230.886C130.209 213.854 127.964 196.778 125.388 179.963C125.339 179.628 125.29 179.29 125.236 178.956C123.052 164.764 122.339 159.96 120.351 145.69" stroke="#171717" stroke-width="2.785" stroke-linecap="round" stroke-linejoin="round"/>
<path d="M57.9717 79.5039C58.867 79.439 59.7584 79.3288 60.6424 79.1739C66.2538 78.2058 71.4625 75.6261 75.6338 71.7498C76.0119 71.3977 76.3807 71.0329 76.7411 70.6598" stroke="#171717" stroke-width="2.785" stroke-linecap="round" stroke-linejoin="round"/>
<path d="M74.3042 106.545C74.6621 107.267 75.115 107.937 75.6504 108.539" stroke="#171717" stroke-width="2.785" stroke-linecap="round" stroke-linejoin="round"/>
<path d="M75.5118 71.6283C75.5556 71.6667 75.5959 71.7089 75.6333 71.7542C78.6733 74.7592 79.012 79.6538 78.0262 83.831C77.0227 88.0593 74.9036 91.9607 73.7871 96.1644C72.8799 99.5781 72.7624 103.465 74.3038 106.544" stroke="#171717" stroke-width="2.785" stroke-linecap="round" stroke-linejoin="round"/>
<path d="M60.6636 79.2865C61.9055 86.4127 63.1445 93.5375 64.3811 100.661C64.65 102.22 64.915 103.849 64.6849 105.391C64.619 105.851 64.5025 106.302 64.3378 106.737C64.2124 107.06 64.0585 107.371 63.8776 107.666C63.1883 108.75 62.2104 109.621 61.0545 110.181C60.0023 110.717 58.8567 111.046 57.6806 111.149C56.8861 111.222 56.0857 111.199 55.2965 111.08C51.9783 110.598 48.8778 108.548 47.4928 105.504C45.7774 101.73 47.158 96.7097 50.7629 94.6644C49.2938 93.3423 48.2279 91.6323 47.6875 89.7315C47.1477 87.8302 47.1555 85.8153 47.7101 83.9185C48.2652 82.0216 49.3444 80.32 50.8239 79.0097C52.3033 77.6989 54.1229 76.8331 56.0729 76.5115C56.1943 75.9707 56.3113 75.4215 56.4333 74.8787" stroke="#171717" stroke-width="2.785" stroke-linecap="round" stroke-linejoin="round"/>
<path d="M56.1303 74.5749C55.9263 73.4499 55.7208 72.325 55.5138 71.2006L47.2405 74.0626L40.3936 60.5742L94.2438 44.4323L82.8008 64.865L80.9595 64.7666C80.9988 65.7219 81.0372 66.6817 81.0721 67.637C83.1956 68.6272 85.3496 69.6346 87.0911 71.1942C88.8326 72.7538 90.135 74.9766 90.0312 77.313C89.9275 79.6494 88.0985 81.9553 85.7621 82.0772C92.1071 85.3557 95.238 93.7459 92.5894 100.377C91.5765 102.908 89.8695 105.102 87.6644 106.705C85.7434 108.111 83.495 109.002 81.1326 109.293C79.5769 109.48 78.0006 109.388 76.4775 109.024C76.2685 108.974 76.0605 108.919 75.8521 108.858" stroke="#171717" stroke-width="2.785" stroke-linecap="round" stroke-linejoin="round"/>
<path d="M65.1372 78.3312C65.6756 77.931 66.3349 77.727 67.0055 77.7535C67.6752 77.7806 68.3148 78.0387 68.8163 78.4832" stroke="#171717" stroke-width="1.857" stroke-linecap="round" stroke-linejoin="round"/>
<path d="M73.4355 78.7304C73.7969 78.5003 74.2035 78.3509 74.6278 78.2924C75.0521 78.2338 75.4838 78.2678 75.8939 78.3917" stroke="#171717" stroke-width="1.857" stroke-linecap="round" stroke-linejoin="round"/>
<path d="M71.5649 76.5942C72.2616 76.1384 73.0645 75.8719 73.8949 75.8198C74.7259 75.7682 75.5558 75.9334 76.3031 76.2992" stroke="#171717" stroke-width="1.857" stroke-linecap="round" stroke-linejoin="round"/>
<path d="M71.4375 81.0885C71.5688 81.4513 71.8303 81.7517 72.1716 81.9312C72.5167 82.1229 72.8338 82.3609 73.1136 82.6392C73.2744 82.826 73.3747 83.0566 73.4027 83.3015C73.4302 83.5458 73.384 83.7931 73.2695 84.0114C73.1298 84.2415 72.9366 84.4343 72.7055 84.5724C72.4749 84.7111 72.2138 84.7912 71.9449 84.806" stroke="#171717" stroke-width="1.857" stroke-linecap="round" stroke-linejoin="round"/>
<path d="M71.1469 91.4725C70.8568 91.6598 70.5219 91.7665 70.1768 91.7808C69.8316 91.7955 69.489 91.7173 69.1841 91.5551C68.5632 91.2144 68.0085 90.765 67.5469 90.2276" stroke="#171717" stroke-width="1.857" stroke-linecap="round" stroke-linejoin="round"/>
<path d="M55.2612 111.31C47.9914 117.885 42.9627 125.732 39.671 134.965C38.3636 138.635 37.4127 142.482 37.5126 146.378C37.6124 150.273 38.8499 154.225 41.4734 157.1C43.9268 159.793 47.3243 161.299 50.9056 162.194C52.3191 162.538 53.7498 162.806 55.1919 162.998C65.393 164.392 75.7893 163.333 85.8778 161.308C91.2325 160.236 96.5263 158.889 101.798 157.456C102.315 157.317 102.828 157.178 103.344 157.035C106.423 156.188 109.689 155.198 111.726 152.736C113.181 150.981 113.763 148.805 113.923 146.513C114.013 144.523 113.931 142.529 113.678 140.554C113.486 138.795 113.226 136.88 111.936 135.669C111.655 135.403 111.336 135.182 110.989 135.013C109.161 134.097 106.716 134.587 104.623 135.108C102.039 135.751 99.4291 136.311 96.8105 136.789C92.1259 137.649 87.3966 138.247 82.6446 138.578C78.5367 138.865 74.3458 138.947 70.3677 137.892C66.3896 136.837 62.5939 134.5 60.5658 130.913" stroke="#171717" stroke-width="2.785" stroke-linecap="round" stroke-linejoin="round"/>
<path d="M87.5327 106.663L87.663 106.702C96.8916 109.369 106.256 111.539 115.717 113.203C115.73 113.203 115.739 113.208 115.751 113.208" stroke="#171717" stroke-width="2.785" stroke-linecap="round" stroke-linejoin="round"/>
<path d="M111.7 134.96C111.632 132.377 112.209 129.817 113.38 127.512C113.478 127.251 113.63 127.012 113.825 126.811C114.02 126.611 114.254 126.453 114.513 126.348C115.369 126.135 116.099 127.004 116.464 127.803C117.137 129.277 117.449 130.891 117.371 132.51" stroke="#171717" stroke-width="2.785" stroke-linecap="round" stroke-linejoin="round"/>
<path d="M114.21 146.529C116.263 146.346 118.298 145.987 120.29 145.457C123.697 144.557 126.957 143.17 129.969 141.34C130.474 141.071 130.919 140.704 131.277 140.258C131.454 140.034 131.566 139.766 131.601 139.483C131.637 139.199 131.593 138.911 131.477 138.651C131.086 137.939 130.122 137.83 129.313 137.839C128.68 137.844 128.041 137.865 127.407 137.9C123.809 138.104 120.256 138.8 116.848 139.97" stroke="#171717" stroke-width="2.785" stroke-linecap="round" stroke-linejoin="round"/>
<path d="M127.342 137.913C127.365 137.911 127.386 137.906 127.408 137.9C128.641 137.709 129.727 136.845 130.653 136.002C131.148 135.555 131.595 134.925 131.448 134.278C131.37 134.025 131.225 133.796 131.029 133.617C130.832 133.439 130.592 133.316 130.332 133.262C129.812 133.157 129.277 133.158 128.758 133.266C128.133 133.358 127.513 133.463 126.896 133.584C123.401 134.354 119.964 135.363 116.608 136.602" stroke="#171717" stroke-width="2.785" stroke-linecap="round" stroke-linejoin="round"/>
<path d="M126.864 133.431C127.512 132.957 128.084 132.386 128.558 131.738C128.747 131.475 128.857 131.163 128.875 130.84C128.892 130.517 128.816 130.195 128.656 129.913C128.122 129.132 126.963 129.21 126.046 129.432C123.301 130.132 120.643 131.142 118.125 132.441C117.916 132.545 117.704 132.649 117.486 132.754C117.421 132.788 117.352 132.819 117.282 132.852" stroke="#171717" stroke-width="2.785" stroke-linecap="round" stroke-linejoin="round"/>
<path d="M111.413 131.673L99.2143 129.313C98.6022 129.196 97.8986 129.095 97.4035 129.478C96.8735 129.886 96.8214 130.646 96.8086 131.311C96.787 133.004 96.7624 134.697 96.7349 136.392" stroke="#171717" stroke-width="2.785" stroke-linecap="round" stroke-linejoin="round"/>
<path d="M50.8407 162.44C51.1662 165.328 51.4022 168.22 51.5487 171.117C51.8452 176.949 51.7773 182.795 51.3447 188.62C50.0958 205.481 45.8675 221.986 38.8563 237.372C36.0396 243.554 32.7793 249.525 29.1006 255.237C28.2889 256.505 27.4245 257.843 27.3798 259.345C27.2756 262.945 31.5315 264.835 35.0145 265.742C35.7613 265.939 36.5111 266.133 37.2638 266.324C44.0385 268.07 50.8609 269.741 57.7265 271.21C66.8159 273.205 76.0111 274.684 85.2682 275.639C91.2921 276.244 97.3455 276.511 103.399 276.438C104.498 276.425 105.599 276.397 106.704 276.356C109.318 276.26 111.931 276.088 114.543 275.839C116.97 275.605 119.663 275.151 121.135 273.203C122.641 271.21 122.29 268.43 121.864 265.968C118.941 249.058 115.931 232.161 112.831 215.28C110.238 201.17 107.581 187.07 104.858 172.978C103.89 167.957 102.911 162.937 101.922 157.917" stroke="#171717" stroke-width="2.785" stroke-linecap="round" stroke-linejoin="round"/>
<path d="M64.2463 107.864C63.9562 108.727 63.8588 109.642 63.9616 110.546C64.0643 111.45 64.3647 112.32 64.8412 113.095C65.3171 113.871 65.9582 114.532 66.7184 115.032C67.4785 115.532 68.3389 115.859 69.2396 115.989C70.1399 116.12 71.0583 116.051 71.929 115.788C72.7998 115.524 73.6022 115.073 74.2792 114.465C74.9562 113.857 75.4912 113.108 75.8466 112.27C76.2021 111.433 76.3693 110.527 76.3363 109.618" stroke="#171717" stroke-width="2.785" stroke-linecap="round" stroke-linejoin="round"/>
<path d="M61.1065 110.285C59.7476 114.224 61.5667 118.949 65.1023 121.155C68.6379 123.361 73.527 122.992 76.8404 120.46C78.4698 119.149 79.725 117.431 80.4797 115.481C81.2344 113.53 81.462 111.415 81.14 109.348" stroke="#171717" stroke-width="2.785" stroke-linecap="round" stroke-linejoin="round"/>
<path d="M65.0327 105.438C65.4378 106.442 65.9674 107.39 66.609 108.261C67.2595 109.137 68.2163 109.735 69.2886 109.937C69.824 109.991 70.3648 109.938 70.8791 109.781C71.3939 109.624 71.8728 109.368 72.2877 109.025C73.1157 108.339 73.8006 107.496 74.3036 106.546V106.541" stroke="#171717" stroke-width="2.785" stroke-linecap="round" stroke-linejoin="round"/>
<path d="M331.159 292.25C331.967 291.681 332.77 291.099 333.568 290.512C356.07 273.928 373.843 251.746 385.122 226.17C396.69 199.806 401.115 171.096 397.42 142.547" stroke="#171717" stroke-width="2.785" stroke-linecap="round" stroke-linejoin="round"/>
<path d="M397.422 142.547C380.715 150.751 365.798 162.958 353.872 177.603C343.521 190.251 335.562 204.681 330.387 220.184" stroke="#171717" stroke-width="2.785" stroke-linecap="round" stroke-linejoin="round"/>
<path d="M353.581 177.367C362.241 155.753 361.743 129.853 352.083 108.665C352.068 108.628 352.052 108.592 352.034 108.556" stroke="#171717" stroke-width="2.785" stroke-linecap="round" stroke-linejoin="round"/>
<path d="M352.001 108.704C334.686 117.69 320.924 132.051 313.628 150.138" stroke="#171717" stroke-width="2.785" stroke-linecap="round" stroke-linejoin="round"/>
<path d="M360.625 169.529C366.226 159.773 370.893 149.51 374.566 138.877C374.578 138.843 374.587 138.808 374.6 138.774C374.922 137.84 375.239 136.902 375.543 135.959C375.782 135.248 376.007 134.534 376.231 133.823C378.817 125.574 380.81 117.15 382.193 108.617C382.263 108.209 382.328 107.797 382.39 107.388C382.512 106.619 382.626 105.851 382.734 105.082C382.756 104.961 382.774 104.839 382.786 104.717C384.178 94.8296 384.737 84.8423 384.458 74.861" stroke="#171717" stroke-width="2.785" stroke-linecap="round" stroke-linejoin="round"/>
<path d="M384.341 74.8527C391.69 71.3289 397.92 65.8394 402.342 58.9925C402.971 58.1242 403.433 57.1463 403.705 56.1089C403.837 55.5887 403.842 55.0444 403.721 54.5213C403.599 53.9986 403.354 53.5124 403.006 53.1038C401.59 51.6317 399.098 52.3663 397.369 53.4598C391.159 57.3896 387.637 64.3256 384.406 70.9306C384.406 70.9351 384.402 70.939 384.402 70.9434" stroke="#171717" stroke-width="2.785" stroke-linecap="round" stroke-linejoin="round"/>
<path d="M384.297 70.879C382.347 68.1542 379.84 65.8758 376.941 64.1948C374.043 62.5138 370.82 61.469 367.487 61.1293C366.5 60.9911 365.496 61.0531 364.534 61.3117C364.054 61.4464 363.613 61.6927 363.246 62.031C362.88 62.3693 362.599 62.7897 362.427 63.2572C362.071 64.4082 362.645 65.6807 363.535 66.4929C364.475 67.2481 365.547 67.8224 366.697 68.1862C372.542 70.4233 378.384 72.6599 384.224 74.896" stroke="#171717" stroke-width="2.785" stroke-linecap="round" stroke-linejoin="round"/>
<path d="M382.704 105.126C382.712 105.112 382.721 105.095 382.73 105.082C387.414 97.0465 393.43 89.8657 400.522 83.8462C401.461 82.9504 402.574 82.2557 403.792 81.8048C405.034 81.4317 406.523 81.618 407.387 82.5822C407.986 83.3688 408.294 84.3389 408.258 85.3271C408.389 89.3696 406.308 93.2523 403.404 96.0666C400.499 98.8809 396.829 100.765 393.128 102.398C389.515 103.988 385.793 105.391 382.388 107.388C382.306 107.437 382.228 107.483 382.143 107.531" stroke="#171717" stroke-width="2.785" stroke-linecap="round" stroke-linejoin="round"/>
<path d="M382.5 104.718C380.663 95.4545 374.57 86.3434 366.536 81.384C365.423 80.6981 363.973 80.0767 362.875 80.7891C362.028 81.3452 361.785 82.5306 362.045 83.5119C362.372 84.4761 362.897 85.3606 363.587 86.1089C369.623 93.6437 375.722 101.131 381.883 108.57" stroke="#171717" stroke-width="2.785" stroke-linecap="round" stroke-linejoin="round"/>
<path d="M375.725 136.02C380.499 127.725 387.285 120.765 395.458 115.783C396.944 114.88 398.538 114.029 400.277 113.912C402.016 113.795 403.925 114.624 404.567 116.239C405.403 118.35 403.847 120.608 402.266 122.238C394.784 129.957 384.847 134.766 374.916 138.879L375.524 138.154" stroke="#171717" stroke-width="2.785" stroke-linecap="round" stroke-linejoin="round"/>
<path d="M375.964 133.74C375.627 124.964 373.109 116.41 368.638 108.852C368.139 107.881 367.435 107.031 366.575 106.359C365.676 105.747 364.417 105.542 363.509 106.146C362.133 107.067 362.31 109.112 362.693 110.724C365.005 120.569 368.812 130.001 373.983 138.692" stroke="#171717" stroke-width="2.785" stroke-linecap="round" stroke-linejoin="round"/>
<path d="M313.28 148.805C321.418 134.062 326.775 117.947 329.083 101.265C329.091 101.229 329.097 101.191 329.101 101.152C329.27 99.9498 329.418 98.7432 329.557 97.5352L329.609 97.0136C330.281 90.8018 330.521 84.5508 330.329 78.3051C330.329 78.2186 330.324 78.1311 330.32 78.0446C330.294 77.1542 330.255 76.2682 330.207 75.3822V75.3389" stroke="#171717" stroke-width="2.785" stroke-linecap="round" stroke-linejoin="round"/>
<path d="M330.469 78.0402C334.195 76.6227 337.477 74.2396 339.978 71.1352C342.48 68.0308 344.109 64.3163 344.7 60.3741C344.887 59.0195 344.856 57.43 343.802 56.5612C343.357 56.2441 342.832 56.0568 342.287 56.0209C341.742 55.985 341.197 56.101 340.714 56.3572C339.754 56.8813 338.927 57.6183 338.295 58.5116C334.411 63.4145 332.311 69.4591 330.281 75.3788" stroke="#171717" stroke-width="2.785" stroke-linecap="round" stroke-linejoin="round"/>
<path d="M330.07 75.3257C329.201 72.6466 328.323 69.9493 326.951 67.4959C325.579 65.0425 323.663 62.8059 321.162 61.5157C320.26 61.0083 319.244 60.7374 318.21 60.7291C317.693 60.7281 317.183 60.8476 316.72 61.0772C316.258 61.3073 315.855 61.6416 315.543 62.0536C314.787 63.1525 314.957 64.6506 315.439 65.8925C316.611 68.9104 319.304 71.0516 322.044 72.7665C324.785 74.4815 327.738 75.9717 329.966 78.317" stroke="#171717" stroke-width="2.785" stroke-linecap="round" stroke-linejoin="round"/>
<path d="M329.588 97.6778C329.58 97.6286 329.566 97.5824 329.558 97.5347C327.911 90.0914 323.945 83.362 318.231 78.315C317.289 77.4939 316.121 76.6689 314.901 76.9295C313.698 77.1856 312.934 78.462 312.885 79.6917C312.836 80.9213 313.345 82.093 313.901 83.1874C317.462 90.1666 323.238 95.7205 328.905 101.127" stroke="#171717" stroke-width="2.785" stroke-linecap="round" stroke-linejoin="round"/>
<path d="M329.053 101.283C329.065 101.278 329.075 101.273 329.084 101.265C336.647 97.6045 342.795 91.5546 346.577 84.0508C348.126 80.9498 349.216 77.1458 347.528 74.123C339.646 79.9714 333.566 87.9162 329.979 97.0524" stroke="#171717" stroke-width="2.785" stroke-linecap="round" stroke-linejoin="round"/>
<path d="M333.804 290.831C343.326 293.687 353.337 294.537 363.203 293.327C373.07 292.118 382.579 288.875 391.129 283.804C394.976 281.489 398.607 278.81 402.52 276.604C406.432 274.398 410.723 272.652 415.209 272.435" stroke="#171717" stroke-width="2.785" stroke-linecap="round" stroke-linejoin="round"/>
<path d="M365.537 259.523C369.48 256.377 374.928 255.823 379.946 256.345C386.46 257.018 392.74 259.267 398.594 262.207C404.404 265.134 409.842 268.743 415.266 272.347C415.3 272.373 415.34 272.396 415.374 272.422" stroke="#171717" stroke-width="2.785" stroke-linecap="round" stroke-linejoin="round"/>
<path d="M352.307 274.675C357.868 272.083 363.804 270.385 369.895 269.642C375.823 268.921 382.164 269.016 387.24 265.868" stroke="#171717" stroke-width="2.785" stroke-linecap="round" stroke-linejoin="round"/>
<path d="M367.035 257.512C381.131 251.075 393.657 241.648 403.744 229.884C403.827 229.793 403.905 229.702 403.982 229.606C404.582 228.907 405.168 228.195 405.746 227.478C405.82 227.387 405.898 227.295 405.972 227.2L406.076 227.07" stroke="#171717" stroke-width="2.785" stroke-linecap="round" stroke-linejoin="round"/>
<path d="M405.716 227.452C409.156 219.36 409.694 210.328 407.24 201.885C406.798 200.374 405.95 198.64 404.388 198.493C403.962 198.476 403.538 198.56 403.15 198.739C402.763 198.917 402.422 199.184 402.156 199.518C401.632 200.19 401.259 200.968 401.062 201.798C400.172 204.959 400.319 208.312 400.632 211.582C401.203 217.637 402.287 223.632 403.872 229.504" stroke="#171717" stroke-width="2.785" stroke-linecap="round" stroke-linejoin="round"/>
<path d="M403.644 229.875C403.676 229.881 403.709 229.884 403.742 229.884C408.561 230.405 413.431 230.909 418.238 230.331C423.085 229.749 427.94 227.96 431.345 224.464C432.361 223.418 433.286 221.893 432.665 220.573C432.47 220.214 432.196 219.904 431.864 219.665C431.532 219.427 431.15 219.266 430.747 219.197C429.94 219.066 429.116 219.076 428.311 219.227C420.468 220.322 413.199 223.826 406.076 227.288" stroke="#171717" stroke-width="2.785" stroke-linecap="round" stroke-linejoin="round"/>
<path d="M324.559 190.222C327.034 183.89 329.37 177.508 331.568 171.074C335.815 158.676 339.535 146.114 342.729 133.388" stroke="#171717" stroke-width="2.785" stroke-linecap="round" stroke-linejoin="round"/>
<path d="M333.657 262.484C337.357 256.813 341.04 251.146 344.644 245.439C348.396 239.499 352.061 233.523 355.561 227.473C359.961 219.886 364.095 212.187 367.817 204.309C373.493 192.302 378.218 179.877 381.461 166.784" stroke="#171717" stroke-width="2.785" stroke-linecap="round" stroke-linejoin="round"/>
<path d="M367.183 205C367.178 204.951 367.174 204.905 367.17 204.857C366.448 197.805 365.337 190.798 363.843 183.868" stroke="#171717" stroke-width="2.785" stroke-linecap="round" stroke-linejoin="round"/>
<path d="M366.974 205.022C367.04 204.965 367.104 204.913 367.171 204.856C367.388 204.674 367.601 204.492 367.818 204.309C373.355 199.632 378.891 194.955 384.424 190.278" stroke="#171717" stroke-width="2.785" stroke-linecap="round" stroke-linejoin="round"/>
<path d="M354.931 227.695C354.979 218.643 354.112 209.609 352.343 200.731" stroke="#171717" stroke-width="2.785" stroke-linecap="round" stroke-linejoin="round"/>
<path d="M354.532 227.96C354.876 227.799 355.218 227.639 355.561 227.473C363.969 223.482 371.917 218.585 379.264 212.871" stroke="#171717" stroke-width="2.785" stroke-linecap="round" stroke-linejoin="round"/>
<path d="M344.297 245.531C344.414 245.5 344.527 245.474 344.644 245.439C349.564 244.2 354.408 242.679 359.154 240.884" stroke="#171717" stroke-width="2.785" stroke-linecap="round" stroke-linejoin="round"/>
<path d="M343.81 245.626C344.665 237.818 344.467 229.929 343.22 222.174" stroke="#171717" stroke-width="2.785" stroke-linecap="round" stroke-linejoin="round"/>
<path d="M331.585 171.274C331.581 171.209 331.572 171.14 331.568 171.074C330.965 164.031 329.856 157.04 328.25 150.155" stroke="#171717" stroke-width="2.785" stroke-linecap="round" stroke-linejoin="round"/>
<path d="M331.585 171.275C336.856 168.119 342.325 165.307 347.958 162.854" stroke="#171717" stroke-width="2.785" stroke-linecap="round" stroke-linejoin="round"/>
<path d="M338.264 149.357C337.277 142.052 335.522 134.871 333.027 127.934" stroke="#171717" stroke-width="2.785" stroke-linecap="round" stroke-linejoin="round"/>
<path d="M338.456 149.526C342.169 145.878 345.283 142.4 348.991 138.752" stroke="#171717" stroke-width="2.785" stroke-linecap="round" stroke-linejoin="round"/>
<path d="M323.348 32.5325C317.875 32.9106 312.421 33.4681 306.984 34.2041" stroke="#171717" stroke-width="2.785" stroke-linecap="round" stroke-linejoin="round"/>
<path d="M326.347 50.5594L325.806 50.5462C316.933 50.3377 308.482 50.3593 299.627 51.1234" stroke="#171717" stroke-width="2.785" stroke-linecap="round" stroke-linejoin="round"/>
<path d="M155.757 88.9404C156.429 85.718 157.163 82.3697 159.205 79.7811C161.246 77.1925 165.002 75.6472 167.925 77.1625C171.352 78.9389 172.268 83.9849 175.89 85.3315C178.565 86.3218 181.558 84.7627 183.533 82.7001C185.509 80.6376 186.899 78.0529 189.013 76.1334C191.128 74.214 194.424 73.0851 196.831 74.6181C199.38 76.2406 199.814 80.0378 202.368 81.6489C204.674 83.1038 207.792 82.1446 209.963 80.494C212.134 78.8435 213.798 76.5769 216.043 75.0306C218.288 73.4843 221.55 72.8181 223.638 74.5709C225.254 75.9343 225.689 78.3361 227.308 79.6951C229.34 81.3972 232.502 80.8156 234.725 79.3691C236.949 77.9226 238.642 75.7863 240.788 74.2317C242.934 72.677 245.942 71.7694 248.212 73.1417C250.361 74.4401 251.095 77.3016 253.132 78.7737C255.173 80.2546 258.101 79.9463 260.289 78.696C262.478 77.4457 264.107 75.4215 265.674 73.4411" stroke="#171717" stroke-width="2.785" stroke-linecap="round" stroke-linejoin="round"/>
<path d="M155.757 131.59L270.405 124.542" stroke="#171717" stroke-width="2.785" stroke-linecap="round" stroke-linejoin="round"/>
<path d="M158.211 151.211L272.859 142.321" stroke="#171717" stroke-width="2.785" stroke-linecap="round" stroke-linejoin="round"/>
<path d="M160.66 173.893L273.774 163.471" stroke="#171717" stroke-width="2.785" stroke-linecap="round" stroke-linejoin="round"/>
<path d="M270.678 235.564C265.653 244.218 267.595 256.184 274.847 263.071C282.099 269.958 293.863 271.37 302.719 266.724C311.574 262.077 317.063 251.862 316.442 241.878C315.852 232.381 310.296 225.389 301.112 223.109C293.312 221.177 287.602 222.126 280.484 226.219C276.523 228.494 272.993 231.586 270.678 235.564Z" stroke="#171717" stroke-width="2.785" stroke-linecap="round" stroke-linejoin="round"/>
<path d="M279.282 233.232C274.873 237.74 272.876 244.567 274.452 250.673C276.029 256.779 281.24 261.872 287.446 263.013C292.592 263.96 297.967 262.284 302.332 259.391C306.188 256.838 309.461 253.264 311.127 248.947C314.071 241.304 311.057 234.668 304.795 230.061C300.014 226.547 295.957 225.8 290.234 227.381C286.139 228.516 282.304 230.145 279.282 233.232Z" stroke="#171717" stroke-width="2.785" stroke-linecap="round" stroke-linejoin="round"/>
<path d="M211.769 272.998C211.554 273.271 211.438 273.609 211.439 273.956C211.442 274.304 211.563 274.64 211.782 274.909C212.352 275.49 213.09 275.877 213.893 276.017C221.891 278.179 230.323 278.162 238.312 275.964" stroke="#171717" stroke-width="2.785" stroke-linecap="round" stroke-linejoin="round"/>
<path d="M211.774 272.994C211.864 272.939 211.951 272.878 212.035 272.812C211.938 272.858 211.85 272.919 211.774 272.994Z" stroke="#171717" stroke-width="2.785" stroke-linecap="round" stroke-linejoin="round"/>
<path d="M211.774 272.994C211.774 272.999 211.774 272.999 211.769 272.999" stroke="#171717" stroke-width="2.785" stroke-linecap="round" stroke-linejoin="round"/>
<path d="M205.338 267.87C205.295 267.987 205.255 268.104 205.225 268.222C204.985 269.071 205.011 269.973 205.3 270.806C205.588 271.64 206.124 272.366 206.836 272.886C207.549 273.406 208.403 273.695 209.285 273.715C210.167 273.735 211.034 273.486 211.77 272.998" stroke="#171717" stroke-width="2.785" stroke-linecap="round" stroke-linejoin="round"/>
<path d="M182.256 275.973C182.417 276.099 182.582 276.219 182.751 276.329C184.367 277.362 186.59 277.532 188.197 276.481C191.12 274.575 191.319 269.52 194.687 268.59C193.041 270.123 193.688 273.181 195.616 274.34C197.544 275.499 200.154 274.974 201.904 273.558C203.559 272.225 204.562 270.249 205.226 268.221" stroke="#171717" stroke-width="2.785" stroke-linecap="round" stroke-linejoin="round"/>
<path d="M182.256 275.973C183.263 274.731 183.974 273.276 184.336 271.717C184.621 270.739 184.621 269.699 184.336 268.72C184.219 268.211 183.936 267.755 183.532 267.423C183.128 267.091 182.625 266.903 182.103 266.886C181.58 266.87 181.067 267.027 180.643 267.333C180.219 267.639 179.908 268.076 179.759 268.577C179.412 269.562 179.379 270.63 179.663 271.634C180.02 273.33 180.932 274.857 182.256 275.973Z" stroke="#171717" stroke-width="2.785" stroke-linecap="round" stroke-linejoin="round"/>
<path d="M173.228 278.245C174.244 278.721 175.356 278.955 176.478 278.929C177.6 278.902 178.701 278.616 179.694 278.092C180.681 277.564 181.552 276.844 182.256 275.973" stroke="#171717" stroke-width="2.785" stroke-linecap="round" stroke-linejoin="round"/>
<path d="M173.227 278.245C174.176 276.861 174.867 275.316 175.264 273.685C175.738 272.065 175.942 269.899 174.461 269.094C173.33 268.482 171.876 269.164 171.09 270.176C169.427 272.317 169.996 275.722 172.059 277.476C172.416 277.778 172.809 278.035 173.227 278.245Z" stroke="#171717" stroke-width="2.785" stroke-linecap="round" stroke-linejoin="round"/>
<path d="M166.414 279.547C167.017 280.022 167.729 280.341 168.485 280.476C170.218 280.755 171.968 279.795 173.08 278.436C173.132 278.371 173.178 278.31 173.227 278.245" stroke="#171717" stroke-width="2.785" stroke-linecap="round" stroke-linejoin="round"/>
<path d="M166.414 279.547C165.978 281.078 165.134 282.462 163.973 283.551C161.741 285.58 158.028 286.066 155.683 284.163C154.643 283.321 153.954 282.121 153.75 280.799C153.546 279.475 153.842 278.124 154.581 277.008C155.319 275.891 156.447 275.09 157.744 274.76C159.041 274.429 160.415 274.594 161.597 275.222C163.487 276.225 164.746 278.314 166.414 279.547Z" stroke="#171717" stroke-width="2.785" stroke-linecap="round" stroke-linejoin="round"/>
<path d="M159.882 251.658C159.811 253.926 160.097 256.189 160.729 258.368C161.576 261.265 163.009 263.948 164.286 266.684C165.563 269.42 166.701 272.286 166.892 275.296C166.99 276.73 166.828 278.171 166.414 279.547" stroke="#171717" stroke-width="2.785" stroke-linecap="round" stroke-linejoin="round"/>
<path d="M159.882 251.658C161.543 252.381 163.354 252.689 165.16 252.555C166.966 252.422 168.712 251.85 170.248 250.891C171.784 249.932 173.063 248.613 173.976 247.049C174.888 245.485 175.407 243.723 175.486 241.913C175.621 239.025 174.17 235.718 171.347 235.104C168.759 234.539 166.279 236.441 164.629 238.512C161.677 242.272 160.014 246.881 159.882 251.658Z" stroke="#171717" stroke-width="2.785" stroke-linecap="round" stroke-linejoin="round"/>
<path d="M156.617 249.565C157.569 250.456 158.675 251.165 159.882 251.658" stroke="#171717" stroke-width="2.785" stroke-linecap="round" stroke-linejoin="round"/>
<path d="M85.2616 275.747C84.9184 281.15 84.5767 286.551 84.2364 291.95C84.1799 292.383 84.2109 292.823 84.3279 293.244C84.4513 293.536 84.6371 293.797 84.8717 294.009C85.1067 294.221 85.385 294.38 85.6873 294.473C86.2931 294.657 86.9229 294.751 87.5557 294.752C88.3635 294.79 89.3316 294.747 89.7485 294.057C89.9044 293.745 89.9865 293.401 89.9875 293.053C90.1187 291.394 90.25 289.736 90.3808 288.077" stroke="#171717" stroke-width="2.785" stroke-linecap="round" stroke-linejoin="round"/>
<path d="M89.9771 288.109C90.1029 288.065 90.2332 288.027 90.3635 287.992C91.0572 287.814 91.7829 287.802 92.4811 287.959C93.1798 288.115 93.8317 288.434 94.3834 288.89C94.935 289.346 95.3716 289.926 95.6563 290.583C95.941 291.239 96.0668 291.954 96.0226 292.668C95.9734 293.415 95.7925 294.297 96.3486 294.801C96.7075 295.058 97.1411 295.189 97.5817 295.174C102.82 295.539 108.06 295.905 113.302 296.273C114.306 296.342 115.461 296.355 116.13 295.604C116.411 295.233 116.563 294.78 116.563 294.314C116.563 293.849 116.411 293.396 116.13 293.025C115.547 292.29 114.735 291.771 113.824 291.55C112.933 291.281 112.005 291.156 111.12 290.873C108.38 289.995 106.301 287.646 105.14 285.015C103.978 282.383 103.624 279.469 103.407 276.603" stroke="#171717" stroke-width="2.785" stroke-linecap="round" stroke-linejoin="round"/>
<path d="M37.239 266.419C35.0678 270.587 32.8961 274.757 30.7249 278.931C30.568 279.198 30.4535 279.488 30.3861 279.791C30.3537 280.187 30.4392 280.585 30.6315 280.933C30.8242 281.282 31.1148 281.566 31.4678 281.749C32.1807 282.105 32.9575 282.315 33.7521 282.366C34.4733 280.59 35.1927 278.816 35.91 277.042C35.9321 276.993 35.9493 276.943 35.971 276.894" stroke="#171717" stroke-width="2.785" stroke-linecap="round" stroke-linejoin="round"/>
<path d="M35.7412 276.972C35.7978 276.998 35.8538 277.021 35.9103 277.041C36.9045 277.458 37.9616 277.706 39.0373 277.775C38.8859 279.603 38.9577 281.442 39.2502 283.251C39.5511 285.077 40.5069 286.73 41.9382 287.903C43.5494 289.114 45.6512 289.37 47.6096 289.835C51.8222 290.834 55.9605 292.962 60.2429 292.345C58.7679 290.196 56.0913 289.145 54.5106 287.073C52.773 284.793 52.6565 281.597 53.5032 278.862C54.3498 276.128 56.0308 273.733 57.6892 271.397" stroke="#171717" stroke-width="2.785" stroke-linecap="round" stroke-linejoin="round"/>
<path d="M51.2231 188.611C51.2231 188.611 46.6108 187.399 38.2037 185.961C32.9272 185.058 26.1581 184.068 18.0947 183.23" stroke="#171717" stroke-width="2.785" stroke-linecap="round" stroke-linejoin="round"/>
<path d="M131.142 230.922L131.107 230.888C116.967 217.113 112.837 215.28 112.837 215.28" stroke="#171717" stroke-width="2.785" stroke-linecap="round" stroke-linejoin="round"/>
<path d="M106.71 276.434C106.71 276.434 115.734 280.863 128.745 281.715C128.757 281.719 128.771 281.72 128.784 281.719" stroke="#171717" stroke-width="2.785" stroke-linecap="round" stroke-linejoin="round"/>
<path d="M18.0965 183.23C15.4346 203.389 24.5236 222.879 38.8071 237.349" stroke="#171717" stroke-width="2.785" stroke-linecap="round" stroke-linejoin="round"/>
<path d="M51.0706 171.136C43.9906 171.548 38.3512 171.248 31.4531 169.603" stroke="#171717" stroke-width="2.785" stroke-linecap="round" stroke-linejoin="round"/>
<path d="M125.171 179.999C114.379 174.206 104.869 172.977 104.869 172.977" stroke="#171717" stroke-width="2.785" stroke-linecap="round" stroke-linejoin="round"/>
<path d="M31.207 169.915C31.5689 175.741 34.1098 181.217 38.3249 185.255C38.1032 185.107 37.8824 184.956 37.6562 184.808" stroke="#171717" stroke-width="2.785" stroke-linecap="round" stroke-linejoin="round"/>
<path d="M117.733 7.23621L123.338 5.69778C123.422 5.67468 123.511 5.67812 123.593 5.70712C123.675 5.73613 123.746 5.78973 123.797 5.86053C123.847 5.93133 123.875 6.01589 123.876 6.10292C123.877 6.18994 123.852 6.27549 123.803 6.34727L120.543 11.1612C120.496 11.231 120.471 11.3131 120.47 11.3972C120.47 11.4813 120.494 11.5639 120.54 11.6342L123.736 16.4913C123.784 16.5641 123.808 16.6497 123.806 16.7367C123.803 16.8237 123.774 16.9083 123.723 16.9781C123.671 17.0484 123.599 17.101 123.517 17.129C123.434 17.1571 123.345 17.159 123.262 17.1349L117.676 15.5218C117.595 15.4987 117.509 15.4997 117.429 15.5252C117.348 15.5508 117.277 15.5995 117.225 15.6653L113.593 20.2054C113.538 20.2732 113.464 20.3229 113.381 20.348C113.297 20.3726 113.208 20.3711 113.126 20.3436C113.043 20.316 112.971 20.2639 112.919 20.1941C112.867 20.1243 112.837 20.0402 112.834 19.9532L112.642 14.1426C112.639 14.0586 112.611 13.977 112.562 13.9086C112.513 13.8403 112.445 13.7882 112.366 13.7582L106.926 11.7069C106.845 11.6764 106.775 11.6214 106.726 11.5496C106.676 11.4778 106.65 11.3928 106.651 11.3052C106.651 11.2182 106.678 11.1336 106.729 11.0624C106.779 10.9916 106.85 10.9375 106.932 10.9075L112.398 8.92902C112.478 8.9005 112.546 8.84937 112.597 8.78152C112.647 8.71367 112.675 8.63254 112.679 8.54847L112.949 2.74041C112.953 2.65338 112.984 2.5698 113.037 2.50097C113.09 2.43164 113.163 2.38051 113.246 2.35445C113.329 2.3279 113.418 2.3279 113.501 2.35347C113.584 2.37903 113.658 2.43016 113.711 2.49851L117.282 7.08674C117.333 7.15361 117.404 7.20376 117.484 7.23031C117.564 7.25686 117.651 7.25882 117.733 7.23621Z" stroke="#171717" stroke-width="2.785" stroke-miterlimit="10"/>
<path d="M9.20315 121.523L13.7757 120.052C13.8441 120.029 13.9177 120.029 13.9866 120.05C14.0554 120.071 14.1161 120.113 14.1605 120.17C14.2049 120.226 14.2309 120.295 14.235 120.367C14.239 120.439 14.221 120.51 14.1832 120.571L11.6649 124.663C11.6285 124.723 11.6104 124.791 11.6131 124.861C11.6157 124.93 11.6389 124.998 11.6797 125.054L14.4925 128.949C14.5346 129.007 14.5578 129.077 14.5591 129.149C14.5603 129.221 14.5394 129.291 14.4993 129.351C14.4592 129.411 14.4017 129.457 14.3347 129.483C14.2676 129.509 14.1942 129.514 14.1242 129.497L9.45341 128.366C9.38575 128.35 9.31481 128.354 9.24946 128.378C9.18407 128.402 9.12729 128.444 9.08613 128.5L6.25118 132.379C6.20875 132.437 6.1495 132.481 6.08151 132.504C6.01351 132.528 5.93991 132.53 5.87073 132.51C5.80155 132.49 5.74 132.45 5.69447 132.394C5.64889 132.339 5.6215 132.27 5.61595 132.199L5.24769 127.408C5.24253 127.339 5.21681 127.272 5.17384 127.217C5.13082 127.163 5.07251 127.122 5.00628 127.1L0.440666 125.602C0.372373 125.58 0.312586 125.537 0.269369 125.48C0.226151 125.422 0.201617 125.353 0.198962 125.281C0.196356 125.209 0.215777 125.138 0.254717 125.078C0.293608 125.017 0.350099 124.97 0.416572 124.943L4.85927 123.113C4.92363 123.086 4.9787 123.041 5.01754 122.983C5.05638 122.926 5.07728 122.858 5.07757 122.788L5.09134 117.983C5.09173 117.911 5.1141 117.841 5.15545 117.783C5.1968 117.724 5.25516 117.679 5.32267 117.654C5.39017 117.629 5.46368 117.626 5.5332 117.644C5.60277 117.662 5.66511 117.701 5.71182 117.756L8.82506 121.415C8.87009 121.469 8.93018 121.508 8.99758 121.528C9.06499 121.547 9.13658 121.545 9.20315 121.523Z" fill="#171717"/>
<path d="M374.426 39.6729L380.034 38.135C380.118 38.1119 380.207 38.1149 380.289 38.1439C380.371 38.1729 380.442 38.2265 380.493 38.2973C380.544 38.3681 380.572 38.4526 380.573 38.5397C380.574 38.6272 380.549 38.7122 380.499 38.7845L377.239 43.5984C377.192 43.6682 377.166 43.7503 377.166 43.8344C377.165 43.9185 377.19 44.0011 377.236 44.0714L380.432 48.9286C380.48 49.0013 380.504 49.0869 380.502 49.1739C380.499 49.2609 380.47 49.345 380.419 49.4153C380.367 49.4851 380.295 49.5377 380.213 49.5658C380.131 49.5938 380.042 49.5962 379.958 49.5722L374.372 47.959C374.292 47.9354 374.206 47.9364 374.125 47.962C374.045 47.9875 373.974 48.0362 373.921 48.1021L370.289 52.6421C370.234 52.71 370.161 52.7596 370.077 52.7842C369.994 52.8088 369.905 52.8073 369.822 52.7803C369.74 52.7528 369.668 52.7006 369.615 52.6308C369.563 52.5615 369.533 52.4774 369.53 52.3904L369.339 46.5794C369.336 46.4953 369.308 46.4137 369.259 46.3454C369.21 46.277 369.142 46.2244 369.063 46.1949L363.622 44.1442C363.54 44.1132 363.471 44.0586 363.421 43.9868C363.372 43.915 363.346 43.83 363.346 43.743C363.347 43.6554 363.374 43.5709 363.424 43.4996C363.475 43.4288 363.546 43.3747 363.627 43.3452L369.095 41.3667C369.174 41.3377 369.243 41.2866 369.293 41.2187C369.343 41.1509 369.372 41.0703 369.376 40.9862L369.645 35.1781C369.649 35.0911 369.68 35.0075 369.732 34.9382C369.786 34.8689 369.859 34.8177 369.942 34.7917C370.024 34.7651 370.114 34.7646 370.197 34.7907C370.28 34.8163 370.353 34.8669 370.407 34.9357L373.978 39.5245C374.03 39.5908 374.1 39.6405 374.18 39.6666C374.26 39.6931 374.345 39.6951 374.426 39.6729Z" stroke="url(#paint10_linear_1650_1835)" stroke-width="2.785" stroke-miterlimit="10"/>
<path d="M113.912 40.2408C111 36.869 108.087 33.4967 105.175 30.1248" stroke="#171717" stroke-width="2.785" stroke-linecap="round" stroke-linejoin="round"/>
<path d="M105.408 39.9242C107.216 36.9919 109.022 34.06 110.829 31.1282" stroke="#171717" stroke-width="2.785" stroke-linecap="round" stroke-linejoin="round"/>
<path d="M140.121 10.5972L145.981 0.870087" stroke="url(#paint11_linear_1650_1835)" stroke-width="2.785" stroke-linecap="round" stroke-linejoin="round"/>
<path d="M146.425 10.4891L138.19 0.797821" stroke="url(#paint12_linear_1650_1835)" stroke-width="2.785" stroke-linecap="round" stroke-linejoin="round"/>
<path d="M25.9337 155.808L16.2778 147.531" stroke="url(#paint13_linear_1650_1835)" stroke-width="2.785" stroke-linecap="round" stroke-linejoin="round"/>
<path d="M18.0674 157.163C19.9111 153.486 21.7545 149.81 23.5977 146.134" stroke="url(#paint14_linear_1650_1835)" stroke-width="2.785" stroke-linecap="round" stroke-linejoin="round"/>
<path d="M25.9332 240.875L17.1968 232.138" stroke="#171717" stroke-width="2.785" stroke-linecap="round" stroke-linejoin="round"/>
<path d="M18.6377 240.457L24.1355 232.627" stroke="#171717" stroke-width="2.785" stroke-linecap="round" stroke-linejoin="round"/>
<path d="M417.458 131.771L411.356 121.266" stroke="url(#paint15_linear_1650_1835)" stroke-width="2.785" stroke-linecap="round" stroke-linejoin="round"/>
<path d="M410.762 130.935L417.669 124.508" stroke="url(#paint16_linear_1650_1835)" stroke-width="2.785" stroke-linecap="round" stroke-linejoin="round"/>
<path d="M413.654 73.4195C411.805 71.2822 409.956 69.1454 408.106 67.0086" stroke="#171717" stroke-width="2.785" stroke-linecap="round" stroke-linejoin="round"/>
<path d="M408.475 73.0129L412.611 68.875" stroke="#171717" stroke-width="2.785" stroke-linecap="round" stroke-linejoin="round"/>
<path d="M357.464 74.42L353.325 67.5229" stroke="#171717" stroke-width="2.785" stroke-linecap="round" stroke-linejoin="round"/>
<path d="M352.495 73.6053L358.913 68.0657" stroke="#171717" stroke-width="2.785" stroke-linecap="round" stroke-linejoin="round"/>
<path d="M130.753 256.26L119.417 249.274C119.238 249.164 119.166 248.934 118.994 248.815C118.821 248.697 118.493 248.895 118.639 249.045" stroke="#171717" stroke-width="2.785" stroke-linecap="round" stroke-linejoin="round"/>
<path d="M46.6444 213.301C39.4808 208.374 33.1615 202.32 27.9312 195.374" stroke="#171717" stroke-width="2.785" stroke-linecap="round" stroke-linejoin="round"/>
<path d="M39.4648 176.255C43.2005 178.705 47.364 180.428 51.7378 181.335" stroke="#171717" stroke-width="2.785" stroke-linecap="round" stroke-linejoin="round"/>
<path d="M108.971 193.384C115.761 196.792 122.27 200.735 128.436 205.175" stroke="#171717" stroke-width="2.785" stroke-linecap="round" stroke-linejoin="round"/>
<path d="M336.851 252.224C356.885 223.173 373.404 191.849 386.062 158.908" stroke="url(#paint17_linear_1650_1835)" stroke-width="2.785" stroke-linecap="round" stroke-linejoin="round"/>
<path d="M371.257 191.98C371.184 186.618 370.567 181.278 369.417 176.04" stroke="url(#paint18_linear_1650_1835)" stroke-width="2.785" stroke-linecap="round" stroke-linejoin="round"/>
<path d="M371.766 192.45C375.355 189.829 379.489 188.053 383.861 187.254" stroke="url(#paint19_linear_1650_1835)" stroke-width="2.785" stroke-linecap="round" stroke-linejoin="round"/>
<path d="M352.93 226.767C352.649 221.053 352.017 214.258 351.737 208.544" stroke="url(#paint20_linear_1650_1835)" stroke-width="2.785" stroke-linecap="round" stroke-linejoin="round"/>
<path d="M352.929 226.767L370.394 219.084" stroke="url(#paint21_linear_1650_1835)" stroke-width="2.785" stroke-linecap="round" stroke-linejoin="round"/>
<path d="M50.3712 56.5745C49.1582 55.9933 47.6277 56.5838 46.7869 57.634C45.9462 58.6842 45.6698 60.0766 45.5863 61.4199C45.2529 66.779 47.5455 71.8992 49.5407 76.8833C51.5359 81.8673 53.2976 87.3415 51.8889 92.5212C51.0364 95.6571 49.0682 98.4011 46.7132 100.641C44.3581 102.88 41.6146 104.664 38.874 106.41" stroke="url(#paint22_linear_1650_1835)" stroke-width="2.785" stroke-linecap="round" stroke-linejoin="round"/>
<g opacity="0.1">
<path d="M351.063 108.472C347.183 110.529 343.816 113.497 340.116 115.82C338.17 117.102 336.337 118.548 334.636 120.14C332.919 121.703 331.14 123.126 329.64 124.906C323.722 132.031 318.69 139.846 314.653 148.181C313.461 150.603 314 153.59 316.447 155.024C318.648 156.311 322.096 155.663 323.289 153.23C327.178 145.454 331.787 138.059 337.056 131.143C339.595 127.748 341.998 124.122 344.327 120.579C345.573 118.684 346.633 116.968 348.253 115.327C349.768 113.793 351.269 112.191 352.652 110.535C352.868 110.307 352.996 110.009 353.012 109.695C353.028 109.381 352.931 109.071 352.739 108.822C352.547 108.573 352.273 108.401 351.965 108.336C351.656 108.272 351.336 108.319 351.06 108.47L351.063 108.472Z" fill="#171717"/>
</g>
<g opacity="0.1">
<path d="M17.3536 184.382C17.0094 188.766 17.1404 193.175 17.744 197.531C18.334 202.058 18.7499 206.771 20.2947 211.088C23.4453 219.888 28.8207 227.853 35.0304 234.773C36.9017 236.858 40.4594 236.678 42.3641 234.773C44.4424 232.695 44.2325 229.537 42.3641 227.44C36.8703 221.276 32.841 214.263 29.1654 206.913C27.3723 203.33 25.3206 200.08 23.9749 196.288C22.5914 192.245 21.4389 188.127 20.5229 183.954C20.0863 182.076 17.507 182.665 17.3536 184.382Z" fill="#171717"/>
</g>
<g opacity="0.1">
<path d="M113.898 279.047C117.648 279.573 121.018 281.284 124.725 281.724C129.975 282.347 130.253 273.227 124.725 273.334C122.918 273.369 121.423 273.949 119.694 274.31C117.968 274.656 116.216 274.858 114.457 274.915C112.221 275.006 111.44 278.701 113.898 279.045V279.047Z" fill="#171717"/>
</g>
<g opacity="0.1">
<path d="M31.1431 170.748C31.1303 171.403 30.88 171.923 30.9616 172.62C31.1583 173.676 31.5802 174.678 32.1992 175.556C33.302 177.379 34.6801 178.93 35.9648 180.613C37.2201 182.258 38.1714 183.899 39.7998 185.25C41.6244 186.712 43.6142 187.956 45.7279 188.955C50.9567 191.527 54.3232 183.787 48.8534 181.541C47.3366 180.869 45.8705 180.087 44.4677 179.2C43.0065 178.333 41.2345 177.693 39.8751 176.702C38.493 175.695 37.2781 174.088 36.2367 172.76C35.8449 172.176 35.4181 171.616 34.9584 171.082C34.276 170.401 33.5213 170.319 32.7715 169.813C32.6068 169.72 32.4204 169.671 32.2306 169.672C32.0413 169.672 31.855 169.722 31.6908 169.816C31.5261 169.911 31.3889 170.046 31.293 170.209C31.1967 170.372 31.1445 170.558 31.1416 170.747L31.1431 170.748Z" fill="#171717"/>
</g>
<g opacity="0.1">
<path d="M113.048 215.374C115.31 217.2 117.659 219.089 119.766 221.102C121.956 223.193 123.622 225.595 125.584 227.873C128.67 231.457 133.905 226.89 131.882 223.013C128.76 217.031 122.431 212.132 116.168 210.016C113.245 209.029 110.542 213.352 113.048 215.375V215.374Z" fill="#171717"/>
</g>
</g>
<defs>
<linearGradient id="paint0_linear_1650_1835" x1="336.673" y1="108.665" x2="336.673" y2="220.234" gradientUnits="userSpaceOnUse">
<stop stop-color="#B1E938"/>
<stop offset="1" stop-color="#ABF600"/>
</linearGradient>
<linearGradient id="paint1_linear_1650_1835" x1="293.09" y1="226.594" x2="293.09" y2="263.28" gradientUnits="userSpaceOnUse">
<stop stop-color="#B1E938"/>
<stop offset="1" stop-color="#ABF600"/>
</linearGradient>
<linearGradient id="paint2_linear_1650_1835" x1="100.386" y1="275.639" x2="100.386" y2="296.301" gradientUnits="userSpaceOnUse">
<stop stop-color="#B1E938"/>
<stop offset="1" stop-color="#ABF600"/>
</linearGradient>
<linearGradient id="paint3_linear_1650_1835" x1="45.3102" y1="266.324" x2="45.3102" y2="292.454" gradientUnits="userSpaceOnUse">
<stop stop-color="#B1E938"/>
<stop offset="1" stop-color="#ABF600"/>
</linearGradient>
<linearGradient id="paint4_linear_1650_1835" x1="404.572" y1="198.495" x2="404.572" y2="229.607" gradientUnits="userSpaceOnUse">
<stop stop-color="#B1E938"/>
<stop offset="1" stop-color="#ABF600"/>
</linearGradient>
<linearGradient id="paint5_linear_1650_1835" x1="418.303" y1="219.105" x2="418.303" y2="230.588" gradientUnits="userSpaceOnUse">
<stop stop-color="#B1E938"/>
<stop offset="1" stop-color="#ABF600"/>
</linearGradient>
<linearGradient id="paint6_linear_1650_1835" x1="292.184" y1="222.146" x2="292.184" y2="269.432" gradientUnits="userSpaceOnUse">
<stop stop-color="#B1E938"/>
<stop offset="1" stop-color="#ABF600"/>
</linearGradient>
<linearGradient id="paint7_linear_1650_1835" x1="119.115" y1="215.28" x2="119.115" y2="281.715" gradientUnits="userSpaceOnUse">
<stop stop-color="#B1E938"/>
<stop offset="1" stop-color="#ABF600"/>
</linearGradient>
<linearGradient id="paint8_linear_1650_1835" x1="70.9679" y1="107.666" x2="70.9679" y2="122.605" gradientUnits="userSpaceOnUse">
<stop stop-color="#B1E938"/>
<stop offset="1" stop-color="#ABF600"/>
</linearGradient>
<linearGradient id="paint9_linear_1650_1835" x1="34.4897" y1="183.23" x2="34.4897" y2="237.371" gradientUnits="userSpaceOnUse">
<stop stop-color="#B1E938"/>
<stop offset="1" stop-color="#ABF600"/>
</linearGradient>
<linearGradient id="paint10_linear_1650_1835" x1="371.96" y1="34.7715" x2="371.96" y2="52.8019" gradientUnits="userSpaceOnUse">
<stop stop-color="#B1E938"/>
<stop offset="1" stop-color="#ABF600"/>
</linearGradient>
<linearGradient id="paint11_linear_1650_1835" x1="143.05" y1="0.870087" x2="143.05" y2="10.5972" gradientUnits="userSpaceOnUse">
<stop stop-color="#B1E938"/>
<stop offset="1" stop-color="#ABF600"/>
</linearGradient>
<linearGradient id="paint12_linear_1650_1835" x1="142.308" y1="0.797821" x2="142.308" y2="10.4891" gradientUnits="userSpaceOnUse">
<stop stop-color="#B1E938"/>
<stop offset="1" stop-color="#ABF600"/>
</linearGradient>
<linearGradient id="paint13_linear_1650_1835" x1="21.1058" y1="147.531" x2="21.1058" y2="155.808" gradientUnits="userSpaceOnUse">
<stop stop-color="#B1E938"/>
<stop offset="1" stop-color="#ABF600"/>
</linearGradient>
<linearGradient id="paint14_linear_1650_1835" x1="20.8325" y1="146.134" x2="20.8325" y2="157.163" gradientUnits="userSpaceOnUse">
<stop stop-color="#B1E938"/>
<stop offset="1" stop-color="#ABF600"/>
</linearGradient>
<linearGradient id="paint15_linear_1650_1835" x1="414.407" y1="121.266" x2="414.407" y2="131.771" gradientUnits="userSpaceOnUse">
<stop stop-color="#B1E938"/>
<stop offset="1" stop-color="#ABF600"/>
</linearGradient>
<linearGradient id="paint16_linear_1650_1835" x1="414.216" y1="124.508" x2="414.216" y2="130.935" gradientUnits="userSpaceOnUse">
<stop stop-color="#B1E938"/>
<stop offset="1" stop-color="#ABF600"/>
</linearGradient>
<linearGradient id="paint17_linear_1650_1835" x1="361.457" y1="158.908" x2="361.457" y2="252.224" gradientUnits="userSpaceOnUse">
<stop stop-color="#B1E938"/>
<stop offset="1" stop-color="#ABF600"/>
</linearGradient>
<linearGradient id="paint18_linear_1650_1835" x1="370.337" y1="176.04" x2="370.337" y2="191.98" gradientUnits="userSpaceOnUse">
<stop stop-color="#B1E938"/>
<stop offset="1" stop-color="#ABF600"/>
</linearGradient>
<linearGradient id="paint19_linear_1650_1835" x1="377.813" y1="187.254" x2="377.813" y2="192.45" gradientUnits="userSpaceOnUse">
<stop stop-color="#B1E938"/>
<stop offset="1" stop-color="#ABF600"/>
</linearGradient>
<linearGradient id="paint20_linear_1650_1835" x1="352.333" y1="208.544" x2="352.333" y2="226.767" gradientUnits="userSpaceOnUse">
<stop stop-color="#B1E938"/>
<stop offset="1" stop-color="#ABF600"/>
</linearGradient>
<linearGradient id="paint21_linear_1650_1835" x1="361.661" y1="219.084" x2="361.661" y2="226.767" gradientUnits="userSpaceOnUse">
<stop stop-color="#B1E938"/>
<stop offset="1" stop-color="#ABF600"/>
</linearGradient>
<linearGradient id="paint22_linear_1650_1835" x1="45.6354" y1="56.3464" x2="45.6354" y2="106.41" gradientUnits="userSpaceOnUse">
<stop stop-color="#B1E938"/>
<stop offset="1" stop-color="#ABF600"/>
</linearGradient>
</defs>
</svg>
