<svg width="480" height="432" viewBox="0 0 480 432" fill="none" xmlns="http://www.w3.org/2000/svg">
<mask id="mask0_314_1251" style="mask-type:luminance" maskUnits="userSpaceOnUse" x="50" y="17" width="380" height="398">
<path d="M430 17.3982H50.5V414.912H430V17.3982Z" fill="white"/>
</mask>
<g mask="url(#mask0_314_1251)">
<path fill-rule="evenodd" clip-rule="evenodd" d="M225.303 213.102C225.292 213.107 225.292 213.102 225.303 213.097C225.931 212.887 266.877 192.613 288.667 166.379L287.467 166.035C285.768 166.644 284.02 167.263 282.194 167.308C280.368 167.353 278.404 166.709 277.46 165.301C277.18 164.883 276.998 164.415 276.817 163.949C276.591 163.366 276.365 162.785 275.945 162.302C274.445 160.579 271.509 161.014 269.145 161.682C269.091 161.697 269.036 161.713 268.983 161.729C268.944 161.74 268.905 161.752 268.868 161.762L253.323 166.359C250.92 167.071 248.516 167.782 246.113 168.49C243.499 169.264 240.636 170.237 239.054 172.154C238.758 172.514 238.512 172.904 238.321 173.317C237.705 174.663 237.764 176.126 237.824 177.596C237.866 178.656 237.909 179.721 237.7 180.749C236.951 184.443 232.944 187.088 228.815 187.612C224.685 188.136 220.512 186.908 216.783 185.231C206.39 180.558 198.537 172.522 191.833 163.872C190.442 162.075 189.096 160.253 187.792 158.427C177.382 143.863 168.453 128.484 161.114 112.477L160.371 111.773C156.961 112.547 153.6 113.465 150.287 114.528C145.268 116.128 140.383 118.052 135.672 120.285C134.889 120.654 134.102 121.049 133.352 121.493C131.706 122.467 130.268 123.674 129.652 125.322C128.898 127.328 129.547 129.522 130.241 131.545C130.894 133.459 131.589 135.359 132.327 137.246C139.143 154.785 149.393 171.3 163.318 184.997C163.673 185.346 164.033 185.696 164.394 186.04C179.606 200.639 199.147 211.79 220.714 216.681C222.129 215.374 223.664 214.177 225.303 213.102ZM157.401 120.542C157.249 120.152 156.773 119.947 156.34 120.084C155.906 120.221 155.678 120.648 155.83 121.038C166.199 147.593 184.719 170.964 209.245 188.445C209.606 188.702 210.129 188.647 210.415 188.323C210.7 187.999 210.64 187.528 210.28 187.271C186 169.966 167.666 146.83 157.401 120.542Z" fill="url(#paint0_linear_314_1251)"/>
<path d="M239.278 279.351C238.595 272.378 237.911 265.406 237.225 258.433C237.197 258.148 237.17 257.864 237.153 257.575C237.042 256.062 237.108 254.51 238.053 253.292C239.107 251.939 241 251.355 242.792 250.976C248.614 249.748 254.658 249.813 260.618 249.402C265.268 249.077 270.025 248.424 274.26 246.731C275.45 246.26 276.593 245.699 277.679 245.055C282.618 242.1 286.17 236.739 285.11 231.493C296.348 225.16 315.201 220.787 334.642 213.075C336.185 212.462 337.683 211.838 339.137 211.194L339.592 212.017C340.847 223.333 340.569 234.902 337.206 245.863C333.842 256.824 327.222 267.171 317.338 274.258C307.065 281.633 294.012 285.074 281.147 287.51C277.268 288.244 273.355 288.908 269.426 289.444C259.792 290.761 250.057 291.34 240.376 290.502C240.011 286.783 239.645 283.066 239.278 279.351Z" fill="url(#paint1_linear_314_1251)"/>
<path d="M255.228 146.744C254.795 145.177 254.358 143.611 253.918 142.047L253.852 141.902C254.153 141.791 254.465 141.708 254.784 141.653C256.234 141.403 257.981 142.002 258.392 143.28C258.758 144.433 257.886 145.671 256.721 146.26C256.255 146.49 255.754 146.658 255.234 146.759L255.228 146.744Z" fill="#171717"/>
<path d="M269.208 307.35C269.208 307.35 267.058 329.546 244.145 329.546C221.232 329.546 209.27 318.978 206.14 308.408C204.769 303.781 202.344 288.802 202.655 271.727L204.309 271.757C204.309 271.871 204.32 271.985 204.342 272.097C204.653 273.626 206.695 274.233 208.399 274.453C210.146 274.678 211.907 274.806 213.671 274.837C212.378 274.952 211.079 275.062 209.786 275.176C207.586 275.366 204.769 276.11 204.691 278.091C204.608 280.102 207.428 281.014 209.647 281.236C219.292 282.193 229.05 281.577 238.45 279.416L239.277 279.351C239.644 283.064 240.01 286.782 240.377 290.503C250.056 291.341 259.79 290.762 269.427 289.444L269.599 290.254C269.236 300.11 269.208 307.35 269.208 307.35Z" fill="#171717"/>
<path d="M163.318 184.997C163.673 185.346 164.033 185.696 164.394 186.04L163.8 186.539C159.72 187.288 155.514 187.285 151.435 186.53C147.357 185.775 143.49 184.284 140.071 182.147C136.651 180.01 133.749 177.272 131.539 174.097C129.33 170.923 127.859 167.378 127.216 163.678C125.666 154.744 129.016 145.781 132.327 137.245C139.143 154.785 149.393 171.3 163.318 184.997Z" fill="#171717"/>
<path d="M237.674 414.109C255.09 414.109 269.208 401.412 269.208 385.749C269.208 370.086 255.09 357.389 237.674 357.389C220.259 357.389 206.14 370.086 206.14 385.749C206.14 401.412 220.259 414.109 237.674 414.109Z" stroke="#171717" stroke-width="3.33" stroke-linecap="round" stroke-linejoin="round"/>
<path d="M225.303 213.098C225.931 212.888 266.877 192.614 288.666 166.38C296.941 156.422 302.457 145.605 301.952 134.705C301.602 126.949 298.206 119.147 290.597 111.581C269.302 90.4032 227.218 67.6231 201.639 101.773C187.143 121.129 205.269 147.188 192.249 163.615" stroke="#171717" stroke-width="3.33" stroke-linecap="round" stroke-linejoin="round"/>
<path d="M225.337 213.077C225.326 213.082 225.315 213.092 225.303 213.097C225.292 213.102 225.292 213.107 225.303 213.102" stroke="#171717" stroke-width="3.33" stroke-linecap="round" stroke-linejoin="round"/>
<path d="M269.597 290.252C269.236 300.109 269.208 307.351 269.208 307.351C269.208 307.351 267.058 329.547 244.145 329.547C221.232 329.547 209.27 318.98 206.14 308.41C204.769 303.783 202.344 288.804 202.655 271.729C203.01 251.894 207.055 229.229 220.714 216.68C222.129 215.374 223.664 214.176 225.303 213.102V213.097" stroke="#171717" stroke-width="3.33" stroke-linecap="round" stroke-linejoin="round"/>
<path d="M153.034 100.325C170.055 73.383 201.473 40.4348 252.659 42.6409C338.459 46.3394 390.459 111.375 382.824 153.651C377.485 183.18 364.881 199.815 339.136 211.19V211.195C337.682 211.839 336.186 212.463 334.64 213.077C315.199 220.788 296.347 225.161 285.108 231.495C281.618 233.461 278.865 235.617 277.05 238.123C275.885 239.735 274.891 242.465 274.05 245.939" stroke="#171717" stroke-width="3.33" stroke-linecap="round" stroke-linejoin="round"/>
<path d="M250.977 143.604C251.834 142.91 252.804 142.336 253.852 141.902C254.153 141.791 254.465 141.708 254.784 141.653C256.234 141.403 257.981 142.002 258.392 143.28C258.758 144.433 257.886 145.671 256.721 146.26C256.255 146.49 255.754 146.658 255.234 146.759C254.448 146.905 253.649 146.993 252.847 147.023" stroke="#171717" stroke-width="3.33" stroke-linecap="round" stroke-linejoin="round"/>
<path d="M255.228 146.743C254.795 145.176 254.358 143.611 253.918 142.047" stroke="#171717" stroke-width="3.33" stroke-linecap="round" stroke-linejoin="round"/>
<path d="M247.053 128.67C246.881 127.417 246.714 126.165 246.542 124.912" stroke="#171717" stroke-width="3.33" stroke-linecap="round" stroke-linejoin="round"/>
<path d="M232.963 129.843C232.702 128.276 232.439 126.71 232.175 125.146" stroke="#171717" stroke-width="3.33" stroke-linecap="round" stroke-linejoin="round"/>
<path d="M216.096 139.621C213.105 134.64 210.091 129.603 208.404 124.148C206.717 118.692 206.429 112.708 208.854 107.482C211.302 102.196 216.324 98.1336 221.952 95.4531C228.9 92.1246 236.822 90.8052 244.634 91.6758C252.457 92.5851 259.705 95.8524 265.196 100.945C269.375 104.883 272.261 109.764 275.108 114.576C277.955 119.387 280.874 124.254 285.098 128.156C289.321 132.058 295.104 134.939 301.159 134.729" stroke="#171717" stroke-width="3.33" stroke-linecap="round" stroke-linejoin="round"/>
<path d="M215.274 139.93C214.969 153.522 224.792 166.843 238.833 171.879" stroke="#171717" stroke-width="3.33" stroke-linecap="round" stroke-linejoin="round"/>
<path d="M222.129 116.013C219.554 126.988 224.471 139.102 234.305 146.006C238.268 148.786 242.896 150.748 246.737 153.662C250.577 156.577 253.68 160.902 252.964 165.372" stroke="#171717" stroke-width="3.33" stroke-linecap="round" stroke-linejoin="round"/>
<path d="M219.676 113.641C220.481 114.44 221.332 115.199 222.226 115.917C230.501 122.591 242.25 125.72 253.217 123.998C253.714 125.323 254.57 126.515 255.709 127.467C256.848 128.418 258.232 129.1 259.738 129.449C259.849 129.474 259.965 129.494 260.082 129.513C261.549 129.771 263.064 129.707 264.498 129.328C265.933 128.948 267.244 128.264 268.323 127.332" stroke="#171717" stroke-width="3.33" stroke-linecap="round" stroke-linejoin="round"/>
<path d="M240.072 131.171C240.602 131.765 240.939 132.48 241.047 133.236C241.155 133.992 241.029 134.76 240.683 135.456C240.338 136.152 239.785 136.748 239.087 137.18C238.389 137.612 237.572 137.863 236.725 137.904C238.179 138.338 239.633 138.768 241.087 139.202" stroke="#171717" stroke-width="3.33" stroke-linecap="round" stroke-linejoin="round"/>
<path d="M259.934 130.118C262.571 140.605 265.599 151.005 269.019 161.318" stroke="#171717" stroke-width="3.33" stroke-linecap="round" stroke-linejoin="round"/>
<path d="M161.115 112.478C168.453 128.485 177.382 143.864 187.792 158.428C189.096 160.255 190.442 162.076 191.833 163.873C198.537 172.523 206.39 180.559 216.783 185.233C220.512 186.91 224.686 188.138 228.815 187.613C232.945 187.089 236.951 184.444 237.7 180.75C238.2 178.295 237.262 175.634 238.322 173.319C238.512 172.906 238.758 172.516 239.054 172.156C240.636 170.239 243.5 169.266 246.114 168.492C248.517 167.783 250.92 167.073 253.323 166.361L268.868 161.764C268.957 161.739 269.051 161.709 269.145 161.684C271.509 161.015 274.446 160.581 275.946 162.303C276.7 163.171 276.828 164.359 277.461 165.303C278.404 166.71 280.369 167.354 282.195 167.309C284.021 167.264 285.769 166.645 287.467 166.036" stroke="#171717" stroke-width="3.33" stroke-linecap="round" stroke-linejoin="round"/>
<path d="M285.087 231.38C285.092 231.42 285.103 231.455 285.109 231.495C286.169 236.741 282.617 242.102 277.678 245.056C276.592 245.701 275.449 246.262 274.259 246.734C270.024 248.426 265.268 249.08 260.617 249.404C254.657 249.814 248.613 249.748 242.791 250.978C240.999 251.358 239.106 251.941 238.052 253.294C237.108 254.512 237.042 256.065 237.152 257.577C237.169 257.866 237.196 258.151 237.224 258.435C237.907 265.408 238.591 272.381 239.277 279.353C239.644 283.067 240.01 286.785 240.377 290.505C250.056 291.344 259.791 290.765 269.427 289.447C273.356 288.913 277.269 288.249 281.148 287.514C294.013 285.078 307.066 281.639 317.339 274.262C327.223 267.174 333.844 256.828 337.207 245.867C340.57 234.906 340.848 223.338 339.593 212.021" stroke="#171717" stroke-width="3.33" stroke-linecap="round" stroke-linejoin="round"/>
<path d="M213.671 274.838C212.378 274.953 211.079 275.063 209.786 275.178C207.586 275.367 204.769 276.111 204.691 278.092C204.608 280.104 207.428 281.015 209.648 281.237C219.292 282.194 229.05 281.577 238.45 279.416" stroke="#171717" stroke-width="3.33" stroke-linecap="round" stroke-linejoin="round"/>
<path d="M213.672 274.838C217.059 274.901 220.443 274.607 223.756 273.965C220.392 274.255 217.031 274.546 213.672 274.838Z" stroke="#171717" stroke-width="3.33" stroke-linecap="round" stroke-linejoin="round"/>
<path d="M212.539 268.62C211.573 268.675 210.613 268.725 209.653 268.775C208.426 268.84 207.161 268.914 206.073 269.428C205.577 269.642 205.152 269.971 204.842 270.38C204.533 270.79 204.349 271.265 204.309 271.76C204.309 271.873 204.32 271.987 204.342 272.099C204.653 273.628 206.695 274.235 208.399 274.455C210.146 274.68 211.907 274.808 213.671 274.839" stroke="#171717" stroke-width="3.33" stroke-linecap="round" stroke-linejoin="round"/>
<path d="M212.539 268.62C216.823 268.923 221.133 268.696 225.348 267.945C221.075 268.175 216.805 268.4 212.539 268.62Z" stroke="#171717" stroke-width="3.33" stroke-linecap="round" stroke-linejoin="round"/>
<path d="M236.37 257.619C233.146 255.043 229.919 252.468 226.691 249.892C225.323 253.301 225.418 257.046 226.957 260.394C221.496 260.994 216.034 261.591 210.569 262.186C209.34 262.247 208.136 262.526 207.028 263.009C205.962 263.553 205.119 264.611 205.285 265.705C205.546 267.407 207.835 268.11 209.725 268.35C210.663 268.47 211.601 268.56 212.539 268.62" stroke="#171717" stroke-width="3.33" stroke-linecap="round" stroke-linejoin="round"/>
<path d="M160.37 111.775C156.963 112.549 153.602 113.468 150.286 114.53C145.268 116.13 140.384 118.054 135.673 120.286C134.891 120.655 134.103 121.05 133.354 121.494C131.704 122.467 130.268 123.675 129.654 125.322C128.899 127.329 129.548 129.525 130.242 131.546C130.897 133.458 131.593 135.358 132.329 137.246C139.144 154.784 149.395 171.301 163.319 184.998C163.674 185.347 164.035 185.696 164.396 186.041C179.608 200.64 199.149 211.791 220.715 216.682L220.965 216.742" stroke="#171717" stroke-width="3.33" stroke-linecap="round" stroke-linejoin="round"/>
<path d="M129.975 102.936C128.86 100.576 127.591 98.277 126.175 96.0525C125.192 94.5155 123.533 92.7883 121.652 93.3225C120.419 93.6769 119.748 94.9445 119.787 96.1105C119.826 97.2765 120.425 98.3562 121.008 99.3994C125.048 106.642 129.092 113.884 133.14 121.126" stroke="#171717" stroke-width="3.33" stroke-linecap="round" stroke-linejoin="round"/>
<path d="M129.974 102.936C130.903 105.913 132.015 108.843 133.304 111.71C132.428 108.718 131.315 105.785 129.974 102.936Z" stroke="#171717" stroke-width="3.33" stroke-linecap="round" stroke-linejoin="round"/>
<path d="M138.044 102.876C136.847 98.912 135.297 95.0412 133.41 91.3008C132.588 89.6738 130.979 87.7771 129.103 88.3711C127.353 88.9251 127.249 91.0912 127.527 92.7433C128.104 96.1838 128.923 99.5879 129.977 102.936" stroke="#171717" stroke-width="3.33" stroke-linecap="round" stroke-linejoin="round"/>
<path d="M138.044 102.876C138.499 104.792 138.989 106.701 139.514 108.601C139.109 106.679 138.619 104.77 138.044 102.876Z" stroke="#171717" stroke-width="3.33" stroke-linecap="round" stroke-linejoin="round"/>
<path d="M150.237 114.411C152.701 111.275 153.999 107.518 153.944 103.679C153.987 102.85 153.786 102.025 153.361 101.289C153.086 100.873 152.666 100.551 152.168 100.37C151.813 100.235 151.418 100.21 151.047 100.3C150.231 100.51 149.737 101.229 149.321 101.892C148.072 103.894 146.822 105.892 145.571 107.887C144.656 101.218 142.838 94.6747 140.158 88.4022C139.558 87.0046 138.327 85.3444 136.728 85.7518C135.158 86.1565 135.058 88.1076 135.302 89.565C136.057 94.0276 136.971 98.4646 138.044 102.876" stroke="#171717" stroke-width="3.33" stroke-linecap="round" stroke-linejoin="round"/>
<path d="M132.345 137.195C132.339 137.21 132.333 137.23 132.328 137.245C129.015 145.78 125.668 154.744 127.217 163.678C127.859 167.379 129.33 170.923 131.54 174.097C133.749 177.272 136.651 180.01 140.071 182.147C143.491 184.284 147.357 185.775 151.435 186.53C155.514 187.285 159.721 187.288 163.801 186.539" stroke="#171717" stroke-width="3.33" stroke-linecap="round" stroke-linejoin="round"/>
<path d="M93.0035 70.693C99.2265 77.6473 105.698 85.1164 106.831 93.9862C107.409 98.5077 106.368 103.418 102.892 106.726C99.416 110.033 93.1795 111.13 89.1575 108.367C85.1355 105.605 85.288 98.9192 89.889 97.0247C94.5605 95.101 100.153 99.1207 100.943 103.686C101.732 108.252 99.1935 112.73 96.305 116.552C93.4165 120.375 90.0215 124.062 88.729 128.533C86.829 135.112 90.171 142.451 96.188 146.565" stroke="#171717" stroke-width="3.33" stroke-linecap="round" stroke-linejoin="round"/>
<path d="M372.029 234.072C360.562 239.053 352.919 250.422 353.341 261.868C353.484 265.729 354.563 269.727 357.412 272.616C360.26 275.505 365.174 276.961 369.039 275.276C372.904 273.591 374.496 268.342 371.467 265.603C368.917 263.298 364.338 263.695 361.623 265.844C358.907 267.994 357.802 271.394 357.676 274.645C357.482 279.641 359.276 284.511 361.152 289.214C363.028 293.918 365.04 298.683 365.312 303.675C365.584 308.668 363.807 314.04 359.378 317.061C354.949 320.081 347.642 319.724 344.628 315.525" stroke="#171717" stroke-width="3.33" stroke-linecap="round" stroke-linejoin="round"/>
<path d="M410.442 220.154L404.566 211.169" stroke="#171717" stroke-width="3.33" stroke-linecap="round" stroke-linejoin="round"/>
<path d="M401.67 219.147L409.96 213.407" stroke="#171717" stroke-width="3.33" stroke-linecap="round" stroke-linejoin="round"/>
<path d="M412.596 155.663C412.605 154.446 412.948 153.249 413.592 152.179C414.237 151.109 415.165 150.198 416.294 149.527C417.423 148.856 418.719 148.445 420.066 148.331C421.414 148.216 422.771 148.402 424.02 148.872C425.268 149.342 426.37 150.081 427.225 151.024C428.081 151.967 428.665 153.085 428.927 154.279C429.188 155.474 429.118 156.708 428.724 157.872C428.329 159.036 427.622 160.095 426.664 160.956C424.168 163.198 420.414 163.765 417.296 165.252C414.178 166.74 411.529 170.323 413.505 172.951L413.956 171.522" stroke="#171717" stroke-width="3.33" stroke-linecap="round" stroke-linejoin="round"/>
<path d="M410.901 182.606L411.416 180.478" stroke="#171717" stroke-width="3.33" stroke-linecap="round" stroke-linejoin="round"/>
<path d="M373.087 24.6567C373.299 23.4405 373.845 22.291 374.674 21.3118C375.503 20.3325 376.591 19.5544 377.838 19.0475C379.086 18.5407 380.454 18.3211 381.819 18.4085C383.184 18.496 384.504 18.8877 385.659 19.5485C386.814 20.2092 387.767 21.1181 388.434 22.1931C389.101 23.2682 389.46 24.4757 389.478 25.7066C389.496 26.9375 389.173 28.1531 388.539 29.2438C387.904 30.3344 386.978 31.2659 385.843 31.954C383.802 33.1911 381.263 33.5472 379.048 34.5123C376.832 35.4773 374.79 37.5332 375.386 39.6808L376.3 38.8314" stroke="#171717" stroke-width="3.33" stroke-linecap="round" stroke-linejoin="round"/>
<path d="M374.503 49.9706L375.05 46.2675" stroke="#171717" stroke-width="3.33" stroke-linecap="round" stroke-linejoin="round"/>
<path d="M303.987 26.2569L299.901 20.9579" stroke="#171717" stroke-width="3.33" stroke-linecap="round" stroke-linejoin="round"/>
<path d="M297.031 25.6724L303.494 20.9148" stroke="#171717" stroke-width="3.33" stroke-linecap="round" stroke-linejoin="round"/>
<path d="M180.092 34.1264L175.392 30.9553" stroke="#171717" stroke-width="3.33" stroke-linecap="round" stroke-linejoin="round"/>
<path d="M174.085 35.6335L178.825 29.3147" stroke="#171717" stroke-width="3.33" stroke-linecap="round" stroke-linejoin="round"/>
<path d="M121.5 116.409C118.426 112.017 116.409 107.094 115.579 101.959" stroke="#171717" stroke-width="3.33" stroke-linecap="round" stroke-linejoin="round"/>
<path d="M125.925 34.1737C125.251 32.7596 125.15 31.1779 125.639 29.7035C126.128 28.2292 127.175 26.9556 128.6 26.1043C129.641 25.4755 130.909 25.2246 132.147 25.4023C134.508 25.8381 135.843 28.2133 135.916 30.3794C135.989 32.5455 135.166 34.6481 134.858 36.7972C134.55 38.9462 134.911 41.409 136.79 42.7657L136.412 42.5831" stroke="#171717" stroke-width="3.33" stroke-linecap="round" stroke-linejoin="round"/>
<path d="M141.701 49.1009L140.134 46.9874" stroke="#171717" stroke-width="3.33" stroke-linecap="round" stroke-linejoin="round"/>
<path d="M56.0875 150.188C54.565 149.394 53.3245 148.228 52.5115 146.824C51.6985 145.421 51.3465 143.838 51.4965 142.261C51.8965 139.127 54.7595 136.325 58.2335 135.892C61.7075 135.458 65.412 137.6 66.22 140.669C67.0015 143.64 65.255 146.838 66.216 149.766C67.15 152.611 70.302 154.308 73.1975 155.73" stroke="#171717" stroke-width="3.33" stroke-linecap="round" stroke-linejoin="round"/>
<path d="M80.195 160.081L78.4325 158.848" stroke="#171717" stroke-width="3.33" stroke-linecap="round" stroke-linejoin="round"/>
<path d="M187.404 215.609C178.751 212.154 171.662 206.156 167.301 198.6" stroke="#171717" stroke-width="3.33" stroke-linecap="round" stroke-linejoin="round"/>
<path d="M173.129 214.674L168.95 211.152" stroke="#171717" stroke-width="3.33" stroke-linecap="round" stroke-linejoin="round"/>
<path d="M127.662 235.798C124.962 234.066 124.577 230.169 126.695 227.876C128.814 225.583 132.888 225.126 135.724 226.67C138.56 228.214 140.007 231.46 139.438 234.396C138.942 236.952 137.132 239.183 136.629 241.738C136.357 243.224 136.532 244.748 137.136 246.152C137.739 247.557 138.749 248.791 140.06 249.727" stroke="#171717" stroke-width="3.33" stroke-linecap="round" stroke-linejoin="round"/>
<path d="M147.055 258.322L145.488 256.444" stroke="#171717" stroke-width="3.33" stroke-linecap="round" stroke-linejoin="round"/>
<path d="M93.463 248.301L86.207 244.457" stroke="#171717" stroke-width="3.33" stroke-linecap="round" stroke-linejoin="round"/>
<path d="M87.5085 249.867L91.1645 243.76" stroke="#171717" stroke-width="3.33" stroke-linecap="round" stroke-linejoin="round"/>
<path d="M383.668 294.718L389.938 292.374" stroke="#171717" stroke-width="3.33" stroke-linecap="round" stroke-linejoin="round"/>
<path d="M388.112 295.904C386.8 294.479 385.903 292.784 385.5 290.971" stroke="#171717" stroke-width="3.33" stroke-linecap="round" stroke-linejoin="round"/>
<path d="M344.707 285.858L341.325 283.26" stroke="#171717" stroke-width="3.33" stroke-linecap="round" stroke-linejoin="round"/>
<path d="M340.355 287.465C341.571 285.491 343.339 283.835 345.484 282.662" stroke="#171717" stroke-width="3.33" stroke-linecap="round" stroke-linejoin="round"/>
<path d="M271.37 169.302L270.064 166.013" stroke="#171717" stroke-width="3.33" stroke-linecap="round" stroke-linejoin="round"/>
<path d="M262.788 171.875L261.779 169.046" stroke="#171717" stroke-width="3.33" stroke-linecap="round" stroke-linejoin="round"/>
<path d="M254.133 174.471C253.472 173.562 253.11 172.503 253.089 171.417" stroke="#171717" stroke-width="3.33" stroke-linecap="round" stroke-linejoin="round"/>
<path d="M244.363 177.32L243.401 174.712" stroke="#171717" stroke-width="3.33" stroke-linecap="round" stroke-linejoin="round"/>
<path d="M157.909 133.703C158.4 133.328 158.99 133.074 159.622 132.964C160.254 132.855 160.906 132.894 161.517 133.078C162.127 133.261 162.675 133.583 163.106 134.013C163.538 134.442 163.839 134.965 163.98 135.53C164.38 137.124 163.462 138.76 163.572 140.391C163.689 141.491 164.252 142.513 165.155 143.261C166.057 144.01 167.236 144.432 168.463 144.448" stroke="#171717" stroke-width="3.33" stroke-linecap="round" stroke-linejoin="round"/>
<path d="M169.142 174.42C169.415 173.933 169.825 173.519 170.331 173.219C170.838 172.918 171.423 172.743 172.028 172.71C172.633 172.676 173.238 172.786 173.781 173.029C174.324 173.271 174.787 173.637 175.124 174.091C176.549 176.009 175.338 178.812 176.695 180.769C177.223 181.471 178.029 181.966 178.949 182.153C179.868 182.339 180.832 182.204 181.645 181.775" stroke="#171717" stroke-width="3.33" stroke-linecap="round" stroke-linejoin="round"/>
<path d="M150.056 154.455C150.223 154.061 150.506 153.715 150.877 153.457C151.247 153.198 151.689 153.036 152.155 152.989C152.62 152.942 153.092 153.011 153.517 153.189C153.942 153.367 154.304 153.647 154.563 153.997C154.993 154.703 155.2 155.501 155.163 156.305C155.126 157.108 155.292 157.908 155.651 158.643C156.076 159.346 157.045 159.858 157.868 159.552" stroke="#171717" stroke-width="3.33" stroke-linecap="round" stroke-linejoin="round"/>
<path d="M202.624 191.231C203.463 189.575 206.339 189.182 207.686 190.539C208.505 191.365 208.695 192.534 208.862 193.63C209.03 194.726 209.254 195.898 210.112 196.688C210.971 197.478 212.696 197.576 213.284 196.605" stroke="#171717" stroke-width="3.33" stroke-linecap="round" stroke-linejoin="round"/>
<path d="M244.289 187.873C244.405 187.513 244.64 187.193 244.962 186.955C245.285 186.717 245.679 186.573 246.095 186.541C246.51 186.509 246.927 186.591 247.289 186.776C247.652 186.961 247.943 187.241 248.126 187.578C248.659 188.562 248.263 189.981 249.253 190.618C250.082 191.15 251.24 190.677 252.029 190.099C252.819 189.521 253.635 188.795 254.653 188.825" stroke="#171717" stroke-width="3.33" stroke-linecap="round" stroke-linejoin="round"/>
<path d="M328.391 230.582L328.617 231.318C328.463 230.854 328.171 230.437 327.773 230.11C327.375 229.784 326.886 229.561 326.358 229.464C325.83 229.368 325.283 229.403 324.775 229.564C324.267 229.726 323.818 230.008 323.474 230.381C322.388 231.562 322.616 233.319 323.183 234.765C323.749 236.21 324.603 237.621 324.593 239.154C324.584 240.686 323.229 242.365 321.543 242.131L321.282 241.404" stroke="#171717" stroke-width="3.33" stroke-linecap="round" stroke-linejoin="round"/>
<path d="M298.065 236.211C296.886 235.327 294.955 235.742 293.978 236.807C293.001 237.871 292.811 239.363 292.978 240.735C293.145 242.108 293.619 243.436 293.816 244.805C294.013 246.174 293.894 247.661 292.991 248.778C291.646 250.441 288.835 250.751 286.8 249.814" stroke="#171717" stroke-width="3.33" stroke-linecap="round" stroke-linejoin="round"/>
<path d="M308.019 271.198C308.254 269.736 306.719 268.368 305.084 268.266C303.449 268.164 301.888 269.08 300.945 270.29C300.206 271.237 299.78 272.347 299.216 273.387C298.652 274.427 297.89 275.45 296.74 275.968C295.589 276.486 293.981 276.319 293.285 275.345" stroke="#171717" stroke-width="3.33" stroke-linecap="round" stroke-linejoin="round"/>
<path d="M271.822 269.594C271.964 268.78 271.879 267.947 271.574 267.17C271.27 266.393 270.755 265.697 270.076 265.143C269.397 264.589 268.576 264.196 267.686 263.999C266.797 263.803 265.866 263.808 264.98 264.015C263.442 264.375 262.158 265.303 260.944 266.224C259.729 267.145 258.486 268.104 256.975 268.546C255.464 268.987 253.594 268.776 252.612 267.653" stroke="#171717" stroke-width="3.33" stroke-linecap="round" stroke-linejoin="round"/>
<path fill-rule="evenodd" clip-rule="evenodd" d="M259.735 129.449C259.846 129.474 259.962 129.494 260.079 129.514L259.932 130.12C262.576 140.612 265.604 151.012 269.017 161.32L269.145 161.684C271.51 161.015 274.445 160.581 275.945 162.303C276.365 162.786 276.59 163.368 276.817 163.951C276.998 164.417 277.179 164.884 277.46 165.303C278.403 166.711 280.362 167.355 282.194 167.31C284.025 167.265 285.766 166.646 287.466 166.037L288.666 166.381C296.941 156.423 302.458 145.608 301.953 134.707L301.159 134.731C295.104 134.941 289.321 132.06 285.098 128.158C280.874 124.256 277.955 119.389 275.108 114.578L275.098 114.56C272.254 109.754 269.37 104.88 265.196 100.947C259.705 95.8546 252.457 92.5873 244.634 91.6781C236.822 90.8075 228.9 92.1268 221.952 95.4553C216.324 98.1359 211.302 102.199 208.854 107.485C206.429 112.71 206.717 118.695 208.404 124.15C210.091 129.606 213.105 134.642 216.096 139.623L215.275 139.932C214.97 153.524 224.793 166.845 238.834 171.881L239.056 172.156C240.638 170.239 243.501 169.266 246.115 168.492C248.518 167.78 250.921 167.07 253.325 166.361L252.964 165.372C253.68 160.902 250.577 156.577 246.737 153.662C244.666 152.09 242.365 150.796 240.064 149.5C238.098 148.394 236.131 147.287 234.305 146.006C224.471 139.102 219.554 126.988 222.129 116.013L222.223 115.918C230.498 122.591 242.247 125.721 253.214 123.999C253.711 125.323 254.568 126.515 255.706 127.467C256.845 128.418 258.23 129.1 259.735 129.449ZM259.838 102.459C254.294 97.8705 246.756 94.5681 239.094 95.405C238.637 95.4549 238.312 95.8281 238.368 96.2387C238.423 96.6492 238.838 96.9415 239.294 96.8916C246.305 96.1258 253.379 99.1485 258.711 103.561C263.61 107.616 267.258 112.709 270.943 117.853L270.949 117.861C271.281 118.324 271.613 118.787 271.946 119.25C275.959 124.827 280.325 130.527 286.399 134.574C286.769 134.82 287.29 134.75 287.564 134.418C287.837 134.086 287.76 133.617 287.39 133.371C281.585 129.503 277.361 124.02 273.344 118.437C273.005 117.966 272.667 117.494 272.327 117.02C268.665 111.905 264.903 106.651 259.838 102.459Z" fill="#171717"/>
<path fill-rule="evenodd" clip-rule="evenodd" d="M237.151 257.574C237.041 256.062 237.107 254.51 238.051 253.291C239.106 251.939 241.001 251.355 242.793 250.977C247.054 250.077 251.433 249.871 255.812 249.664C257.417 249.589 259.021 249.513 260.619 249.403C265.27 249.079 270.026 248.425 274.261 246.733L274.05 245.939C274.892 242.465 275.885 239.735 277.05 238.123C278.865 235.617 281.618 233.461 285.109 231.495C291.708 227.776 300.932 224.733 311.358 221.293C318.689 218.875 326.615 216.26 334.641 213.077C336.186 212.463 337.682 211.839 339.136 211.195V211.19C364.882 199.815 377.486 183.18 382.824 153.651C390.459 111.375 338.459 46.3394 252.659 42.6409C201.473 40.4348 170.056 73.383 153.032 100.325L152.166 100.37C152.665 100.551 153.084 100.873 153.36 101.289C153.785 102.026 153.986 102.85 153.942 103.679C153.997 107.519 152.7 111.275 150.235 114.411L150.285 114.53C153.6 113.468 156.962 112.549 160.369 111.775L161.113 112.479C168.451 128.485 177.38 143.864 187.791 158.428C189.095 160.255 190.438 162.075 191.831 163.874L192.247 163.614C198.572 155.635 197.547 145.383 196.482 134.73C195.355 123.453 194.183 111.726 201.638 101.773C227.217 67.6226 269.301 90.4028 290.596 111.58C298.204 119.146 301.601 126.948 301.951 134.705C302.456 145.604 296.939 156.422 288.664 166.379C266.876 192.613 225.929 212.888 225.302 213.097V213.102C223.662 214.177 222.127 215.374 220.712 216.681C207.053 229.229 203.008 251.894 202.653 271.729L204.307 271.76C204.347 271.266 204.531 270.79 204.841 270.381C205.151 269.971 205.575 269.643 206.072 269.428C207.16 268.914 208.425 268.84 209.652 268.775C210.612 268.725 211.572 268.675 212.537 268.62C211.599 268.56 210.662 268.47 209.724 268.35C207.834 268.11 205.545 267.407 205.284 265.705C205.117 264.612 205.961 263.553 207.026 263.009C208.134 262.526 209.338 262.247 210.567 262.186C216.032 261.591 221.495 260.994 226.956 260.394C225.416 257.045 225.321 253.301 226.689 249.892C229.917 252.468 233.144 255.043 236.368 257.619L237.151 257.574ZM334.287 77.7156C333.885 77.5146 333.378 77.6446 333.154 78.0056C332.931 78.3667 333.075 78.8227 333.477 79.0242C357.822 91.2135 374.049 115.579 374.504 140.637C374.96 165.694 359.629 190.524 335.738 203.423C335.344 203.636 335.216 204.095 335.453 204.45C335.689 204.805 336.201 204.92 336.595 204.706C360.996 191.532 376.634 166.204 376.169 140.612C375.704 115.02 359.151 90.1653 334.287 77.7156Z" fill="#171717"/>
<path fill-rule="evenodd" clip-rule="evenodd" d="M269.208 385.749C269.208 401.412 255.09 414.109 237.674 414.109C220.259 414.109 206.14 401.412 206.14 385.749C206.14 370.086 220.259 357.389 237.674 357.389C255.09 357.389 269.208 370.086 269.208 385.749ZM243.394 363.033C242.947 362.936 242.498 363.184 242.391 363.586C242.284 363.989 242.559 364.392 243.007 364.489C246.748 365.295 250.221 366.894 253.135 369.155C256.049 371.414 258.319 374.269 259.755 377.479C261.191 380.69 261.751 384.162 261.39 387.607C261.028 391.052 259.754 394.37 257.675 397.281C257.427 397.629 257.539 398.093 257.926 398.316C258.313 398.54 258.828 398.438 259.076 398.091C261.299 394.978 262.661 391.432 263.047 387.748C263.434 384.065 262.835 380.352 261.299 376.92C259.764 373.488 257.338 370.437 254.223 368.02C251.108 365.604 247.395 363.894 243.394 363.033Z" fill="#171717"/>
<g opacity="0.1">
<path d="M132.465 122.476C131.932 124.842 131.22 126.902 131.374 129.344C131.579 131.899 131.958 134.441 132.509 136.954C133.4 141.415 134.82 145.777 136.745 149.965C140.401 157.682 145.001 165.007 150.461 171.806C167.331 193.221 191.102 209.462 218.564 218.337C223.74 220.027 226.064 212.507 220.845 210.898C188.35 200.88 161.179 178.436 146.219 150.736C145.187 148.827 144.169 146.909 143.211 144.969C142.204 142.93 140.852 141.061 139.911 138.996C138.704 136.444 137.687 133.823 136.867 131.149C136.52 129.956 136.264 128.757 136.022 127.545C135.7 125.932 135.027 124.415 134.905 122.772C134.817 121.589 132.76 121.168 132.465 122.476H132.465Z" fill="#171717"/>
</g>
<g opacity="0.1">
<path d="M220.935 118.723C220.594 122.15 223.669 124 226.475 125.734C229.632 127.686 233.018 128.537 236.797 129.029C240.85 129.557 244.943 129.548 249.002 129.991C250.898 130.187 252.769 130.546 254.588 131.064C256.518 131.626 258.168 132.358 260.233 132.513C262.765 132.703 264.467 129.785 263.147 127.945C259.124 122.341 248.421 122.706 241.897 122.31C238.288 122.126 234.711 121.609 231.22 120.766C228.209 120.022 226.064 117.967 223.07 117.259C222.82 117.201 222.558 117.196 222.305 117.242C222.052 117.288 221.814 117.386 221.608 117.526C221.403 117.667 221.236 117.848 221.119 118.055C221.002 118.262 220.938 118.49 220.933 118.722L220.935 118.723Z" fill="#171717"/>
</g>
<g opacity="0.1">
<path d="M239.877 172.616C238.493 173.662 237.732 175.584 236.977 177.03C236.053 178.805 236.053 180.799 236.415 182.696C237.052 186.024 243.126 185.247 242.953 181.9C242.881 180.504 242.816 179.104 242.669 177.713C242.533 176.422 243.296 175.236 243.476 173.958C243.729 172.155 241.097 171.694 239.876 172.617L239.877 172.616Z" fill="#171717"/>
</g>
</g>
<defs>
<linearGradient id="paint0_linear_314_1251" x1="208.991" y1="111.773" x2="208.991" y2="216.681" gradientUnits="userSpaceOnUse">
<stop stop-color="#B1E938"/>
<stop offset="1" stop-color="#ABF600"/>
</linearGradient>
<linearGradient id="paint1_linear_314_1251" x1="288.696" y1="211.194" x2="288.696" y2="290.893" gradientUnits="userSpaceOnUse">
<stop stop-color="#B1E938"/>
<stop offset="1" stop-color="#ABF600"/>
</linearGradient>
</defs>
</svg>
