<svg width="426" height="446" viewBox="0 0 426 446" fill="none" xmlns="http://www.w3.org/2000/svg">
<mask id="mask0_1520_4243" style="mask-type:luminance" maskUnits="userSpaceOnUse" x="0" y="0" width="426" height="446">
<path d="M426 0H0V446H426V0Z" fill="white"/>
</mask>
<g mask="url(#mask0_1520_4243)">
<mask id="mask1_1520_4243" style="mask-type:luminance" maskUnits="userSpaceOnUse" x="16" y="24" width="394" height="398">
<path d="M409.581 24.6229H16.8625V421.377H409.581V24.6229Z" fill="white"/>
</mask>
<g mask="url(#mask1_1520_4243)">
<path fill-rule="evenodd" clip-rule="evenodd" d="M295.673 332.609C295.673 311.971 271.981 295.243 242.752 295.243C213.523 295.243 189.832 311.976 189.832 332.609C189.832 353.242 213.523 369.97 242.752 369.97C271.982 369.97 295.673 353.247 295.673 332.609ZM242.752 322.88C250.518 322.88 256.808 327.236 256.809 332.609C256.809 337.976 250.513 342.333 242.752 342.333C234.992 342.333 228.696 337.983 228.696 332.609C228.696 327.236 234.987 322.88 242.752 322.88ZM227.915 340.166C227.561 339.91 227.075 340.003 226.831 340.374C226.586 340.744 226.676 341.253 227.03 341.508C235.78 347.831 248.192 347.937 257.041 341.769C257.4 341.519 257.496 341.013 257.258 340.638C257.019 340.263 256.536 340.161 256.178 340.41C247.859 346.209 236.14 346.109 227.915 340.166Z" fill="url(#paint0_linear_1520_4243)"/>
<path fill-rule="evenodd" clip-rule="evenodd" d="M197.992 279.596C204.796 279.536 211.59 279.46 218.375 279.367C222.656 279.312 226.935 279.254 231.212 279.196H231.216L231.22 279.196H231.224H231.225C251.876 278.915 272.505 278.636 293.295 278.692C296.006 278.692 298.723 278.704 301.445 278.725C302.331 276.578 303.217 274.566 304.077 272.61C305.671 268.989 307.178 265.563 308.447 261.844L298.546 256.852L298.183 248.406L313.948 248.026C313.948 248.026 313.704 258.516 323.116 258.391C331.552 258.271 333.381 248.792 333.381 248.792L349.151 248.406L347.681 261.077L332.283 264.144C331.521 266.612 330.735 268.983 329.949 271.352L329.949 271.352L329.949 271.354V271.355C329.16 273.734 328.371 276.112 327.608 278.588V278.697C330.693 278.702 333.779 278.715 336.864 278.735L352.266 391.019L115.215 388.139L115.958 385.442L117.952 378.214L134.668 317.61L144.919 280.461C147.666 279.854 150.624 279.88 153.469 279.904C154.959 279.918 156.419 279.93 157.801 279.852C156.958 277.117 156.038 274.559 155.119 272.001C154.199 269.443 153.279 266.884 152.435 264.146L137.032 261.08L135.567 248.409L151.333 248.795C151.333 248.795 153.166 258.272 161.602 258.393C171.014 258.518 170.765 248.028 170.765 248.028L186.535 248.409L186.166 256.854L176.266 261.847C177.219 264.078 178.073 266.361 178.94 268.679C180.29 272.29 181.673 275.984 183.507 279.695C188.341 279.673 193.169 279.639 197.992 279.596ZM295.673 332.608C295.673 311.97 271.982 295.242 242.752 295.242C213.523 295.242 189.831 311.97 189.831 332.608C189.831 353.246 213.523 369.97 242.752 369.97C271.982 369.97 295.673 353.241 295.673 332.608ZM330.632 284.904C331.058 284.839 331.453 285.148 331.515 285.594L344.853 381.543C344.914 381.989 344.619 382.403 344.194 382.468C343.768 382.533 343.372 382.224 343.31 381.778L329.973 285.829C329.911 285.383 330.206 284.969 330.632 284.904ZM346.197 251.518C346.22 251.069 345.889 250.685 345.46 250.661C345.03 250.638 344.663 250.983 344.641 251.433C344.519 253.864 344.397 256.296 344.275 258.727C344.253 259.177 344.583 259.561 345.013 259.585C345.443 259.608 345.81 259.262 345.832 258.812C345.954 256.381 346.075 253.95 346.197 251.518ZM291.917 353.142C292.202 353.48 292.172 353.995 291.849 354.294C277.667 367.418 259.394 374.665 240.466 374.671C221.538 374.677 203.26 367.442 189.07 354.327C188.748 354.029 188.717 353.514 189.002 353.176C189.287 352.838 189.779 352.806 190.102 353.104C204.007 365.956 221.918 373.046 240.465 373.04C259.013 373.033 276.92 365.932 290.817 353.071C291.14 352.773 291.632 352.805 291.917 353.142ZM184.997 250.65C184.967 250.201 184.595 249.862 184.166 249.892C183.736 249.924 183.413 250.313 183.442 250.763L183.771 255.756C183.8 256.205 184.173 256.545 184.602 256.514C185.031 256.483 185.355 256.093 185.326 255.643L184.997 250.65Z" fill="#171717"/>
<path fill-rule="evenodd" clip-rule="evenodd" d="M294.328 234.396C294.645 220.623 294.963 206.852 295.278 193.671L295.284 193.672C316.025 193.46 338.387 187.771 351.389 170.847C359.437 160.374 362.879 146.924 365.757 133.83C369.288 117.752 372.26 101.569 374.67 85.2813C375.319 80.9286 375.844 76.1592 373.642 72.4123C372.577 70.6446 371.04 69.2434 369.221 68.3825C365.647 66.5934 361.045 66.343 356.942 66.3648C352.973 66.3866 348.662 66.5822 344.937 67.844C342.184 68.7686 339.743 70.2808 337.992 72.7333C335.176 76.6688 335.02 81.8977 334.871 86.8669C334.859 87.2604 334.847 87.6525 334.834 88.0423C334.328 103.387 330.84 118.462 324.583 132.348C321.898 138.309 318.542 144.215 313.368 147.973C305.868 153.426 296.05 153.404 286.924 153.176C281.35 153.037 275.773 152.899 270.194 152.762C257.674 152.449 245.157 152.137 232.644 151.827C231.75 151.805 230.852 151.784 229.948 151.767C218.442 151.574 206.313 152.128 197.233 159.247C196.976 160.438 196.799 161.647 196.703 162.863C196.132 170.096 207.108 192.273 209.612 197.255C209.739 197.509 209.865 197.762 209.99 198.012C211.856 201.754 213.489 205.028 217.336 206.511C222.025 208.321 227.114 207.27 232.183 206.223C237.518 205.121 242.832 204.024 247.635 206.272C254.216 209.35 257.021 217.475 258.382 224.887C259.431 230.592 259.982 236.715 257.712 242.007C255.276 247.695 249.921 251.492 244.316 253.59C242.127 254.41 239.867 255.006 237.568 255.369L237.599 255.576C238.338 258.193 238.324 260.98 237.56 263.589C236.797 266.198 235.316 268.514 233.303 270.248C231.165 271.981 228.566 272.975 225.864 273.092C223.794 275.661 221.245 277.761 218.374 279.265V279.368C222.696 279.313 227.016 279.254 231.335 279.195C251.949 278.915 272.542 278.635 293.294 278.693V278.671C293.638 264.418 293.983 249.406 294.328 234.396ZM369.73 77.2416C369.773 76.7933 369.461 76.3938 369.032 76.3492C368.604 76.3046 368.223 76.6316 368.18 77.08C366.412 95.6949 363.535 114.176 359.567 132.416C355.978 148.914 350.789 166.113 338.13 176.081C337.786 176.351 337.716 176.863 337.975 177.223C338.234 177.583 338.722 177.655 339.066 177.384C352.226 167.023 357.501 149.26 361.087 132.778C365.069 114.472 367.956 95.9239 369.73 77.2416Z" fill="url(#paint1_linear_1520_4243)"/>
<path fill-rule="evenodd" clip-rule="evenodd" d="M265.179 67.4371C264.497 67.0375 263.789 67.1671 263.249 67.4217C262.715 67.674 262.246 68.0875 261.898 68.4675L261.898 68.4684C259.268 71.3521 257.608 75.0544 257.168 79.0149C257.118 79.4623 257.425 79.8675 257.852 79.9195C258.279 79.9715 258.666 79.6505 258.716 79.2031C259.116 75.5956 260.629 72.2227 263.024 69.5955C263.295 69.2996 263.604 69.0441 263.89 68.9093C264.168 68.7783 264.319 68.8039 264.417 68.8601C264.493 68.9061 264.581 69.0027 264.657 69.2248C264.735 69.4534 264.776 69.7447 264.795 70.0703V70.0717C264.943 72.5024 264.627 74.9401 263.865 77.2416C263.739 77.6207 263.896 78.0398 264.235 78.2284C264.574 78.4175 264.993 78.3204 265.224 77.9994C267.197 75.2588 269.389 72.6989 271.778 70.3491C272.149 69.9858 272.542 69.661 272.921 69.4738C273.294 69.2898 273.562 69.2801 273.777 69.3772L273.781 69.3786C274.025 69.4877 274.21 69.7363 274.284 70.238C274.358 70.7458 274.289 71.3763 274.132 71.9403L274.132 71.9412C273.187 75.354 271.28 78.3887 268.66 80.6475C268.347 80.9179 268.284 81.3945 268.516 81.7434C268.748 82.0919 269.197 82.196 269.548 81.9822C274.175 79.1627 279.073 76.8602 284.16 75.1134C284.678 74.9373 285.188 74.8003 285.644 74.7812C286.076 74.7631 286.383 74.8532 286.602 75.0395C286.79 75.2537 286.916 75.519 286.966 75.8056C287.018 76.102 286.985 76.4077 286.873 76.6851C286.556 77.42 286.086 78.0723 285.498 78.5931C285.486 78.6043 285.473 78.6159 285.461 78.628C280.5 83.6283 276.119 87.1898 269.618 89.0778C269.203 89.1986 268.96 89.6479 269.075 90.0823C269.19 90.5162 269.62 90.7708 270.034 90.6504C276.896 88.6574 281.499 84.8845 286.525 79.821C287.283 79.1441 287.888 78.2995 288.296 77.348L288.302 77.3359C288.537 76.7617 288.607 76.1276 288.499 75.5129C288.392 74.8983 288.114 74.3301 287.7 73.8804C287.684 73.8632 287.668 73.8469 287.651 73.8311C287.025 73.2606 286.263 73.1222 285.581 73.151C284.906 73.1793 284.23 73.374 283.678 73.5617L283.675 73.5626C279.994 74.8267 276.409 76.3761 272.952 78.1964C274.142 76.4435 275.05 74.4843 275.628 72.3956C275.827 71.682 275.943 70.8025 275.824 69.99C275.704 69.1714 275.314 68.2896 274.392 67.878C273.62 67.53 272.861 67.7 272.256 67.9983C271.658 68.2938 271.125 68.7546 270.713 69.1579L270.712 69.1593C269.116 70.7286 267.606 72.3895 266.188 74.1326C266.38 72.7579 266.435 71.3623 266.35 69.9686C266.328 69.5872 266.275 69.1175 266.124 68.6747C265.971 68.2269 265.693 67.7414 265.183 67.4389L265.179 67.4371Z" fill="#171717"/>
<path fill-rule="evenodd" clip-rule="evenodd" d="M173.516 175.327C172.897 172.922 172.275 170.546 171.648 168.155C170.945 165.47 170.236 162.766 169.522 159.98C166.86 149.577 164.552 138.417 167.798 128.199C170.78 118.823 177.994 111.677 185.326 105.455C190.947 100.675 198.146 95.9383 204.971 98.4726C210.192 100.414 213.241 105.994 215.563 111.258C218.872 118.757 221.516 128.041 217.048 134.85C215.275 137.55 212.652 139.385 210.021 141.225C208.753 142.111 207.483 142.999 206.306 143.986C201.732 147.862 198.538 153.237 197.237 159.246C196.98 160.436 196.803 161.645 196.707 162.862C196.135 170.095 207.112 192.272 209.615 197.254C209.743 197.509 209.87 197.762 209.996 198.014C211.861 201.754 213.494 205.027 217.339 206.51C222.029 208.321 227.118 207.269 232.188 206.222C237.523 205.12 242.836 204.023 247.638 206.27C254.22 209.348 257.025 217.473 258.386 224.886C259.435 230.59 259.985 236.714 257.716 242.006C255.279 247.694 249.924 251.49 244.319 253.589C242.13 254.408 239.87 255.004 237.571 255.368C227.365 257.004 216.508 254.209 208.343 247.553C205.282 245.016 202.552 242.073 200.221 238.796C198.911 236.978 197.69 235.093 196.564 233.146C194.344 229.276 192.326 225.285 190.517 221.188C188.413 216.527 186.424 211.812 184.549 207.043L184.45 206.907C185.047 206.428 185.624 205.931 186.185 205.438C189.336 202.659 192.398 199.631 194.387 195.856C195.078 194.551 195.556 192.734 194.506 191.721C193.888 191.128 192.953 191.079 192.117 191.139C189.92 191.293 187.979 193.027 186.16 194.652V194.652C185.6 195.152 185.052 195.641 184.512 196.071L184.434 195.984C185.846 194.633 187.2 193.205 188.553 191.778H188.554C189.242 191.052 189.93 190.326 190.626 189.611C192.08 188.11 193.561 185.82 192.439 184.031C191.773 182.971 190.387 182.623 189.199 182.873C188.012 183.123 186.966 183.846 185.96 184.559C185.227 185.076 184.493 185.594 183.757 186.114C183.924 185.977 184.097 185.832 184.272 185.686L184.274 185.684L184.37 185.603C187.29 183.156 191.845 179.034 189.752 175.787C188.518 173.875 182.606 178.391 177.612 182.207L177.612 182.207C176.783 182.84 175.98 183.454 175.228 184.015L174.922 183.248C174.78 182.568 174.646 181.911 174.516 181.273C174.085 179.164 173.697 177.263 173.238 175.401L173.516 175.327ZM197.433 101.448C199.202 100.674 201.154 100.479 203.031 100.889C204.908 101.299 206.622 102.295 207.948 103.745C209.274 105.195 210.15 107.031 210.46 109.012C210.53 109.457 210.242 109.876 209.817 109.949C209.392 110.022 208.992 109.721 208.922 109.276C208.663 107.62 207.931 106.085 206.823 104.873C205.714 103.662 204.281 102.829 202.713 102.487C201.144 102.144 199.512 102.306 198.034 102.953C196.555 103.6 195.298 104.7 194.428 106.109C194.194 106.488 193.712 106.596 193.35 106.351C192.989 106.107 192.885 105.602 193.119 105.223C194.16 103.538 195.664 102.221 197.433 101.448ZM233.992 211.975C235.94 211.061 238.072 210.661 240.201 210.81C242.33 210.959 244.392 211.652 246.207 212.829C248.021 214.006 249.532 215.63 250.607 217.56C251.683 219.49 252.29 221.667 252.375 223.899C252.393 224.35 252.755 224.7 253.185 224.682C253.615 224.664 253.95 224.284 253.933 223.834C253.837 221.335 253.157 218.899 251.953 216.738C250.75 214.578 249.058 212.759 247.027 211.442C244.997 210.125 242.688 209.349 240.305 209.182C237.921 209.015 235.535 209.463 233.355 210.486C232.962 210.67 232.787 211.152 232.962 211.563C233.138 211.975 233.599 212.159 233.992 211.975Z" fill="#171717"/>
<path d="M352.267 391.022L350.064 420.388L114.662 415.783L115.213 388.139L352.267 391.022Z" fill="url(#paint2_linear_1520_4243)"/>
<path d="M270.205 152.209L270.195 152.764C257.676 152.448 245.159 152.137 232.644 151.829C231.751 151.807 230.852 151.785 229.948 151.769L229.969 150.806C228.198 148.462 229.642 144.726 232.109 143.219C234.114 141.996 236.493 141.822 238.846 141.876C239.392 141.882 239.932 141.904 240.467 141.923C246.124 142.178 251.782 142.43 257.442 142.679C258.715 142.733 259.988 142.793 261.259 142.847C263.835 142.962 266.584 143.141 268.64 144.756C270.696 146.372 271.497 150.006 269.513 151.728C269.748 151.888 269.978 152.046 270.205 152.209Z" fill="url(#paint3_linear_1520_4243)"/>
<path d="M242.752 322.879C250.518 322.879 256.809 327.235 256.809 332.609C256.809 337.982 250.518 342.332 242.752 342.332C234.987 342.332 228.696 337.977 228.696 332.609C228.696 327.241 234.992 322.879 242.752 322.879Z" fill="url(#paint4_linear_1520_4243)"/>
<path d="M237.599 255.575C238.338 258.192 238.325 260.979 237.561 263.588C236.797 266.198 235.316 268.514 233.303 270.248C231.165 271.98 228.566 272.974 225.865 273.092C226.087 272.82 226.309 272.537 226.519 272.249C227.2 271.325 227.844 270.264 227.828 269.095C227.808 267.415 226.353 266.039 224.784 265.674C223.215 265.31 221.584 265.745 220.073 266.325C219.281 266.577 218.553 267.012 217.943 267.597C217.642 267.895 217.429 268.278 217.328 268.699C217.228 269.12 217.245 269.562 217.377 269.974C217.663 270.549 218.118 271.012 218.675 271.295C220.854 272.613 223.352 273.237 225.864 273.09C223.793 275.658 221.245 277.759 218.373 279.262V279.365C211.589 279.452 204.795 279.528 197.99 279.594C198.707 266.667 199.491 251.728 200.209 238.807L200.219 238.796C202.551 242.072 205.281 245.015 208.34 247.551C216.505 254.208 227.362 257.003 237.569 255.366L237.599 255.575Z" fill="url(#paint5_linear_1520_4243)"/>
<path d="M237.091 100.713C237.096 100.828 237.101 100.936 237.106 101.051L236.826 101.061C233.647 100.213 231.953 105.918 228.927 104.592C226.963 103.733 227.103 100.682 228.168 98.757C229.233 96.8317 230.92 95.1025 231.056 92.8781C228.63 93.9982 224.568 96.3314 223.275 93.9114C220.907 89.4843 232.095 85.1121 237.035 82.7521C243.311 79.7611 249.886 79.0865 256.754 79.1683L257.943 79.1083C258.363 75.3243 259.95 71.7865 262.462 69.0311C263.081 68.3565 264.021 67.6931 264.8 68.1483C265.387 68.4963 265.533 69.3098 265.574 70.0192C265.728 72.5582 265.398 75.1041 264.603 77.5078C266.602 74.7296 268.825 72.1354 271.246 69.753C272.031 68.986 273.101 68.1813 274.086 68.6273C275.255 69.1495 275.234 70.8899 274.881 72.1675C273.893 75.7382 271.898 78.9132 269.157 81.2765C273.832 78.4282 278.78 76.102 283.919 74.3371C284.989 73.9728 286.294 73.6736 287.14 74.4458C287.448 74.7803 287.654 75.2021 287.734 75.6588C287.813 76.1155 287.762 76.5866 287.587 77.0126C287.223 77.8614 286.681 78.614 286.003 79.2152C281.006 84.2513 276.513 87.9219 269.827 89.8634L269.583 89.7385C262.576 89.3668 255.153 89.2488 248.141 89.4337C244.515 89.5317 240.339 90.0047 238.313 93.1536C236.918 95.313 236.981 98.1135 237.091 100.713Z" fill="#171717"/>
<path d="M227.829 269.095C227.844 270.264 227.201 271.325 226.52 272.249C226.307 272.537 226.089 272.82 225.865 273.091C223.353 273.238 220.855 272.615 218.677 271.297C218.12 271.014 217.664 270.55 217.378 269.975C217.247 269.564 217.23 269.122 217.33 268.701C217.431 268.28 217.644 267.898 217.944 267.6C218.555 267.015 219.282 266.58 220.074 266.328C221.585 265.745 223.217 265.311 224.785 265.677C226.354 266.044 227.808 267.414 227.829 269.095Z" fill="url(#paint6_linear_1520_4243)"/>
<path d="M196.563 233.147L196.49 233.196C191.4 233.833 186.262 234.349 181.151 233.92C176.04 233.49 170.913 232.081 166.633 229.134C162.473 226.271 159.289 222.1 157.538 217.222C155.786 212.343 155.559 207.009 156.888 201.986C158.042 197.625 163.272 192.355 167.157 190.381L167.495 190.387C167.456 191.998 167.264 193.601 166.923 195.172C164.228 202.922 169.635 210.861 172.445 211.351C176.772 212.112 180.896 209.769 184.449 206.908L184.548 207.044C186.423 211.808 188.412 216.523 190.516 221.189C192.325 225.286 194.344 229.277 196.563 233.147Z" fill="url(#paint7_linear_1520_4243)"/>
<path d="M115.956 385.442L115.213 388.139L114.662 415.782C113.748 416.163 18.0457 406.185 18.0457 406.185L78.5439 378.16H111.638C113.013 380.526 114.318 382.94 115.612 385.339L115.956 385.442Z" fill="#171717"/>
<path d="M257.458 142.279C256.705 140.411 256.532 138.344 256.963 136.368C257.395 134.393 258.409 132.61 259.863 131.271C261.468 129.858 263.499 129.074 265.208 127.791C270.418 123.875 271.587 116.234 271.041 109.539C270.496 102.845 268.672 96.6886 269.701 90.0595" stroke="#171717" stroke-width="3.512" stroke-linecap="round" stroke-linejoin="round"/>
<path d="M238.851 141.664C238.269 128.129 237.688 114.591 237.106 101.051C237.101 100.936 237.096 100.828 237.09 100.713C236.981 98.114 236.919 95.313 238.311 93.1541C240.337 90.0051 244.513 89.5303 248.139 89.4342C255.15 89.2483 262.574 89.3691 269.581 89.7389" stroke="#171717" stroke-width="3.512" stroke-linecap="round" stroke-linejoin="round"/>
<path d="M257.785 79.1827C257.442 79.1771 257.094 79.1664 256.752 79.1664C249.885 79.0846 243.306 79.7592 237.034 82.7502C232.094 85.1103 220.905 89.4829 223.273 93.9095C224.567 96.3295 228.629 93.9964 231.055 92.8763C230.921 95.1007 229.235 96.8252 228.167 98.7551C227.098 100.685 226.961 103.731 228.925 104.59C231.953 105.917 233.647 100.212 236.824 101.059" stroke="#171717" stroke-width="3.512" stroke-linecap="round" stroke-linejoin="round"/>
<path d="M251.521 116.452C252.539 117.518 254.43 116.838 255.157 115.538C255.884 114.238 255.785 112.623 255.671 111.125C255.235 105.55 254.8 99.9746 254.367 94.3996C257.728 94.2528 261.087 94.1023 264.445 93.9481" stroke="#171717" stroke-width="3.512" stroke-linecap="round" stroke-linejoin="round"/>
<path d="M265.167 102.166C264.495 101.642 263.674 101.372 262.837 101.4C262 101.427 261.198 101.751 260.559 102.318" stroke="#171717" stroke-width="3.512" stroke-linecap="round" stroke-linejoin="round"/>
<path d="M248.678 102.149C247.795 100.409 245.067 100.208 243.961 101.801" stroke="#171717" stroke-width="3.512" stroke-linecap="round" stroke-linejoin="round"/>
<path d="M249.417 124.027C246.7 125.077 243.318 122.836 243.064 119.818" stroke="#171717" stroke-width="3.512" stroke-linecap="round" stroke-linejoin="round"/>
<path d="M184.549 207.043C186.424 211.807 188.413 216.522 190.517 221.188" stroke="#171717" stroke-width="3.512" stroke-linecap="round" stroke-linejoin="round"/>
<path d="M169.521 159.98C170.872 165.244 172.202 170.221 173.515 175.327C174.17 177.867 174.819 180.434 175.468 183.086" stroke="#171717" stroke-width="3.512" stroke-linecap="round" stroke-linejoin="round"/>
<path d="M190.517 221.188C192.326 225.285 194.344 229.277 196.564 233.147C197.69 235.094 198.911 236.979 200.22 238.796C202.552 242.072 205.282 245.015 208.341 247.551C216.506 254.208 227.363 257.003 237.57 255.366C239.868 255.002 242.128 254.407 244.317 253.588C249.922 251.489 255.278 247.693 257.714 242.004C259.984 236.713 259.433 230.589 258.384 224.884C257.023 217.472 254.218 209.347 247.637 206.269C238.271 201.886 226.963 210.223 217.337 206.508C213.234 204.926 211.649 201.305 209.613 197.252C207.11 192.271 196.134 170.093 196.705 162.861C196.801 161.644 196.978 160.436 197.235 159.244C198.536 153.236 201.731 147.861 206.304 143.985C209.925 140.95 214.418 138.851 217.047 134.848C221.514 128.039 218.87 118.756 215.561 111.257C213.239 105.992 210.192 100.413 204.97 98.4712C198.144 95.9369 190.944 100.674 185.324 105.454C177.995 111.675 170.78 118.821 167.796 128.197C164.55 138.418 166.856 149.575 169.521 159.979" stroke="#171717" stroke-width="3.512" stroke-linecap="round" stroke-linejoin="round"/>
<path d="M196.818 159.572C196.958 159.458 197.093 159.349 197.233 159.247C206.313 152.128 218.444 151.573 229.948 151.769C230.852 151.785 231.75 151.807 232.644 151.829C245.157 152.139 257.674 152.451 270.194 152.764C275.773 152.901 281.35 153.038 286.924 153.178C296.05 153.406 305.868 153.428 313.368 147.974C318.542 144.216 321.898 138.311 324.583 132.35C330.84 118.464 334.328 103.388 334.834 88.0441C335.011 82.7363 334.953 76.9824 337.992 72.7352C339.743 70.2826 342.184 68.7704 344.937 67.8459C348.662 66.5841 352.973 66.3885 356.942 66.3667C361.045 66.3448 365.647 66.5953 369.221 68.3844C371.04 69.2452 372.577 70.6464 373.642 72.4142C375.844 76.161 375.319 80.9304 374.67 85.2831C372.26 101.571 369.289 117.754 365.757 133.832C362.879 146.928 359.435 160.377 351.389 170.851C338.387 187.774 316.025 193.463 295.284 193.675" stroke="#171717" stroke-width="3.512" stroke-linecap="round" stroke-linejoin="round"/>
<path d="M295.356 190.446C295.33 191.517 295.305 192.594 295.278 193.671C294.619 221.216 293.954 251.339 293.294 278.671" stroke="#171717" stroke-width="3.512" stroke-linecap="round" stroke-linejoin="round"/>
<path d="M200.21 238.808C199.493 251.73 198.709 266.669 197.991 279.596V279.601" stroke="#171717" stroke-width="3.512" stroke-linecap="round" stroke-linejoin="round"/>
<path d="M166.924 195.171C167.265 193.6 167.456 191.997 167.495 190.386C167.625 184.273 165.376 180.444 166.394 174.37C166.815 171.857 168.581 169.008 170.778 167.904C171.789 170.33 172.611 172.838 173.235 175.403C173.833 177.829 174.31 180.319 174.918 183.25" stroke="#171717" stroke-width="3.512" stroke-linecap="round" stroke-linejoin="round"/>
<path d="M173.879 185.002C174.305 184.697 174.752 184.371 175.225 184.018C180.512 180.069 188.309 173.56 189.748 175.79C191.841 179.036 187.286 183.158 184.367 185.606C184.159 185.78 183.951 185.954 183.754 186.117C181.167 188.238 179.313 189.467 176.056 191.729" stroke="#171717" stroke-width="3.512" stroke-linecap="round" stroke-linejoin="round"/>
<path d="M176.05 191.548C178.621 189.737 181.189 187.926 183.754 186.115C184.491 185.593 185.226 185.074 185.956 184.559C186.964 183.847 188.003 183.124 189.195 182.873C190.388 182.623 191.772 182.972 192.435 184.032C193.557 185.821 192.076 188.11 190.622 189.611C188.56 191.732 186.56 193.946 184.431 195.985C182.743 197.644 180.908 199.13 178.95 200.423" stroke="#171717" stroke-width="3.512" stroke-linecap="round" stroke-linejoin="round"/>
<path d="M184.511 196.075C186.807 194.247 189.243 191.343 192.116 191.142C192.952 191.082 193.887 191.131 194.505 191.724C195.555 192.735 195.077 194.552 194.386 195.859C192.397 199.633 189.337 202.662 186.184 205.441C185.623 205.936 185.046 206.431 184.449 206.91C180.896 209.771 176.772 212.113 172.445 211.353C169.635 210.863 164.227 202.924 166.923 195.174" stroke="#171717" stroke-width="3.512" stroke-linecap="round" stroke-linejoin="round"/>
<path d="M229.969 150.806C228.197 148.462 229.642 144.726 232.109 143.219C234.114 141.996 236.493 141.822 238.846 141.876C239.391 141.882 239.931 141.904 240.467 141.923C246.124 142.178 251.782 142.43 257.442 142.679C258.715 142.733 259.988 142.793 261.258 142.847C263.835 142.962 266.583 143.141 268.64 144.756C270.696 146.372 271.497 150.006 269.513 151.728C269.747 151.886 269.975 152.044 270.204 152.207" stroke="#171717" stroke-width="3.512" stroke-linecap="round" stroke-linejoin="round"/>
<path d="M344.854 67.5834C341.81 65.0979 338.714 62.5585 336.559 59.2084C336.058 58.4892 335.691 57.6771 335.478 56.8153C335.344 56.3452 335.33 55.8467 335.437 55.3691C335.544 54.8915 335.769 54.4515 336.089 54.0929C336.409 53.7342 336.813 53.4698 337.26 53.3254C337.708 53.1809 338.184 53.1618 338.642 53.2696C339.633 53.455 340.572 53.8754 341.384 54.4989C343.183 55.7403 344.75 57.3161 346.007 59.1484" stroke="#171717" stroke-width="3.512" stroke-linecap="round" stroke-linejoin="round"/>
<path d="M346.086 59.252V59.1489C345.899 48.9685 345.742 38.6141 348.482 28.8463C348.654 28.0645 348.97 27.3255 349.414 26.6711C349.639 26.3461 349.942 26.089 350.293 25.9259C350.644 25.7627 351.029 25.6993 351.411 25.7419C352.683 25.9705 353.197 27.5747 353.39 28.9122C353.899 32.4524 353.93 36.0417 353.956 39.6148C353.998 44.5797 354.038 49.5432 354.075 54.5049C354.085 55.8643 354.096 57.2186 354.106 58.5784" stroke="#171717" stroke-width="3.512" stroke-linecap="round" stroke-linejoin="round"/>
<path d="M369.227 68.3718C370.588 62.4005 371.512 56.288 371.523 50.1481C371.523 48.7395 371.465 47.2714 370.853 46.0132C370.24 44.7551 368.931 43.7674 367.606 44.0067C366.079 44.2785 365.196 45.9375 364.64 47.4493C364.121 48.8677 363.694 50.3214 363.362 51.8001C362.798 54.3386 362.523 56.938 362.541 59.5443" stroke="#171717" stroke-width="3.512" stroke-linecap="round" stroke-linejoin="round"/>
<path d="M363.149 52.2522C363.18 52.0947 363.216 51.9311 363.248 51.7736C363.521 50.5783 363.662 49.3541 363.668 48.1243C363.685 46.718 363.227 45.3507 362.375 44.2634C361.942 43.7314 361.374 43.3406 360.735 43.1371C360.097 42.9337 359.417 42.9263 358.775 43.1159C357.585 43.5456 356.807 44.7363 356.235 45.9164C354.954 48.5806 354.286 51.5209 354.282 54.5031V54.6392" stroke="#171717" stroke-width="3.512" stroke-linecap="round" stroke-linejoin="round"/>
<path d="M167.158 190.381C163.272 192.355 158.041 197.624 156.888 201.986C155.559 207.009 155.787 212.343 157.538 217.222C159.289 222.1 162.473 226.271 166.633 229.134C170.914 232.082 176.041 233.495 181.152 233.919C186.263 234.343 191.402 233.832 196.491 233.196" stroke="#171717" stroke-width="3.512" stroke-linecap="round" stroke-linejoin="round"/>
<path d="M157.798 279.852C153.777 280.08 149.1 279.536 144.916 280.461" stroke="#171717" stroke-width="3.512" stroke-linecap="round" stroke-linejoin="round"/>
<path d="M301.444 278.726C298.723 278.704 296.006 278.693 293.295 278.693C268.195 278.623 243.328 279.047 218.375 279.368C211.591 279.455 204.797 279.531 197.992 279.596C193.172 279.64 188.342 279.673 183.505 279.695H183.302" stroke="#171717" stroke-width="3.512" stroke-linecap="round" stroke-linejoin="round"/>
<path d="M336.865 278.737C333.779 278.72 330.694 278.708 327.609 278.699H327.476" stroke="#171717" stroke-width="3.512" stroke-linecap="round" stroke-linejoin="round"/>
<path d="M144.915 280.461L134.666 317.61L117.951 378.215L115.956 385.442L115.213 388.139L352.267 391.022L336.865 278.737" stroke="#171717" stroke-width="3.512" stroke-linecap="round" stroke-linejoin="round"/>
<path d="M115.213 388.139L114.662 415.783L350.064 420.388L352.267 391.022" stroke="#171717" stroke-width="3.512" stroke-linecap="round" stroke-linejoin="round"/>
<path d="M308.447 261.845C306.494 267.571 303.974 272.602 301.445 278.725" stroke="#171717" stroke-width="3.512" stroke-linecap="round" stroke-linejoin="round"/>
<path d="M332.284 264.146L347.682 261.08L349.152 248.409L333.381 248.795C333.381 248.795 331.553 258.272 323.117 258.393C313.705 258.518 313.949 248.028 313.949 248.028L298.184 248.409L298.547 256.854L308.448 261.847" stroke="#171717" stroke-width="3.512" stroke-linecap="round" stroke-linejoin="round"/>
<path d="M327.609 278.59C329.131 273.646 330.757 269.095 332.284 264.145" stroke="#171717" stroke-width="3.512" stroke-linecap="round" stroke-linejoin="round"/>
<path d="M176.263 261.845C178.7 267.549 180.492 273.599 183.505 279.693L183.536 279.759" stroke="#171717" stroke-width="3.512" stroke-linecap="round" stroke-linejoin="round"/>
<path d="M152.431 264.146L137.03 261.08L135.565 248.409L151.33 248.795C151.33 248.795 153.164 258.272 161.6 258.393C171.012 258.518 170.763 248.028 170.763 248.028L186.533 248.409L186.164 256.854L176.264 261.847" stroke="#171717" stroke-width="3.512" stroke-linecap="round" stroke-linejoin="round"/>
<path d="M157.798 279.851C156.111 274.38 154.12 269.621 152.432 264.145" stroke="#171717" stroke-width="3.512" stroke-linecap="round" stroke-linejoin="round"/>
<path d="M114.662 415.783C113.748 416.163 18.0457 406.185 18.0457 406.185L78.5439 378.16H117.778" stroke="#171717" stroke-width="3.512" stroke-linecap="round" stroke-linejoin="round"/>
<path d="M117.779 320.03C120.062 320.044 122.338 319.768 124.558 319.208C127.779 318.485 130.989 317.544 134.287 317.495" stroke="#171717" stroke-width="3.512" stroke-linecap="round" stroke-linejoin="round"/>
<path d="M117.779 320.03C117.81 319.992 117.841 319.959 117.873 319.921C120.263 317.071 122.216 313.286 121.338 309.61C120.455 305.917 116.465 303.385 112.933 304.275C109.401 305.166 106.955 309.333 107.791 313.036C108.554 316.391 111.567 318.801 114.767 319.617C115.754 319.865 116.764 320.003 117.779 320.03Z" stroke="#171717" stroke-width="3.512" stroke-linecap="round" stroke-linejoin="round"/>
<path d="M95.9314 331.842C97.2768 331.602 98.6152 331.302 99.9469 330.939C106.705 329.09 113.146 325.501 117.779 320.03" stroke="#171717" stroke-width="3.512" stroke-linecap="round" stroke-linejoin="round"/>
<path d="M95.9314 331.842C94.6002 328.198 91.0901 325.838 87.5942 324.381C83.9581 322.869 79.8233 322.012 76.1663 323.462C74.1353 324.272 72.1872 326.23 72.5249 328.476C72.9456 331.277 76.2968 332.218 78.997 332.43C84.6442 332.881 90.3632 332.843 95.9314 331.842Z" stroke="#171717" stroke-width="3.512" stroke-linecap="round" stroke-linejoin="round"/>
<path d="M91.3083 344.322C95.007 341.685 97.4379 336.741 96.0871 332.303C96.0427 332.146 95.9886 331.994 95.9313 331.839" stroke="#171717" stroke-width="3.512" stroke-linecap="round" stroke-linejoin="round"/>
<path d="M91.3084 344.322C86.7405 341.735 81.5659 340.557 76.3847 340.923C74.6394 341.054 72.5045 341.75 72.2445 343.561C72.0732 344.714 72.8316 345.845 73.8029 346.416C74.8107 346.92 75.9116 347.187 77.0285 347.199C81.7141 347.547 86.6539 347.243 90.6898 344.737C90.898 344.605 91.1061 344.47 91.3084 344.322Z" stroke="#171717" stroke-width="3.512" stroke-linecap="round" stroke-linejoin="round"/>
<path d="M95.4689 359.98C97.1729 358.299 98.5334 356.189 98.5854 353.785C98.6635 350.343 96.0662 347.482 93.3234 345.585C92.6688 345.133 91.9988 344.709 91.3079 344.323" stroke="#171717" stroke-width="3.512" stroke-linecap="round" stroke-linejoin="round"/>
<path d="M95.4689 359.979C90.5549 357.075 84.9396 355.601 79.4544 356.695C77.7349 357.037 75.9896 357.67 74.7587 358.971C73.5277 360.272 72.9508 362.386 73.7771 364.002C74.7485 365.906 77.1172 366.411 79.174 366.427C84.6525 366.459 89.9815 364.557 94.3001 361.027C94.7004 360.702 95.0958 360.349 95.4689 359.979Z" stroke="#171717" stroke-width="3.512" stroke-linecap="round" stroke-linejoin="round"/>
<path d="M115.613 385.339C114.319 382.941 113.016 380.526 111.639 378.16C108.788 373.255 105.624 368.567 101.603 364.678C99.7374 362.871 97.6788 361.294 95.4685 359.98" stroke="#171717" stroke-width="3.512" stroke-linecap="round" stroke-linejoin="round"/>
<path d="M225.865 273.091C228.566 272.973 231.166 271.98 233.304 270.247C235.317 268.513 236.797 266.197 237.562 263.588C238.325 260.979 238.339 258.192 237.6 255.575" stroke="#171717" stroke-width="3.512" stroke-linecap="round" stroke-linejoin="round"/>
<path d="M225.865 273.092C226.087 272.82 226.309 272.537 226.52 272.249C227.2 271.325 227.845 270.264 227.829 269.095C227.808 267.415 226.354 266.039 224.785 265.674C223.216 265.31 221.585 265.745 220.074 266.325C219.281 266.577 218.554 267.012 217.944 267.597C217.643 267.895 217.429 268.278 217.329 268.699C217.229 269.12 217.246 269.562 217.377 269.974C217.663 270.549 218.118 271.012 218.676 271.295C220.854 272.614 223.352 273.238 225.865 273.092Z" stroke="#171717" stroke-width="3.512" stroke-linecap="round" stroke-linejoin="round"/>
<path d="M218.375 279.264C221.246 277.76 223.795 275.66 225.865 273.091" stroke="#171717" stroke-width="3.512" stroke-linecap="round" stroke-linejoin="round"/>
<path d="M295.673 332.609C295.673 353.242 271.982 369.97 242.752 369.97C213.523 369.97 189.832 353.242 189.832 332.609C189.832 311.976 213.523 295.242 242.753 295.242C271.982 295.242 295.673 311.971 295.673 332.609Z" stroke="#171717" stroke-width="3.512" stroke-linecap="round" stroke-linejoin="round"/>
<path d="M256.809 332.608C256.809 337.976 250.518 342.332 242.752 342.332C234.987 342.332 228.696 337.976 228.696 332.608C228.696 327.24 234.992 322.879 242.752 322.879C250.513 322.879 256.809 327.235 256.809 332.608Z" stroke="#171717" stroke-width="3.512" stroke-linecap="round" stroke-linejoin="round"/>
<path d="M205.9 83.4629C207.635 79.6844 209.372 75.9032 211.11 72.1187" stroke="#171717" stroke-width="3.512" stroke-linecap="round" stroke-linejoin="round"/>
<path d="M193.966 82.4408C193.629 70.7537 193.29 59.0695 192.948 47.3875" stroke="#171717" stroke-width="3.512" stroke-linecap="round" stroke-linejoin="round"/>
<path d="M184.164 84.7358L176.98 75.8623" stroke="#171717" stroke-width="3.512" stroke-linecap="round" stroke-linejoin="round"/>
<path d="M333.957 195.568C339.709 194.618 345.187 192.34 349.996 188.901C354.805 185.463 358.824 180.948 361.762 175.684" stroke="#171717" stroke-width="3.512" stroke-linecap="round" stroke-linejoin="round"/>
<path d="M363.265 232.669L370.415 221.153" stroke="#171717" stroke-width="3.512" stroke-linecap="round" stroke-linejoin="round"/>
<path d="M371.01 232.048L361.727 222.189" stroke="#171717" stroke-width="3.512" stroke-linecap="round" stroke-linejoin="round"/>
<path d="M157.367 146.948C156.089 143.158 155.647 139.115 156.075 135.121C156.503 131.127 157.788 127.287 159.836 123.887" stroke="#171717" stroke-width="3.512" stroke-linecap="round" stroke-linejoin="round"/>
<path d="M273.233 53.4805C273.003 50.5044 272.772 47.5283 272.542 44.5524" stroke="#171717" stroke-width="3.512" stroke-linecap="round" stroke-linejoin="round"/>
<path d="M267.824 49.3123L275.516 47.8521" stroke="#171717" stroke-width="3.512" stroke-linecap="round" stroke-linejoin="round"/>
<path d="M304.373 75.1115C303.533 70.9944 302.693 66.8777 301.853 62.7615" stroke="#171717" stroke-width="3.512" stroke-linecap="round" stroke-linejoin="round"/>
<path d="M296.878 71.0933L307.317 67.4617" stroke="#171717" stroke-width="3.512" stroke-linecap="round" stroke-linejoin="round"/>
<path d="M264.608 143.416L264.142 152.25" stroke="#171717" stroke-width="3.512" stroke-linecap="round" stroke-linejoin="round"/>
<path d="M258.791 142.65C258.747 145.68 258.423 148.698 257.821 151.663" stroke="#171717" stroke-width="3.512" stroke-linecap="round" stroke-linejoin="round"/>
<path d="M252.487 142.838L251.695 151.996C251.705 151.822 251.716 151.647 251.726 151.472" stroke="#171717" stroke-width="3.512" stroke-linecap="round" stroke-linejoin="round"/>
<path d="M244.138 142.84C244.119 145.833 244.101 148.826 244.082 151.819C244.087 151.641 244.093 151.464 244.098 151.287" stroke="#171717" stroke-width="3.512" stroke-linecap="round" stroke-linejoin="round"/>
<path d="M237.007 141.887L237.41 151.483" stroke="#171717" stroke-width="3.512" stroke-linecap="round" stroke-linejoin="round"/>
<path d="M232.034 143.412C232.336 146.036 232.638 148.66 232.941 151.283" stroke="#171717" stroke-width="3.512" stroke-linecap="round" stroke-linejoin="round"/>
<path d="M352.326 136.955L355.748 131.581" stroke="#171717" stroke-width="3.512" stroke-linecap="round" stroke-linejoin="round"/>
<path d="M332.034 142.596L327.901 141.481" stroke="#171717" stroke-width="3.512" stroke-linecap="round" stroke-linejoin="round"/>
<path d="M346.91 87.3691L343.499 85.0462" stroke="#171717" stroke-width="3.512" stroke-linecap="round" stroke-linejoin="round"/>
<path d="M359.166 75.3289L363.816 75.7801" stroke="#171717" stroke-width="3.512" stroke-linecap="round" stroke-linejoin="round"/>
<path d="M356.97 118.273V112.386" stroke="#171717" stroke-width="3.512" stroke-linecap="round" stroke-linejoin="round"/>
<path d="M317.631 182.247C317.059 180.541 316.488 178.836 315.916 177.13" stroke="#171717" stroke-width="3.512" stroke-linecap="round" stroke-linejoin="round"/>
<path d="M297.326 166.898C297.163 164.851 297 162.803 296.838 160.756" stroke="#171717" stroke-width="3.512" stroke-linecap="round" stroke-linejoin="round"/>
<path d="M271.668 184.071L276.805 182.291" stroke="#171717" stroke-width="3.512" stroke-linecap="round" stroke-linejoin="round"/>
<path d="M270.894 172.541L268.457 166.14" stroke="#171717" stroke-width="3.512" stroke-linecap="round" stroke-linejoin="round"/>
<path d="M238.693 193.11L233.051 195.097" stroke="#171717" stroke-width="3.512" stroke-linecap="round" stroke-linejoin="round"/>
<path d="M218.858 180.726L214.213 180.472" stroke="#171717" stroke-width="3.512" stroke-linecap="round" stroke-linejoin="round"/>
<path d="M219.393 196.067C219.227 194.532 219.061 192.997 218.896 191.462" stroke="#171717" stroke-width="3.512" stroke-linecap="round" stroke-linejoin="round"/>
<path d="M215.193 165.106C215.857 163.223 216.852 161.488 218.126 159.988" stroke="#171717" stroke-width="3.512" stroke-linecap="round" stroke-linejoin="round"/>
<path d="M257.482 205.542C257.463 203.261 257.879 200.999 258.704 198.888" stroke="#171717" stroke-width="3.512" stroke-linecap="round" stroke-linejoin="round"/>
<path d="M271.66 234.46L267.504 232.669" stroke="#171717" stroke-width="3.512" stroke-linecap="round" stroke-linejoin="round"/>
<path d="M278.227 221.391L280.924 216.022" stroke="#171717" stroke-width="3.512" stroke-linecap="round" stroke-linejoin="round"/>
<path d="M286.018 263.923C285.137 261.954 284.255 259.985 283.374 258.015" stroke="#171717" stroke-width="3.512" stroke-linecap="round" stroke-linejoin="round"/>
<path d="M268.741 254.436C269.785 253.03 271.093 251.864 272.585 251.008" stroke="#171717" stroke-width="3.512" stroke-linecap="round" stroke-linejoin="round"/>
<path d="M213.237 260.565L208.837 263.636" stroke="#171717" stroke-width="3.512" stroke-linecap="round" stroke-linejoin="round"/>
<path d="M186.593 230.11L182.681 226.528" stroke="#171717" stroke-width="3.512" stroke-linecap="round" stroke-linejoin="round"/>
<path d="M163.485 216.265C163.063 214.154 162.641 212.042 162.219 209.93" stroke="#171717" stroke-width="3.512" stroke-linecap="round" stroke-linejoin="round"/>
<path d="M285.885 198.708L282.034 194.102" stroke="#171717" stroke-width="3.512" stroke-linecap="round" stroke-linejoin="round"/>
<path d="M248.017 152.543C245.926 169.948 245.543 187.531 246.875 205.018" stroke="#171717" stroke-width="3.512" stroke-linecap="round" stroke-linejoin="round"/>
<path d="M246.525 253.4L245.94 278.99" stroke="#171717" stroke-width="3.512" stroke-linecap="round" stroke-linejoin="round"/>
<path d="M330.816 172.784L335.46 170.481" stroke="#171717" stroke-width="3.512" stroke-linecap="round" stroke-linejoin="round"/>
<path d="M343.755 158.199C343.427 156.323 343.099 154.447 342.771 152.571" stroke="#171717" stroke-width="3.512" stroke-linecap="round" stroke-linejoin="round"/>
<path d="M314.934 158.647L318.843 159.173" stroke="#171717" stroke-width="3.512" stroke-linecap="round" stroke-linejoin="round"/>
<path d="M340.39 120.055C339.987 118.092 339.585 116.129 339.182 114.165" stroke="#171717" stroke-width="3.512" stroke-linecap="round" stroke-linejoin="round"/>
<path d="M289.707 172.838L286.053 169.749" stroke="#171717" stroke-width="3.512" stroke-linecap="round" stroke-linejoin="round"/>
<path d="M254.807 183.05L260.453 180.03" stroke="#171717" stroke-width="3.512" stroke-linecap="round" stroke-linejoin="round"/>
<path d="M233.755 177.901C233.997 175.512 234.239 173.123 234.48 170.734" stroke="#171717" stroke-width="3.512" stroke-linecap="round" stroke-linejoin="round"/>
<path d="M259.683 271.313C258.297 269.692 256.912 268.072 255.527 266.451" stroke="#171717" stroke-width="3.512" stroke-linecap="round" stroke-linejoin="round"/>
<path d="M296.849 50.3632L296.675 55.999C296.669 56.1695 296.615 56.3335 296.517 56.4701C296.42 56.6067 296.285 56.7085 296.131 56.7623C295.977 56.8158 295.811 56.819 295.655 56.7707C295.499 56.7224 295.361 56.6253 295.259 56.4924L291.892 52.0914C291.793 51.9632 291.661 51.868 291.511 51.8182C291.361 51.7685 291.2 51.7667 291.049 51.8127L285.877 53.3802C285.721 53.4285 285.554 53.4248 285.4 53.3704C285.245 53.3161 285.11 53.2134 285.014 53.0763C284.917 52.9393 284.863 52.7744 284.858 52.6039C284.854 52.4334 284.9 52.2656 284.989 52.123L287.95 47.4098C288.036 47.2723 288.081 47.1111 288.08 46.9466C288.079 46.7822 288.031 46.6214 287.943 46.4853L284.919 41.8187C284.827 41.6779 284.779 41.5111 284.782 41.3409C284.783 41.1707 284.835 41.0052 284.93 40.8668C285.024 40.7283 285.157 40.6235 285.311 40.5666C285.464 40.5095 285.63 40.5031 285.787 40.5481L290.982 42.0348C291.133 42.0782 291.294 42.0736 291.443 42.0216C291.592 41.9696 291.723 41.8725 291.819 41.7426L295.125 37.2904C295.225 37.1569 295.361 37.0586 295.516 37.0086C295.671 36.9586 295.837 36.9593 295.992 37.0106C296.146 37.062 296.282 37.1615 296.381 37.2958C296.48 37.4302 296.537 37.593 296.545 37.7625L296.798 43.3951C296.806 43.5593 296.86 43.7175 296.953 43.8499C297.046 43.9821 297.175 44.0826 297.322 44.1384L302.388 46.0539C302.541 46.1117 302.673 46.2171 302.767 46.356C302.861 46.4951 302.912 46.6604 302.913 46.8309C302.915 47.001 302.866 47.1673 302.774 47.3076C302.682 47.4484 302.551 47.5557 302.399 47.6156L297.361 49.6082C297.214 49.6677 297.087 49.7708 296.996 49.9051C296.905 50.0394 296.854 50.1987 296.849 50.3632Z" fill="#171717"/>
<path d="M368.309 253.084L379.766 250.313" stroke="#171717" stroke-width="3.512" stroke-linecap="round" stroke-linejoin="round"/>
<path d="M374.602 257.839C373.912 253.627 373.222 249.415 372.532 245.202" stroke="#171717" stroke-width="3.512" stroke-linecap="round" stroke-linejoin="round"/>
<path d="M145.495 107.454C138.257 101.617 128.254 99.5035 119.593 102.548C110.932 105.592 104.034 113.942 102.974 123.442C101.915 132.941 107.096 143.01 115.488 146.787C118.189 148.003 122.411 147.754 122.817 144.706C122.883 143.89 122.736 143.071 122.391 142.336C119.354 134.965 108.208 134.289 103.218 140.385C98.2272 146.481 99.3596 156.39 104.4 162.44C107.377 166.014 111.389 168.444 115.398 170.651C119.407 172.858 123.54 174.94 126.988 178.015C130.435 181.09 133.185 185.363 133.422 190.099C133.658 194.834 130.804 199.876 126.382 200.91C121.961 201.943 116.898 197.611 117.818 192.965" stroke="#171717" stroke-width="3.512" stroke-linecap="round" stroke-linejoin="round"/>
<path d="M391.178 126.42C395.926 131.667 399.666 137.821 402.196 144.546C403.953 149.224 405.11 154.383 403.981 159.268C402.852 164.154 398.903 168.59 394.105 168.761C389.307 168.932 384.746 163.48 386.537 158.817C386.984 157.658 387.74 156.658 388.715 155.936C392.745 152.969 398.824 156.383 400.362 161.283C401.899 166.183 400.16 171.551 397.805 176.079C395.451 180.608 392.436 184.863 391.149 189.842C388.209 201.247 395.123 212.932 403.312 221.062" stroke="#171717" stroke-width="3.512" stroke-linecap="round" stroke-linejoin="round"/>
<path d="M99.8151 176.623L92.4817 169.712" stroke="#171717" stroke-width="3.512" stroke-linecap="round" stroke-linejoin="round"/>
<path d="M91.5591 178.041L96.7567 168.868" stroke="#171717" stroke-width="3.512" stroke-linecap="round" stroke-linejoin="round"/>
<path d="M401.949 185.836L408.549 182.765" stroke="#171717" stroke-width="3.512" stroke-linecap="round" stroke-linejoin="round"/>
<path d="M406.348 189.675L403.415 180.462" stroke="#171717" stroke-width="3.512" stroke-linecap="round" stroke-linejoin="round"/>
<path d="M242.57 315.585C247.566 315.585 251.615 312.613 251.615 308.948C251.615 305.283 247.566 302.312 242.57 302.312C237.575 302.312 233.526 305.283 233.526 308.948C233.526 312.613 237.575 315.585 242.57 315.585Z" stroke="#171717" stroke-width="3.512" stroke-linecap="round" stroke-linejoin="round"/>
<path d="M243.09 364.53C248.085 364.53 252.134 361.559 252.134 357.893C252.134 354.228 248.085 351.257 243.09 351.257C238.095 351.257 234.045 354.228 234.045 357.893C234.045 361.559 238.095 364.53 243.09 364.53Z" stroke="#171717" stroke-width="3.512" stroke-linecap="round" stroke-linejoin="round"/>
<path d="M206.209 337.882C211.205 337.882 215.254 334.911 215.254 331.246C215.254 327.581 211.205 324.609 206.209 324.609C201.214 324.609 197.165 327.581 197.165 331.246C197.165 334.911 201.214 337.882 206.209 337.882Z" stroke="#171717" stroke-width="3.512" stroke-linecap="round" stroke-linejoin="round"/>
<path d="M278.932 337.882C283.927 337.882 287.976 334.911 287.976 331.246C287.976 327.581 283.927 324.609 278.932 324.609C273.937 324.609 269.887 327.581 269.887 331.246C269.887 334.911 273.937 337.882 278.932 337.882Z" stroke="#171717" stroke-width="3.512" stroke-linecap="round" stroke-linejoin="round"/>
<path d="M266.984 321.567C271.98 321.567 276.029 318.596 276.029 314.931C276.029 311.265 271.98 308.294 266.984 308.294C261.99 308.294 257.94 311.265 257.94 314.931C257.94 318.596 261.99 321.567 266.984 321.567Z" stroke="#171717" stroke-width="3.512" stroke-linecap="round" stroke-linejoin="round"/>
<path d="M217.118 356.373C222.113 356.373 226.162 353.401 226.162 349.736C226.162 346.07 222.113 343.099 217.118 343.099C212.123 343.099 208.073 346.07 208.073 349.736C208.073 353.401 212.123 356.373 217.118 356.373Z" stroke="#171717" stroke-width="3.512" stroke-linecap="round" stroke-linejoin="round"/>
<path d="M217.118 320.48C222.113 320.48 226.162 317.508 226.162 313.843C226.162 310.178 222.113 307.207 217.118 307.207C212.123 307.207 208.073 310.178 208.073 313.843C208.073 317.508 212.123 320.48 217.118 320.48Z" stroke="#171717" stroke-width="3.512" stroke-linecap="round" stroke-linejoin="round"/>
<path d="M267.504 356.373C272.499 356.373 276.548 353.401 276.548 349.736C276.548 346.07 272.499 343.099 267.504 343.099C262.509 343.099 258.459 346.07 258.459 349.736C258.459 353.401 262.509 356.373 267.504 356.373Z" stroke="#171717" stroke-width="3.512" stroke-linecap="round" stroke-linejoin="round"/>
<path d="M119.713 378.419H111.256V384.814H119.713V378.419Z" fill="#171717"/>
<g opacity="0.1">
<path d="M233.389 143.086C230.614 143.078 229.968 146.283 228.942 148.375L230.565 147.069C229.367 147.597 228.694 148.602 227.559 149.12C226.573 149.569 225.385 149.6 224.326 149.684C221.069 149.896 217.835 150.394 214.658 151.173C211.417 152.027 208.257 153.186 205.215 154.633C202.242 156.033 198.849 157.607 196.393 159.859C192.74 163.211 197.495 169.64 201.585 166.905C203.298 165.759 204.688 164.198 206.409 163.036C211.254 159.798 216.695 157.66 222.38 156.761C225.469 156.242 228.756 156.229 231.444 154.322C232.186 153.812 232.828 153.16 233.336 152.398C234.054 151.292 233.796 150.666 233.963 149.471C234.126 150.023 234.2 149.885 234.185 149.057C234.242 148.529 234.242 147.995 234.185 147.466C234.315 146.608 234.496 145.759 234.726 144.924C234.778 144.708 234.784 144.484 234.742 144.266C234.699 144.049 234.611 143.844 234.482 143.667C234.354 143.491 234.189 143.347 234 143.247C233.811 143.147 233.602 143.092 233.39 143.088L233.389 143.086Z" fill="#171717"/>
</g>
<g opacity="0.1">
<path d="M156.327 201.866C151.992 210.687 158.132 222.259 164.689 227.905C172.79 234.88 184.343 236.786 194.195 233.129C196.587 232.241 198.186 229.769 197.479 227.074C196.843 224.649 194.101 222.744 191.697 223.636C188.134 224.977 184.312 225.388 180.563 224.832C176.815 224.276 173.252 222.771 170.185 220.447C167.357 218.281 165.018 215.491 163.333 212.275C161.514 208.887 160.208 205.264 158.411 201.866C158.303 201.677 158.15 201.522 157.967 201.414C157.785 201.306 157.579 201.249 157.369 201.249C157.159 201.249 156.953 201.306 156.771 201.414C156.588 201.522 156.435 201.677 156.327 201.866L156.327 201.866Z" fill="#171717"/>
</g>
<g opacity="0.1">
<path d="M201.034 240.599C198.474 241.929 198.325 245.739 198.168 248.368C197.976 251.582 198 254.828 197.995 258.047C197.985 264.347 198.044 270.646 198.102 276.946C198.16 283.08 207.291 283.094 207.213 276.946C207.124 270.03 207.025 263.117 206.863 256.203C206.79 253.137 207.277 237.355 201.034 240.599Z" fill="#171717"/>
</g>
<g opacity="0.1">
<path d="M242.11 139.867C242.52 131.333 242.199 122.798 241.991 114.262C241.885 109.995 241.76 105.728 241.675 101.459C241.576 99.8125 241.657 98.1595 241.916 96.5321C242.209 95.0788 242.892 93.7204 243.344 92.3155C243.777 90.9645 242.294 90.1645 241.266 90.643C238.353 91.9991 237.879 95.6893 237.756 98.7058C237.576 103.105 237.944 107.577 238.073 111.975C238.347 121.28 238.461 130.605 239.405 139.867C239.586 141.651 242.02 141.721 242.108 139.867L242.11 139.867Z" fill="#171717"/>
</g>
</g>
</g>
<defs>
<linearGradient id="paint0_linear_1520_4243" x1="242.753" y1="295.243" x2="242.753" y2="369.97" gradientUnits="userSpaceOnUse">
<stop stop-color="#B1E938"/>
<stop offset="1" stop-color="#ABF600"/>
</linearGradient>
<linearGradient id="paint1_linear_1520_4243" x1="285.958" y1="66.3639" x2="285.958" y2="279.368" gradientUnits="userSpaceOnUse">
<stop stop-color="#B1E938"/>
<stop offset="1" stop-color="#ABF600"/>
</linearGradient>
<linearGradient id="paint2_linear_1520_4243" x1="233.464" y1="388.139" x2="233.464" y2="420.388" gradientUnits="userSpaceOnUse">
<stop stop-color="#B1E938"/>
<stop offset="1" stop-color="#ABF600"/>
</linearGradient>
<linearGradient id="paint3_linear_1520_4243" x1="249.919" y1="141.867" x2="249.919" y2="152.764" gradientUnits="userSpaceOnUse">
<stop stop-color="#B1E938"/>
<stop offset="1" stop-color="#ABF600"/>
</linearGradient>
<linearGradient id="paint4_linear_1520_4243" x1="242.752" y1="322.879" x2="242.752" y2="342.332" gradientUnits="userSpaceOnUse">
<stop stop-color="#B1E938"/>
<stop offset="1" stop-color="#ABF600"/>
</linearGradient>
<linearGradient id="paint5_linear_1520_4243" x1="218.067" y1="238.796" x2="218.067" y2="279.594" gradientUnits="userSpaceOnUse">
<stop stop-color="#B1E938"/>
<stop offset="1" stop-color="#ABF600"/>
</linearGradient>
<linearGradient id="paint6_linear_1520_4243" x1="222.547" y1="265.542" x2="222.547" y2="273.112" gradientUnits="userSpaceOnUse">
<stop stop-color="#B1E938"/>
<stop offset="1" stop-color="#ABF600"/>
</linearGradient>
<linearGradient id="paint7_linear_1520_4243" x1="176.298" y1="190.381" x2="176.298" y2="234.078" gradientUnits="userSpaceOnUse">
<stop stop-color="#B1E938"/>
<stop offset="1" stop-color="#ABF600"/>
</linearGradient>
</defs>
</svg>
