<svg width="428" height="428" viewBox="0 0 428 428" fill="none" xmlns="http://www.w3.org/2000/svg">
<path d="M389.458 157.908L382.463 163.286L382.538 172.391L375.709 167.061L367.607 170.123L370.379 161.455L365.291 154.252L373.835 154.217L378.792 146.703L381.301 155.351L389.458 157.908Z" fill="url(#paint0_linear_1509_2812)"/>
<path d="M319.576 55.253C319.762 56.6931 319.592 58.1563 319.083 59.5161C318.573 60.8754 317.739 62.0899 316.654 63.0538C315.568 64.0172 314.263 64.7016 312.852 65.0457C311.442 65.3904 309.969 65.3855 308.561 65.0306C307.153 64.6761 305.853 63.9833 304.774 63.0118C303.695 62.0404 302.87 60.8201 302.37 59.4568C301.871 58.0939 301.712 56.6293 301.907 55.1906C302.102 53.7519 302.646 52.3827 303.49 51.2022C307.235 45.9694 315.062 46.64 318.401 51.9213C319.027 52.9351 319.428 54.0711 319.576 55.253Z" fill="#171717"/>
<path d="M307.071 138.034L306.705 138.013C306.954 134.004 306.988 129.296 305.724 124.063L305.807 124.042C309.832 124.033 313.853 123.788 317.849 123.309C317.144 125.231 316.909 127.285 316.68 129.317C316.287 132.746 315.897 136.177 315.512 139.61C313.01 138.442 310.01 139.133 307.39 138.296C307.326 138.284 307.265 138.259 307.211 138.222C307.157 138.185 307.112 138.137 307.078 138.082C307.072 138.067 307.07 138.05 307.071 138.034Z" fill="url(#paint1_linear_1509_2812)"/>
<path d="M307.39 138.298C310.01 139.135 313.01 138.443 315.512 139.611C315.898 136.176 316.288 132.745 316.68 129.318C316.909 127.286 317.144 125.233 317.849 123.311C313.852 123.79 309.831 124.035 305.807 124.044L305.724 124.065C305.133 121.61 304.306 119.219 303.256 116.924L303.228 116.682C308.744 112.873 314.226 105.545 318.706 97.6165C321.186 93.2255 323.364 88.6709 325.225 83.9843C325.418 83.5006 325.605 83.0168 325.785 82.5398L326.227 82.6985C335.421 100.041 339.251 123.609 326.739 140.289C322.902 145.812 316.632 153.084 309.56 151.674C309.049 151.578 308.547 151.437 308.06 151.253C305.275 149.103 306.284 144.458 306.705 138.015L307.072 138.035C307.07 138.052 307.073 138.068 307.079 138.084C307.113 138.139 307.158 138.186 307.212 138.223C307.265 138.26 307.326 138.285 307.39 138.298Z" fill="url(#paint2_linear_1509_2812)"/>
<path d="M296.474 81.5291C308.806 71.1412 308.966 87.8403 306.083 103.553L305.806 103.505C303.637 102.816 301.606 101.752 299.806 100.359C297.711 105.751 295.373 111.041 292.789 116.231C295.875 117.257 298.836 118.626 301.617 120.309L301.672 120.33C300.87 122.459 300.103 124.049 299.447 124.858C296.294 130.277 293.819 137.564 287.867 140.356C280.934 141.414 278.107 132.994 278.252 127.229C278.374 121.497 279.296 115.811 280.99 110.334C281.017 110.245 281.052 110.148 281.079 110.051C284.28 99.6544 289.9 89.8452 296.474 81.5291Z" fill="url(#paint3_linear_1509_2812)"/>
<path d="M292.79 116.231C295.369 111.053 297.707 105.763 299.806 100.359C301.606 101.752 303.637 102.817 305.807 103.505L306.083 103.553C305.281 107.955 304.231 112.308 302.938 116.591C302.516 117.959 302.088 119.218 301.673 120.33L301.617 120.31C298.836 118.626 295.875 117.258 292.79 116.231Z" fill="url(#paint4_linear_1509_2812)"/>
<path d="M298.313 35.0471C305.585 22.9499 314.344 14.4679 323.681 19.1893C333.587 24.2013 335.384 35.4827 334.243 47.3105L334.209 47.3034C332.377 44.9601 329.771 43.3494 327.13 41.9807C318.237 37.3933 308.366 35.024 298.359 35.0747L298.313 35.0471Z" fill="url(#paint5_linear_1509_2812)"/>
<path d="M279.296 87.8951C279.013 95.2434 279.78 102.758 280.61 109.905L281.08 110.051C281.052 110.148 281.018 110.244 280.99 110.334L280.417 110.156C268.015 108.338 261.946 119.896 261.144 130.575C260.611 131.199 259.609 130.782 258.966 130.291C258.147 129.644 257.39 128.923 256.705 128.135C250.761 121.277 251.479 110.658 253.865 102.26C254.194 100.448 254.663 98.6634 255.268 96.9233C258.095 99.0526 260.992 101.085 263.957 103.02C266.495 99.2924 268.823 95.4266 270.933 91.4404L263.22 84.5135L262.895 84.2304C268.067 78.5273 274.888 74.1929 282.313 71.1791L282.375 71.1996C282.251 71.5451 282.133 71.8772 282.023 72.2018C280.999 75.1898 280.274 78.2718 279.859 81.4029C279.563 83.5563 279.375 85.723 279.296 87.8951Z" fill="url(#paint6_linear_1509_2812)"/>
<path d="M257.639 293.62C267.6 295.825 275.517 288.339 275.163 278.785H275.176C277.755 284.495 277.423 291.297 274.909 297.035C272.395 302.772 267.837 307.473 262.521 310.798C261.212 311.644 259.82 312.355 258.367 312.921C257.613 313.201 256.838 313.425 256.051 313.589L255.878 313.582C256.056 306.911 256.445 300.247 256.894 293.57L257.639 293.62Z" fill="url(#paint7_linear_1509_2812)"/>
<path d="M268.644 409.402C258.285 407.512 248.176 404.448 238.511 400.269L238.165 400.11C238.519 399.749 238.832 399.351 239.098 398.921C239.667 397.958 240.027 396.887 240.156 395.776L240.308 395.797C241.297 396.011 242.27 396.253 243.246 396.523C246.129 397.311 248.97 398.306 251.811 399.274C253.657 399.91 255.512 400.532 257.384 401.085C259.602 401.757 261.863 402.279 264.152 402.645C265.214 402.817 266.285 402.925 267.359 402.97C269.328 403.077 271.3 402.826 273.18 402.231C276.062 401.27 278.669 399.099 279.555 396.189C280.184 394.136 279.929 391.909 279.5 389.801C279.196 388.322 278.787 386.795 277.8 385.64C277.355 385.138 276.832 384.71 276.251 384.375C275.508 383.947 274.731 383.579 273.928 383.276C270.778 381.998 267.577 380.839 264.327 379.798C263.649 379.575 262.972 379.363 262.287 379.155L262.246 378.907C268.453 377.865 274.557 376.282 280.489 374.178C283.613 376.846 286.772 379.57 289.109 382.951C291.487 386.386 292.973 390.645 292.268 394.765C291.826 397.344 290.567 399.701 289.268 401.969C288.252 403.745 287.172 405.529 285.659 406.904C283.454 408.902 280.475 409.884 277.509 410.126C274.544 410.368 271.568 409.927 268.644 409.402Z" fill="url(#paint8_linear_1509_2812)"/>
<path d="M263.217 84.5153L270.932 91.4409C268.823 95.4262 266.495 99.2915 263.958 103.02C260.992 101.091 258.096 99.0584 255.268 96.9224C256.923 92.2188 259.517 87.9005 262.892 84.2308L263.217 84.5153Z" fill="url(#paint9_linear_1509_2812)"/>
<path d="M227.083 86.6169L231.183 94.7396L222.701 92.9906L216.79 99.3227L215.436 90.3223L207.679 86.1189L215.332 82.3035L216.445 73.365L222.528 80.0083L230.968 78.6949L227.083 86.6169Z" fill="url(#paint10_linear_1509_2812)"/>
<path d="M206.019 186.196C202.176 184.917 198.539 182.884 194.537 182.186C181.596 179.773 175.229 190.267 177.269 202.019C177.587 204.404 176.501 206.242 174.939 207.943C174.538 208.386 174.11 208.814 173.661 209.243C166.304 214.614 167.072 202.973 169.706 198.113C170.057 197.71 170.363 197.269 170.619 196.8C170.256 197.194 169.949 197.636 169.706 198.113C167.722 200.422 164.204 201.903 161.957 199.288C160.332 193.924 168.22 185.041 171.206 183.202C158.466 182.815 167.114 168.388 175.631 173.158C169.969 161.634 182.204 155.406 186.29 168.278C183.207 155.247 197.046 153.194 195.712 167.047C197.993 151.175 211.826 155.53 204.118 170.441C215.054 155.129 225.734 169.867 209.137 177.25C221.531 173.151 224.628 188.649 210.222 187.184C208.791 186.998 207.383 186.667 206.019 186.196Z" fill="#171717"/>
<path d="M205.253 239.216C204.562 241.967 201.728 241.4 194.725 241.248C186.9 240.902 178.764 242.576 171.111 240.716C170.711 240.387 170.418 239.947 170.267 239.451C169.624 237.495 170.71 234.626 170.613 232.649C170.655 231.315 171.498 230.223 172.887 230.533C173.806 230.644 174.719 230.734 175.638 230.796C181.639 231.287 187.591 231.093 193.605 231.121C194.069 231.121 194.532 231.121 194.995 231.128C199.025 231.17 204.714 230.229 205.136 233.672C205.461 236.299 205.55 238.055 205.253 239.216Z" fill="url(#paint11_linear_1509_2812)"/>
<path d="M160.341 377.859C162.208 376.538 164.072 375.218 165.934 373.898C166.549 373.463 167.164 373.027 167.772 372.599C168.331 373.951 169.285 375.102 170.51 375.903L170.344 376.158C164.337 381.488 157.524 385.833 150.157 389.03C148.007 389.963 145.705 390.807 143.382 390.517C142.02 390.308 140.718 389.808 139.566 389.051C136.262 386.97 134.002 383.611 132.066 380.223C131.153 378.618 130.276 376.961 129.923 375.149C129.398 372.439 130.102 369.605 131.382 367.165C132.661 364.718 134.486 362.61 136.338 360.57C140.892 355.559 145.73 350.814 150.828 346.358C153.019 344.436 155.369 342.514 158.211 341.878C160.603 341.339 163.098 341.774 165.511 342.224C166.762 343.302 167.994 344.401 169.209 345.523C169.306 345.509 169.402 345.502 169.499 345.488C172.216 345.157 174.953 344.894 177.691 344.68L177.712 344.908C173.521 346.926 170.82 350.825 169.112 355.242L169.023 355.208C167.642 355.417 166.276 355.71 164.931 356.086C162.915 356.643 160.939 357.331 159.014 358.146C157.479 358.782 155.965 359.48 154.472 360.22C154.389 360.261 154.299 360.302 154.216 360.344C152.063 361.366 150.009 362.583 148.077 363.98C147.404 364.487 146.763 365.034 146.156 365.619C143.84 367.865 142.099 370.851 141.932 374.073C141.765 377.294 143.418 380.695 146.343 382.05C147.231 382.446 148.185 382.673 149.156 382.719C150.592 382.768 152.023 382.53 153.367 382.021C154.405 381.629 155.402 381.138 156.346 380.555C157.452 379.898 158.516 379.145 159.574 378.398L160.341 377.859Z" fill="url(#paint12_linear_1509_2812)"/>
<path d="M161.267 148.617L160.099 148.866C150.753 154.079 141.407 159.295 132.061 164.515C126.78 168.061 123.448 166.934 118.505 164.072C117.51 157.823 124.367 151.028 122.618 148.318C112.249 138.343 78.1135 177.642 77.0007 165.904C78.4109 156.233 82.8349 147.212 85.6557 137.894C78.155 138.032 72.4176 145.781 64.6824 146.576C60.2927 127.45 73.8968 107.961 86.25 94.3847C107.223 89.4359 130.521 95.4422 147.698 118.772C146.869 119.888 146.19 121.108 145.679 122.401C141.649 133.627 150.271 139.648 157.761 137.236L157.907 137.699C159.374 141.223 160.499 144.879 161.267 148.617Z" fill="url(#paint13_linear_1509_2812)"/>
<path d="M153.256 296.744L153.269 296.668C156.289 287.493 158.294 278.015 159.249 268.402C151.244 269.549 143.516 272.024 138.822 278.751C132.393 289.907 143.758 295.251 153.256 296.744ZM161.281 302.489C172.438 290.481 163.97 286.14 156.166 299.184H156.158C156.172 305.821 156.483 312.54 156.697 319.183C156.732 320.172 156.76 321.16 156.787 322.142C155.363 322.365 153.918 322.612 152.459 322.874C148.809 323.531 145.049 324.256 141.269 324.844C130.962 326.462 120.461 327.077 111.26 322.437C110.948 322.278 110.638 322.119 110.327 321.946C92.2434 306.545 99.6745 273.44 116.391 259.621C131.82 247.704 151.632 243.894 170.234 239.457L170.269 239.449C170.419 239.945 170.713 240.385 171.112 240.715C178.764 242.574 186.901 240.902 194.726 241.247C201.729 241.399 204.563 241.966 205.255 239.215C209.133 239.046 213.019 239.19 216.875 239.643L216.992 239.699C215.983 241.952 215.942 244.634 217.421 247.42C211.372 243.922 204.591 251.941 204.66 257.734C194.858 257.837 185.124 257.651 175.626 257.16C175.384 272.258 173.546 287.286 171.926 302.323C168.408 302.26 164.613 301.21 161.281 302.489H161.281Z" fill="url(#paint14_linear_1509_2812)"/>
<path d="M100.663 63.8251L107.099 71.9129L98.2505 70.3436L92.7342 77.2152L92.5269 67.883L83.0356 65.5188L90.2456 60.196L90.3562 50.9949L96.806 58.3569L105.391 57.1336L100.663 63.8251Z" fill="url(#paint15_linear_1509_2812)"/>
<path d="M92.6236 219.142L92.6098 219.259C76.2888 216.888 61.1291 208.717 49.4188 196.039C56.2401 193.44 63.1612 186.804 70.6619 188.249C69.2276 190.802 68.5424 193.708 68.6846 196.634C84.2442 197.968 95.921 166.148 104.189 170.78C99.8751 179.656 94.2206 188.076 90.6602 197.228C91.8216 206.443 107.417 194.387 110.535 190.785C115.401 186.513 122.21 179.538 128.757 181.889C122.224 197.809 106.159 208.606 92.6236 219.142Z" fill="url(#paint16_linear_1509_2812)"/>
<path d="M169.707 198.113C167.074 202.973 166.307 214.614 173.661 209.243C174.111 208.814 174.54 208.386 174.941 207.943C176.501 206.242 177.588 204.404 177.27 202.019C175.231 190.267 181.598 179.772 194.538 182.186C198.541 182.884 202.177 184.917 206.02 186.196C207.384 186.667 208.793 186.998 210.223 187.184C224.63 188.649 221.533 173.151 209.138 177.25C225.736 169.867 215.055 155.129 204.119 170.441C211.827 155.53 197.995 151.175 195.713 167.047C197.048 153.194 183.208 155.247 186.291 168.278C182.206 155.406 169.97 161.635 175.632 173.158C167.116 168.388 158.467 182.815 171.208 183.202C168.221 185.041 160.334 193.924 161.958 199.288C164.205 201.901 167.723 200.422 169.707 198.113Z" stroke="#171717" stroke-width="4.652" stroke-linecap="round" stroke-linejoin="round"/>
<path d="M169.707 198.113C170.059 197.709 170.365 197.269 170.62 196.799C170.258 197.193 169.951 197.636 169.707 198.113Z" stroke="#171717" stroke-width="4.652" stroke-linecap="round" stroke-linejoin="round"/>
<path d="M200.097 189.887C181.66 181.073 201.679 208.351 191.456 207.675" stroke="#171717" stroke-width="4.652" stroke-linecap="round" stroke-linejoin="round"/>
<path d="M186.769 193.696C185.977 193.135 185.021 192.855 184.052 192.901C183.09 192.952 182.15 193.206 181.294 193.647" stroke="#171717" stroke-width="4.652" stroke-linecap="round" stroke-linejoin="round"/>
<path d="M196.267 194.857C196.595 194.598 196.979 194.42 197.389 194.34C197.799 194.259 198.222 194.278 198.624 194.394C199.423 194.634 200.164 195.036 200.802 195.575" stroke="#171717" stroke-width="4.652" stroke-linecap="round" stroke-linejoin="round"/>
<path d="M180.761 212.014C181.186 213.187 181.982 214.189 183.028 214.868C183.554 215.2 184.147 215.411 184.764 215.485C185.381 215.559 186.006 215.494 186.595 215.296" stroke="#171717" stroke-width="4.652" stroke-linecap="round" stroke-linejoin="round"/>
<path d="M206.02 186.161V186.196C205.591 193.426 205.16 200.659 204.727 207.895C205.28 221.9 192.74 217.22 193.604 231.052" stroke="#171717" stroke-width="4.652" stroke-linecap="round" stroke-linejoin="round"/>
<path d="M174.92 207.798L174.941 207.942C175.919 215.276 176.174 222.688 175.702 230.071" stroke="#171717" stroke-width="4.652" stroke-linecap="round" stroke-linejoin="round"/>
<path d="M175.639 230.796C174.719 230.734 173.807 230.644 172.888 230.533C171.498 230.221 170.655 231.315 170.614 232.649C170.711 234.626 169.625 237.495 170.268 239.451C170.419 239.947 170.712 240.387 171.111 240.716C178.764 242.576 186.9 240.903 194.725 241.248C201.728 241.4 204.562 241.967 205.254 239.216C205.551 238.057 205.461 236.299 205.136 233.672C204.714 230.229 199.025 231.169 194.995 231.128C194.532 231.121 194.069 231.121 193.605 231.121C187.591 231.093 181.639 231.287 175.639 230.796Z" stroke="#171717" stroke-width="4.652" stroke-linecap="round" stroke-linejoin="round"/>
<path d="M170.233 239.458C151.631 243.895 131.819 247.705 116.39 259.622C99.6745 273.443 92.2434 306.546 110.326 321.947C110.638 322.12 110.948 322.28 111.259 322.438C120.461 327.074 130.961 326.461 141.268 324.845C145.049 324.258 148.81 323.532 152.459 322.875C153.917 322.613 155.362 322.364 156.786 322.143C156.758 321.162 156.73 320.173 156.697 319.184C156.482 312.541 156.171 305.821 156.157 299.185C156.15 298.487 156.15 297.788 156.157 297.09C155.224 297.014 154.249 296.903 153.254 296.744C143.758 295.251 132.391 289.907 138.82 278.75C143.514 272.024 151.242 269.549 159.247 268.401C163.54 267.786 167.916 267.551 171.932 267.247" stroke="#171717" stroke-width="4.652" stroke-linecap="round" stroke-linejoin="round"/>
<path d="M156.166 299.185C163.968 286.14 172.439 290.481 161.281 302.489C164.613 301.21 168.408 302.261 171.927 302.323C172.093 302.33 172.251 302.33 172.41 302.33" stroke="#171717" stroke-width="4.652" stroke-linecap="round" stroke-linejoin="round"/>
<path d="M156.656 319.176C156.67 319.176 156.684 319.183 156.698 319.183C161.164 320.082 165.627 320.983 170.088 321.886C170.222 321.906 170.351 321.934 170.482 321.962" stroke="#171717" stroke-width="4.652" stroke-linecap="round" stroke-linejoin="round"/>
<path d="M170.164 315.09C167.806 314.434 165.416 313.901 163.002 313.494" stroke="#171717" stroke-width="4.652" stroke-linecap="round" stroke-linejoin="round"/>
<path d="M171.125 307.673C168.887 307.05 166.603 306.609 164.295 306.353" stroke="#171717" stroke-width="4.652" stroke-linecap="round" stroke-linejoin="round"/>
<path d="M204.666 257.901C204.667 257.846 204.665 257.791 204.659 257.735C204.59 251.942 211.371 243.923 217.42 247.421C215.941 244.635 215.982 241.953 216.991 239.7C219.087 235.006 225.363 232.186 230.748 234.252C230.837 234.287 230.934 234.322 231.024 234.363" stroke="#171717" stroke-width="4.652" stroke-linecap="round" stroke-linejoin="round"/>
<path d="M229.573 237.902C229.794 236.637 230.19 235.409 230.748 234.252C231.296 233.015 232.291 232.03 233.534 231.494C234.067 231.28 234.632 231.156 235.206 231.128" stroke="#171717" stroke-width="4.652" stroke-linecap="round" stroke-linejoin="round"/>
<path d="M251.645 194.256C250.474 193.804 249.249 193.504 248.002 193.364C235.774 191.961 226.033 206.892 234.363 216.3C235.19 217.226 236.125 218.05 237.149 218.753" stroke="#171717" stroke-width="4.652" stroke-linecap="round" stroke-linejoin="round"/>
<path d="M263.555 156.394C262.175 156.615 260.837 157.046 259.587 157.673C251.458 161.8 250.448 173.517 254.576 181.709C255.061 182.682 255.63 183.612 256.276 184.488" stroke="#171717" stroke-width="4.652" stroke-linecap="round" stroke-linejoin="round"/>
<path d="M309.553 151.659C309.553 151.666 309.553 151.666 309.56 151.672C313.514 167.786 301.016 184.294 285.373 178.923C283.605 178.306 281.916 177.482 280.34 176.471" stroke="#171717" stroke-width="4.652" stroke-linecap="round" stroke-linejoin="round"/>
<path d="M271.505 230.624C272.381 230.694 273.262 230.699 274.139 230.638C292.499 229.545 295.465 201.825 278.024 197.318C276.457 196.925 274.849 196.72 273.233 196.71" stroke="#171717" stroke-width="4.652" stroke-linecap="round" stroke-linejoin="round"/>
<path d="M269.625 275.529C271.348 275.989 273.124 276.217 274.907 276.207C291.034 275.916 287.467 250.353 272.701 246.779C271.505 246.487 270.277 246.348 269.046 246.364" stroke="#171717" stroke-width="4.652" stroke-linecap="round" stroke-linejoin="round"/>
<path d="M277.928 197.511C277.964 197.449 277.996 197.384 278.024 197.318C278.864 195.598 279.188 193.673 278.959 191.773C278.73 189.873 277.956 188.081 276.731 186.61" stroke="#171717" stroke-width="4.652" stroke-linecap="round" stroke-linejoin="round"/>
<path d="M271.844 187.764C273.49 187.461 275.118 187.065 276.718 186.575C280.637 185.331 284.191 183.236 285.373 178.923C285.379 178.902 285.386 178.874 285.394 178.854" stroke="#171717" stroke-width="4.652" stroke-linecap="round" stroke-linejoin="round"/>
<path d="M254.735 181.612C254.679 181.646 254.631 181.674 254.576 181.709C250.864 183.97 248.5 189.119 248.009 193.308" stroke="#171717" stroke-width="4.652" stroke-linecap="round" stroke-linejoin="round"/>
<path d="M234.363 216.3C229.338 219.749 231.031 226.828 233.506 231.425" stroke="#171717" stroke-width="4.652" stroke-linecap="round" stroke-linejoin="round"/>
<path d="M256.823 128.043C256.781 128.071 256.74 128.106 256.706 128.132C245.292 136.711 250.021 149.541 259.554 157.277" stroke="#171717" stroke-width="4.652" stroke-linecap="round" stroke-linejoin="round"/>
<path d="M272.66 246.854C272.673 246.827 272.687 246.806 272.701 246.779C275.279 241.953 275.038 235.912 274.139 230.637C274.132 230.61 274.132 230.582 274.125 230.554" stroke="#171717" stroke-width="4.652" stroke-linecap="round" stroke-linejoin="round"/>
<path d="M257.639 293.62C267.6 295.825 275.517 288.338 275.163 278.784C275.137 277.994 275.053 277.206 274.913 276.427" stroke="#171717" stroke-width="4.652" stroke-linecap="round" stroke-linejoin="round"/>
<path d="M319.729 190.378C319.107 188.776 318.169 187.316 316.971 186.085C310.252 179.263 297.339 183.112 295.59 193.793C290.474 207.493 302.946 219.819 314.026 211.365C315.01 210.607 315.92 209.758 316.743 208.828" stroke="#171717" stroke-width="4.652" stroke-linecap="round" stroke-linejoin="round"/>
<path d="M307.397 239.7C306.738 239.255 306.027 238.89 305.281 238.614C296.267 235.276 287.564 247.905 293.177 256.138C298.661 265.685 313.646 262.581 315.63 252.378C315.746 251.773 315.815 251.161 315.837 250.546" stroke="#171717" stroke-width="4.652" stroke-linecap="round" stroke-linejoin="round"/>
<path d="M314.005 211.33C314.012 211.344 314.019 211.35 314.026 211.364C324.188 228.301 341.435 209.65 340.184 195.845C339.47 184.792 325.349 178.874 316.971 186.084C316.947 186.109 316.922 186.132 316.895 186.154" stroke="#171717" stroke-width="4.652" stroke-linecap="round" stroke-linejoin="round"/>
<path d="M315.636 252.378C325.003 255.543 334.377 242.195 328.445 234.418C322.445 227.202 308.226 228.923 305.391 238.331" stroke="#171717" stroke-width="4.652" stroke-linecap="round" stroke-linejoin="round"/>
<path d="M248.099 176.655C247.124 168.056 230.596 168.574 231.902 178.107C232.547 191.898 248.486 188.933 248.099 176.655Z" stroke="#171717" stroke-width="4.652" stroke-linecap="round" stroke-linejoin="round"/>
<path d="M246.031 154.5C253.38 140.958 235.911 138.746 232.121 149.723C231.655 157.058 242.05 161.219 246.031 154.5Z" stroke="#171717" stroke-width="4.652" stroke-linecap="round" stroke-linejoin="round"/>
<path d="M282.31 71.1804C274.886 74.1943 268.063 78.5286 262.892 84.2317C259.517 87.9018 256.923 92.2197 255.269 96.9233C254.664 98.6634 254.195 100.448 253.866 102.26C251.48 110.659 250.762 121.277 256.706 128.135C257.391 128.923 258.148 129.644 258.967 130.291C259.61 130.782 260.612 131.197 261.145 130.575C261.947 119.894 268.016 108.337 280.418 110.156" stroke="#171717" stroke-width="4.652" stroke-linecap="round" stroke-linejoin="round"/>
<path d="M326.227 82.6967C335.421 100.04 339.251 123.607 326.739 140.287C322.902 145.811 316.632 153.083 309.56 151.673C309.049 151.577 308.547 151.435 308.06 151.251C305.275 149.101 306.284 144.456 306.705 138.013C306.954 134.004 306.989 129.296 305.724 124.063C305.134 121.609 304.307 119.218 303.256 116.922" stroke="#171717" stroke-width="4.652" stroke-linecap="round" stroke-linejoin="round"/>
<path d="M306.083 103.553C308.966 87.8403 308.806 71.1389 296.474 81.5291C289.9 89.8452 284.28 99.6544 281.079 110.051C281.051 110.148 281.017 110.245 280.99 110.335C279.296 115.811 278.374 121.498 278.252 127.229C278.107 132.995 280.935 141.414 287.868 140.357C293.82 137.564 296.294 130.278 299.447 124.858C300.104 124.05 300.871 122.46 301.673 120.33C302.088 119.216 302.516 117.959 302.938 116.591C304.231 112.308 305.281 107.955 306.083 103.553Z" stroke="#171717" stroke-width="4.652" stroke-linecap="round" stroke-linejoin="round"/>
<path d="M303.228 116.68C308.744 112.871 314.226 105.543 318.706 97.6148C321.186 93.2242 323.364 88.6696 325.225 83.9825C325.418 83.4988 325.605 83.0151 325.785 82.538C326.635 80.2843 327.34 78.1483 327.872 76.192C329.884 68.8358 333.237 57.8522 334.248 47.3105C335.389 35.4827 333.591 24.2013 323.685 19.1893C314.346 14.4679 305.588 22.9499 298.317 35.0471C295.295 40.1877 292.596 45.5116 290.236 50.9882C287.913 56.2762 285.881 61.5161 284.188 66.1407H284.18C283.531 67.9312 282.923 69.6316 282.377 71.2009C282.252 71.5464 282.134 71.8786 282.024 72.2032C281 75.1911 280.275 78.2732 279.86 81.4043C279.565 83.5572 279.378 85.7235 279.3 87.8952C279.017 95.2438 279.784 102.758 280.614 109.905" stroke="#171717" stroke-width="4.652" stroke-linecap="round" stroke-linejoin="round"/>
<path d="M111.924 322.398L111.26 322.439C102.28 322.985 93.1279 323.656 84.8533 327.181C76.3851 330.79 68.8777 338.069 67.5995 347.187C66.6187 354.238 69.4867 361.434 74.0561 366.888C78.6254 372.35 84.7498 376.276 91.0477 379.587C105.247 387.046 120.74 391.774 136.395 395.224C166.376 401.833 197.249 403.892 227.934 403.105C231.57 403.007 235.725 402.586 238.165 400.111C238.519 399.75 238.832 399.351 239.098 398.922C239.667 397.959 240.027 396.888 240.156 395.777C240.283 394.829 240.327 393.871 240.287 392.915C240.196 389.444 239.59 386.005 238.49 382.712" stroke="#171717" stroke-width="4.652" stroke-linecap="round" stroke-linejoin="round"/>
<path d="M256.049 316.826C266.335 315.975 276.958 315.948 286.652 319.522C296.336 323.088 304.991 330.859 307.189 340.951C307.438 342.104 307.604 343.273 307.687 344.449C308.123 350.505 306.263 356.768 302.274 361.344C300.083 363.853 297.332 365.81 294.484 367.545C290.048 370.213 285.358 372.436 280.484 374.181C274.553 376.285 268.449 377.867 262.241 378.909C256.505 379.887 250.723 380.577 244.918 380.976C244.047 381.045 243.176 381.101 242.305 381.154C241.012 381.237 239.713 381.307 238.42 381.369C217.224 382.408 195.978 381.071 175.079 377.381C173.613 377.126 172.12 376.842 170.827 376.103C170.718 376.043 170.611 375.976 170.509 375.902C169.285 375.102 168.331 373.95 167.772 372.598C166.514 369.75 166.576 366.031 167.103 362.83C167.515 360.239 168.189 357.696 169.114 355.24C170.821 350.823 173.524 346.924 177.713 344.906" stroke="#171717" stroke-width="4.652" stroke-linecap="round" stroke-linejoin="round"/>
<path d="M175.625 257.162C185.121 257.652 194.856 257.839 204.658 257.736C222.963 257.554 241.24 256.315 259.401 254.023C258.938 267.323 257.776 280.464 256.891 293.569C256.442 300.246 256.055 306.911 255.875 313.581C255.841 314.66 255.82 315.738 255.799 316.817C255.606 325.287 255.886 333.762 256.636 342.2C230.754 345.159 203.774 342.622 177.692 344.676C174.954 344.89 172.217 345.152 169.5 345.484C169.403 345.498 169.307 345.505 169.21 345.519C167.993 344.399 166.76 343.299 165.512 342.219C157.999 335.713 149.887 329.933 141.284 324.955" stroke="#171717" stroke-width="4.652" stroke-linecap="round" stroke-linejoin="round"/>
<path d="M175.625 257.162C175.383 272.26 173.545 287.288 171.925 302.325C171.22 308.843 170.563 315.362 170.086 321.888C169.774 326.174 169.54 330.467 169.429 334.766C169.353 338.133 169.34 341.507 169.429 344.887" stroke="#171717" stroke-width="4.652" stroke-linecap="round" stroke-linejoin="round"/>
<path d="M152.481 322.985C158.032 326.96 163.62 330.884 169.245 334.758" stroke="#171717" stroke-width="4.652" stroke-linecap="round" stroke-linejoin="round"/>
<path d="M221.98 286.492C221.117 285.887 220.15 285.447 219.127 285.193C214.239 283.769 208.156 284.128 205.37 289.009C201.174 295.403 202.027 301.707 205.177 305.744C206.039 306.845 207.087 307.785 208.274 308.523C213.196 311.572 220.226 310.694 224.961 302.399C225.779 300.593 226.23 298.643 226.289 296.662C226.349 294.68 226.015 292.706 225.307 290.855C224.645 289.109 223.489 287.593 221.98 286.492Z" stroke="#171717" stroke-width="4.652" stroke-linecap="round" stroke-linejoin="round"/>
<path d="M204.264 306.567C195.555 318.374 200.462 315.595 208.274 308.523C214.333 303.014 220.022 297.112 225.305 290.855C228.402 287.094 230.469 283.983 230.4 282.6C227.779 282.227 225.602 284.184 223.888 285.919" stroke="url(#paint17_linear_1509_2812)" stroke-width="4.652" stroke-linecap="round" stroke-linejoin="round"/>
<path d="M161.558 170.219C158.682 186.478 148.935 201.181 134.612 210.79C131.16 213.104 127.499 215.089 123.676 216.72C113.643 219.893 103.024 220.76 92.6098 219.256C76.2888 216.885 61.1291 208.715 49.4188 196.036C47.9672 194.461 46.5682 192.818 45.2226 191.108C37.1208 178.402 34.0793 165.524 34.8052 153.454C35.9523 134.409 46.4741 117.383 61.2463 106.253C68.6686 100.608 77.1831 96.5662 86.25 94.3843C107.223 89.4355 130.521 95.4418 147.698 118.771L147.801 118.917" stroke="#171717" stroke-width="4.652" stroke-linecap="round" stroke-linejoin="round"/>
<path d="M157.908 137.702C159.374 141.224 160.499 144.88 161.267 148.617C162.733 155.732 162.832 163.061 161.558 170.212" stroke="#171717" stroke-width="4.652" stroke-linecap="round" stroke-linejoin="round"/>
<path d="M147.698 118.774C146.869 119.891 146.19 121.111 145.679 122.404C141.649 133.63 150.271 139.651 157.761 137.239C160.81 136.264 163.672 133.879 165.421 129.89C169.77 116.328 154.949 109.159 147.698 118.774Z" stroke="#171717" stroke-width="4.652" stroke-linecap="round" stroke-linejoin="round"/>
<path d="M86.2915 94.3388C86.2776 94.3526 86.2638 94.3736 86.25 94.3874C73.8968 107.964 60.2927 127.451 64.6824 146.579C72.4176 145.784 78.155 138.034 85.6557 137.896C82.8349 147.214 78.4109 156.236 77.0007 165.907C78.1153 177.645 112.249 138.346 122.618 148.321C124.367 151.03 117.51 157.826 118.505 164.075C123.448 166.937 126.78 168.064 132.061 164.517C141.407 159.298 150.753 154.082 160.099 148.869" stroke="#171717" stroke-width="4.652" stroke-linecap="round" stroke-linejoin="round"/>
<path d="M61.7858 105.371C61.599 105.662 61.4194 105.959 61.2464 106.256C57.4042 112.659 55.0622 119.848 54.3962 127.286C56.1933 126.953 57.9905 126.624 59.7881 126.297C60.0159 132.664 48.126 157.197 43.363 161.891C43.0726 158.022 43.1908 154.134 43.7157 150.291C40.0242 151.923 40.1762 158.428 36.2431 159.297C35.931 157.811 34.9987 154.984 34.9087 153.463" stroke="#171717" stroke-width="4.652" stroke-linecap="round" stroke-linejoin="round"/>
<path d="M49.1754 196.136C49.2583 196.108 49.3346 196.074 49.4175 196.039C56.2388 193.44 63.1599 186.804 70.6606 188.249C69.2263 190.802 68.5411 193.708 68.6833 196.634C84.2429 197.968 95.9197 166.148 104.187 170.78C99.8738 179.656 94.2193 188.076 90.6589 197.228C91.8203 206.443 107.416 194.387 110.533 190.785C115.4 186.513 122.209 179.538 128.755 181.889C122.223 197.809 106.157 208.607 92.6223 219.142C93.0922 219.121 93.5626 219.093 94.0325 219.073" stroke="#171717" stroke-width="4.652" stroke-linecap="round" stroke-linejoin="round"/>
<path d="M134.411 210.487C130.999 209.444 127.332 209.602 124.023 210.936C116.357 211.739 130.853 198.908 133.763 192.846C134.185 192.132 134.987 191.311 135.692 191.746C144.153 201.936 151.895 151.742 161.56 170.212V170.22C161.58 170.247 161.594 170.282 161.615 170.316" stroke="#171717" stroke-width="4.652" stroke-linecap="round" stroke-linejoin="round"/>
<path d="M159.255 268.326C159.255 268.354 159.249 268.374 159.249 268.402C158.294 278.014 156.289 287.492 153.269 296.668" stroke="#171717" stroke-width="4.652" stroke-linecap="round" stroke-linejoin="round"/>
<path d="M256.048 313.591C256.836 313.427 257.61 313.203 258.364 312.922C259.817 312.357 261.209 311.646 262.518 310.799C267.834 307.474 272.39 302.774 274.906 297.036C277.422 291.299 277.754 284.497 275.174 278.787" stroke="#171717" stroke-width="4.652" stroke-linecap="round" stroke-linejoin="round"/>
<path d="M165.706 342.258C165.643 342.244 165.572 342.237 165.512 342.223C163.099 341.774 160.604 341.338 158.212 341.877C155.371 342.514 153.021 344.435 150.829 346.357C145.731 350.813 140.893 355.558 136.339 360.57C134.487 362.609 132.662 364.716 131.383 367.165C130.104 369.605 129.399 372.439 129.925 375.149C130.277 376.96 131.155 378.619 132.067 380.223C134.003 383.611 136.264 386.97 139.568 389.05C140.719 389.808 142.021 390.307 143.384 390.516C145.706 390.806 148.008 389.963 150.158 389.03C157.524 385.833 164.337 381.488 170.344 376.158" stroke="#171717" stroke-width="4.652" stroke-linecap="round" stroke-linejoin="round"/>
<path d="M169.023 355.206C167.643 355.415 166.276 355.709 164.931 356.084C162.916 356.64 160.939 357.329 159.014 358.144C157.48 358.78 155.965 359.478 154.472 360.218C154.389 360.259 154.299 360.301 154.216 360.342C152.064 361.364 150.009 362.582 148.078 363.978C147.405 364.484 146.763 365.031 146.156 365.616C143.841 367.863 142.099 370.85 141.932 374.071C141.766 377.292 143.419 380.693 146.343 382.048C147.231 382.444 148.185 382.671 149.156 382.717C150.592 382.766 152.023 382.529 153.367 382.02C154.405 381.628 155.402 381.138 156.346 380.555C157.452 379.898 158.517 379.145 159.574 378.398L160.342 377.859C162.208 376.538 164.072 375.218 165.934 373.898C166.55 373.463 167.165 373.027 167.773 372.599C167.835 372.55 167.907 372.509 167.966 372.46" stroke="#171717" stroke-width="4.652" stroke-linecap="round" stroke-linejoin="round"/>
<path d="M166.797 376.172C166.514 375.411 166.224 374.651 165.933 373.898C164.876 371.175 163.758 368.476 162.58 365.803C161.454 363.225 160.265 360.672 159.014 358.144C158.412 356.92 157.797 355.697 157.168 354.488" stroke="#171717" stroke-width="4.652" stroke-linecap="round" stroke-linejoin="round"/>
<path d="M159.831 381.329C159.99 380.168 160.163 379.014 160.343 377.859C160.972 373.821 161.718 369.803 162.582 365.803C163.288 362.547 164.071 359.307 164.933 356.084C165.111 355.415 165.299 354.743 165.486 354.072" stroke="#171717" stroke-width="4.652" stroke-linecap="round" stroke-linejoin="round"/>
<path d="M157.535 382.552C157.12 381.895 156.719 381.232 156.346 380.554C154.721 377.701 153.387 374.685 152.018 371.692C150.847 369.051 149.532 366.476 148.078 363.979C147.438 362.911 146.744 361.878 145.997 360.882" stroke="#171717" stroke-width="4.652" stroke-linecap="round" stroke-linejoin="round"/>
<path d="M148.444 384.834C148.693 384.136 148.928 383.424 149.158 382.719C150.305 379.103 151.197 375.407 152.019 371.693C152.31 370.359 152.593 369.031 152.877 367.697C153.409 365.2 153.941 362.707 154.474 360.218C154.646 359.395 154.826 358.572 154.999 357.75" stroke="#171717" stroke-width="4.652" stroke-linecap="round" stroke-linejoin="round"/>
<path d="M238.511 400.27C248.175 404.448 258.285 407.512 268.644 409.402C271.568 409.927 274.54 410.37 277.506 410.127C280.471 409.885 283.451 408.904 285.656 406.906C287.17 405.53 288.248 403.747 289.264 401.97C290.564 399.703 291.822 397.346 292.265 394.767C292.97 390.647 291.484 386.389 289.105 382.953C286.769 379.572 283.609 376.848 280.485 374.18C280.43 374.132 280.381 374.091 280.326 374.042" stroke="#171717" stroke-width="4.652" stroke-linecap="round" stroke-linejoin="round"/>
<path d="M241.47 397.989C242.057 397.505 242.651 397.021 243.246 396.523C245.175 394.94 247.106 393.315 249.039 391.649C253.674 387.725 258.095 383.556 262.284 379.158C262.968 379.365 263.646 379.58 264.323 379.801C267.565 380.838 270.766 381.997 273.925 383.278C274.728 383.582 275.504 383.949 276.248 384.378C276.829 384.713 277.352 385.14 277.796 385.643C278.784 386.797 279.192 388.325 279.496 389.805C279.925 391.913 280.181 394.138 279.552 396.192C278.667 399.102 276.061 401.274 273.177 402.233C271.297 402.829 269.325 403.079 267.356 402.973C266.282 402.928 265.211 402.819 264.149 402.648C261.86 402.282 259.599 401.76 257.381 401.088C255.508 400.535 253.655 399.912 251.808 399.277C248.967 398.309 246.126 397.315 243.243 396.525C242.268 396.256 241.293 396.014 240.305 395.8" stroke="#171717" stroke-width="4.652" stroke-linecap="round" stroke-linejoin="round"/>
<path d="M252.44 401.03C252.232 400.443 252.025 399.855 251.811 399.275C250.912 396.723 249.988 394.182 249.039 391.651C247.712 388.077 246.338 384.519 244.919 380.978C244.905 380.95 244.898 380.916 244.884 380.888" stroke="#171717" stroke-width="4.652" stroke-linecap="round" stroke-linejoin="round"/>
<path d="M255.495 402.752C256.124 402.198 256.753 401.637 257.382 401.085C260.196 398.597 263.01 396.11 265.823 393.627L276.211 384.439" stroke="#171717" stroke-width="4.652" stroke-linecap="round" stroke-linejoin="round"/>
<path d="M267.856 405.551C267.683 404.695 267.517 403.837 267.358 402.973C266.771 399.869 266.259 396.754 265.824 393.627C265.167 389.037 264.667 384.428 264.323 379.801C264.323 379.774 264.317 379.753 264.317 379.726" stroke="#171717" stroke-width="4.652" stroke-linecap="round" stroke-linejoin="round"/>
<path d="M334.211 47.3034C332.379 44.9601 329.774 43.3491 327.132 41.9804C318.239 37.3931 308.368 35.0238 298.361 35.0745" stroke="#171717" stroke-width="4.652" stroke-linecap="round" stroke-linejoin="round"/>
<path d="M303.49 51.2022C302.646 52.3827 302.102 53.7519 301.907 55.1906C301.712 56.6293 301.871 58.0939 302.37 59.4568C302.87 60.8201 303.695 62.0404 304.774 63.0118C305.853 63.9833 307.153 64.6761 308.561 65.0306C309.969 65.3855 311.442 65.3904 312.852 65.0457C314.263 64.7016 315.568 64.0172 316.654 63.0538C317.739 62.0899 318.573 60.8754 319.082 59.5161C319.592 58.1563 319.762 56.6931 319.576 55.253C319.428 54.0711 319.027 52.9351 318.401 51.9213C315.062 46.64 307.237 45.9694 303.49 51.2022Z" stroke="#171717" stroke-width="4.652" stroke-linecap="round" stroke-linejoin="round"/>
<path d="M290.495 51.1054C292.645 51.949 294.822 52.7162 297.028 53.4073C294.712 58.5567 292.741 63.8545 291.129 69.2656C288.934 67.9807 286.607 66.9356 284.189 66.1479" stroke="#171717" stroke-width="4.652" stroke-linecap="round" stroke-linejoin="round"/>
<path d="M318.553 97.5323C316.426 96.6255 314.404 95.4868 312.526 94.1382C315.049 89.6994 317.434 85.1903 319.68 80.6098C321.375 81.6744 323.07 82.7386 324.768 83.8033" stroke="#171717" stroke-width="4.652" stroke-linecap="round" stroke-linejoin="round"/>
<path d="M279.082 87.8675C279.151 87.8747 279.227 87.8813 279.296 87.8952C280.135 87.995 280.966 88.1497 281.785 88.3584C282.863 88.6072 283.949 88.8631 285.034 89.1118C285.166 86.5059 285.579 83.9219 286.264 81.4043C286.299 81.2799 286.312 81.1069 286.195 81.0516C286.152 81.0391 286.107 81.0369 286.064 81.0449L280.077 81.4386" stroke="#171717" stroke-width="4.652" stroke-linecap="round" stroke-linejoin="round"/>
<path d="M255.219 96.8889C255.233 96.9028 255.253 96.9095 255.267 96.9233C258.095 99.0526 260.991 101.085 263.957 103.02C266.494 99.2924 268.823 95.4266 270.933 91.4404L263.22 84.5135" stroke="#171717" stroke-width="4.652" stroke-linecap="round" stroke-linejoin="round"/>
<path d="M305.807 124.042C309.832 124.033 313.852 123.788 317.849 123.309C317.144 125.231 316.909 127.285 316.68 129.317C316.287 132.746 315.897 136.177 315.512 139.61C313.01 138.442 310.01 139.133 307.39 138.296C307.325 138.284 307.265 138.259 307.211 138.222C307.157 138.185 307.112 138.137 307.077 138.082C307.072 138.067 307.069 138.05 307.07 138.034C307.07 137.923 307.188 137.799 307.278 137.868" stroke="#171717" stroke-width="4.652" stroke-linecap="round" stroke-linejoin="round"/>
<path d="M301.617 120.309C298.836 118.626 295.875 117.258 292.79 116.231C295.369 111.053 297.707 105.763 299.806 100.359C301.606 101.752 303.637 102.817 305.807 103.505" stroke="#171717" stroke-width="4.652" stroke-linecap="round" stroke-linejoin="round"/>
<path d="M268.57 91.5742C268.548 91.485 268.495 91.4065 268.42 91.353C268.345 91.3 268.253 91.2755 268.162 91.2839C267.999 91.3067 267.85 91.3825 267.735 91.5002C267.621 91.6179 267.55 91.7703 267.533 91.9335C267.512 92.0552 267.52 92.1801 267.554 92.2986C267.589 92.4172 267.65 92.5265 267.733 92.6179C267.819 92.7084 267.93 92.7708 268.052 92.7966C268.175 92.8225 268.302 92.8109 268.417 92.7632C268.504 92.7048 268.578 92.6295 268.636 92.5421C268.693 92.4547 268.733 92.3566 268.753 92.2536C268.772 92.1506 268.771 92.045 268.749 91.9424C268.727 91.8399 268.685 91.7431 268.625 91.6571" stroke="#171717" stroke-width="4.652" stroke-linecap="round" stroke-linejoin="round"/>
<path d="M263.784 99.4743C263.584 99.4382 263.377 99.4833 263.21 99.5987C263.139 99.6531 263.08 99.7213 263.035 99.7993C262.991 99.8774 262.963 99.9634 262.953 100.052C262.943 100.141 262.95 100.231 262.976 100.317C263.001 100.403 263.043 100.483 263.1 100.553C263.164 100.614 263.242 100.659 263.327 100.684C263.412 100.71 263.502 100.715 263.589 100.699C263.676 100.684 263.759 100.648 263.83 100.595C263.901 100.542 263.959 100.473 263.998 100.394C264.027 100.254 264.026 100.11 263.995 99.9701C263.964 99.831 263.905 99.6995 263.82 99.5849" stroke="#171717" stroke-width="4.652" stroke-linecap="round" stroke-linejoin="round"/>
<path d="M301.051 103.325C300.894 103.274 300.727 103.267 300.566 103.303C300.405 103.34 300.258 103.419 300.138 103.532C300.02 103.649 299.944 103.802 299.92 103.967C299.897 104.131 299.927 104.299 300.007 104.444C300.093 104.585 300.229 104.689 300.387 104.735C300.546 104.781 300.716 104.766 300.864 104.693C300.933 104.652 300.993 104.596 301.04 104.53C301.086 104.463 301.118 104.388 301.134 104.309C301.149 104.229 301.148 104.148 301.13 104.069C301.112 103.99 301.078 103.915 301.03 103.85" stroke="#171717" stroke-width="4.652" stroke-linecap="round" stroke-linejoin="round"/>
<path d="M297.366 113.445C297.242 113.391 297.106 113.373 296.972 113.391C296.838 113.409 296.711 113.464 296.606 113.548C296.398 113.722 296.234 113.942 296.129 114.191C296.027 114.369 295.963 114.567 295.942 114.771C295.933 114.875 295.952 114.979 295.995 115.073C296.039 115.168 296.106 115.249 296.191 115.31C296.292 115.367 296.407 115.398 296.523 115.399C297.02 115.433 297.615 115.157 297.649 114.659C297.64 114.378 297.535 114.107 297.353 113.892" stroke="#171717" stroke-width="4.652" stroke-linecap="round" stroke-linejoin="round"/>
<path d="M289.881 65.0471C289.78 65.0498 289.682 65.0734 289.591 65.1162C289.451 65.1737 289.329 65.2687 289.24 65.3908C289.151 65.5125 289.098 65.657 289.086 65.8077C289.085 65.9076 289.105 66.0061 289.144 66.0975C289.183 66.1889 289.241 66.2714 289.314 66.3391C289.387 66.4069 289.473 66.4586 289.567 66.4907C289.661 66.5232 289.761 66.5357 289.86 66.5268C290.007 66.4822 290.143 66.4082 290.261 66.3097C290.378 66.2112 290.475 66.0899 290.545 65.953C290.592 65.8915 290.619 65.8166 290.621 65.7386C290.604 65.6722 290.568 65.612 290.517 65.5656C290.38 65.4203 290.227 65.2905 290.061 65.1786C290.012 65.151 289.916 65.151 289.895 65.1786C289.881 65.1924 289.881 65.2063 289.895 65.2272" stroke="#171717" stroke-width="4.652" stroke-linecap="round" stroke-linejoin="round"/>
<path d="M294.317 54.2098C294.256 54.1598 294.184 54.1233 294.107 54.1023C294.031 54.0814 293.951 54.0765 293.872 54.0885C293.793 54.1001 293.718 54.1277 293.651 54.1701C293.584 54.2124 293.526 54.2682 293.481 54.3342C293.405 54.4764 293.384 54.6418 293.422 54.7987C293.46 54.9556 293.555 55.093 293.689 55.1844C293.827 55.2668 293.988 55.303 294.149 55.2869C294.31 55.2709 294.461 55.2035 294.58 55.0952C294.774 54.9084 294.815 54.5156 294.559 54.4264" stroke="#171717" stroke-width="4.652" stroke-linecap="round" stroke-linejoin="round"/>
<path d="M392.071 87.7569C393.098 86.6152 393.854 85.2567 394.283 83.7823C396.557 75.5629 388.933 67.0533 380.838 66.8737C380.03 66.8531 379.221 66.9129 378.425 67.052C375.205 67.5892 372.268 69.2201 370.109 71.6695C369.737 72.0939 369.393 72.5415 369.079 73.0105C367.815 74.9459 367.034 77.1568 366.802 79.4569C366.57 81.7569 366.893 84.0793 367.745 86.2282C368.36 87.785 369.284 89.2005 370.462 90.3896C372.846 92.7605 376.31 93.901 379.669 93.7904C383.055 93.5987 386.313 92.4377 389.057 90.4466C390.17 89.6794 391.183 88.7757 392.071 87.7569Z" stroke="#171717" stroke-width="4.652" stroke-linecap="round" stroke-linejoin="round"/>
<path d="M386.417 94.0066C387.094 94.9759 387.97 95.79 388.987 96.3945C390.004 96.9986 391.138 97.3794 392.313 97.5113C392.634 97.5653 392.964 97.5416 393.274 97.4422C393.979 97.1658 394.235 96.3085 394.29 95.555C394.505 92.8176 393.364 90.2117 392.071 87.7574C391.919 87.4738 391.774 87.1974 391.622 86.921C390.329 84.5362 389.004 82.1653 387.647 79.8077C385.013 75.2522 382.186 70.6829 378.426 67.0538C377.601 66.2477 376.726 65.4951 375.805 64.8001C374.167 63.5696 371.927 62.5121 370.165 63.5558C369.059 64.2125 368.512 65.5536 368.464 66.8326C368.496 68.1198 368.741 69.3931 369.19 70.5999C369.238 70.7658 369.335 70.9664 369.508 70.9593C369.681 70.9593 369.611 70.5933 369.487 70.7105" stroke="url(#paint18_linear_1509_2812)" stroke-width="4.652" stroke-linecap="round" stroke-linejoin="round"/>
<path d="M205.038 239.223C205.107 239.223 205.184 239.216 205.253 239.216C209.132 239.048 213.017 239.191 216.873 239.644" stroke="#171717" stroke-width="4.652" stroke-linecap="round" stroke-linejoin="round"/>
<path d="M45.9694 239.347L53.0412 245.61L62.2281 239.182L58.6543 248.293L63.6797 255.357L55.5642 254.231L51.3337 263.66L48.6654 255.081L40.0314 253.332L46.944 248.776L45.9694 239.347Z" stroke="url(#paint19_linear_1509_2812)" stroke-width="4.652" stroke-linecap="round" stroke-linejoin="round"/>
<path d="M231.183 94.7396L222.701 92.9906L216.79 99.3227L215.436 90.3223L207.679 86.1189L215.332 82.3035L216.445 73.365L222.528 80.0083L230.968 78.6949L227.083 86.6169L231.183 94.7396Z" stroke="#171717" stroke-width="4.652" stroke-linecap="round" stroke-linejoin="round"/>
<path d="M382.538 172.391L375.709 167.061L367.607 170.123L370.379 161.455L365.291 154.252L373.835 154.217L378.792 146.703L381.301 155.351L389.458 157.908L382.463 163.286L382.538 172.391Z" stroke="#171717" stroke-width="4.652" stroke-linecap="round" stroke-linejoin="round"/>
<path d="M370.116 226.296L368.167 219.688L361.503 217.918L367.31 213.597L367.358 206.581L372.895 210.514L379.587 207.95L377.202 214.703L381.287 220.137L374.277 220.379L370.116 226.296Z" stroke="#171717" stroke-width="4.652" stroke-linecap="round" stroke-linejoin="round"/>
<path d="M87.7289 248.203C87.3695 245.755 86.9527 243.32 86.4779 240.896C86.4293 240.613 86.3744 240.336 86.3125 240.06C86.271 239.832 86.2291 239.603 86.1738 239.382C85.7587 237.315 85.2955 235.248 84.7922 233.195" stroke="#171717" stroke-width="4.652" stroke-linecap="round" stroke-linejoin="round"/>
<path d="M79.9107 247.843C81.8046 245.347 83.6735 242.832 85.5166 240.301C85.5166 240.294 85.5166 240.287 85.5237 240.287C85.7382 239.983 85.9593 239.686 86.1738 239.382C87.6669 237.315 89.139 235.236 90.5906 233.146" stroke="#171717" stroke-width="4.652" stroke-linecap="round" stroke-linejoin="round"/>
<path d="M92.2224 243.868C91.5724 243.972 90.9433 243.627 90.3767 243.289C89.0691 242.5 87.7694 241.703 86.4779 240.897C86.1595 240.703 85.8488 240.51 85.5305 240.295L85.5238 240.288C82.5028 238.401 79.5166 236.449 76.5648 234.433" stroke="#171717" stroke-width="4.652" stroke-linecap="round" stroke-linejoin="round"/>
<path d="M76.7306 243.316C79.62 242.21 82.5487 241.205 85.5166 240.301C85.5206 240.297 85.5255 240.295 85.5304 240.295C85.7864 240.212 86.049 240.136 86.312 240.06C88.8087 239.306 91.3249 238.629 93.8604 238.027" stroke="#171717" stroke-width="4.652" stroke-linecap="round" stroke-linejoin="round"/>
<path d="M157.742 88.621C156.2 86.6593 154.656 84.6976 153.11 82.736C150.926 79.9647 148.741 77.1902 146.557 74.4131" stroke="#171717" stroke-width="4.652" stroke-linecap="round" stroke-linejoin="round"/>
<path d="M147.838 88.6557C149.629 86.7061 151.387 84.7337 153.113 82.7382C155.172 80.3815 157.182 77.9896 159.141 75.563" stroke="#171717" stroke-width="4.652" stroke-linecap="round" stroke-linejoin="round"/>
<path d="M221.18 39.8793C222.355 38.1994 223.531 36.5149 224.706 34.8258C225.784 33.2847 226.862 31.7391 227.941 30.1891" stroke="#171717" stroke-width="4.652" stroke-linecap="round" stroke-linejoin="round"/>
<path d="M227.893 38.4623C226.828 37.2529 225.766 36.0408 224.706 34.8261C223.275 33.2015 221.848 31.577 220.426 29.9527" stroke="#171717" stroke-width="4.652" stroke-linecap="round" stroke-linejoin="round"/>
<path d="M363.072 248.445C361.904 246.281 360.694 244.141 359.443 242.025C358.302 240.075 357.125 238.151 355.911 236.252" stroke="url(#paint20_linear_1509_2812)" stroke-width="4.652" stroke-linecap="round" stroke-linejoin="round"/>
<path d="M352.62 247.601C354.943 245.804 357.216 243.944 359.441 242.022C361.957 239.853 364.407 237.602 366.789 235.269" stroke="url(#paint21_linear_1509_2812)" stroke-width="4.652" stroke-linecap="round" stroke-linejoin="round"/>
<path d="M214.88 155.819C217.04 153.732 219.317 151.768 221.701 149.939" stroke="#171717" stroke-width="4.652" stroke-linecap="round" stroke-linejoin="round"/>
<path d="M209.356 151.73C211.084 146.436 212.668 141.096 214.107 135.713" stroke="#171717" stroke-width="4.652" stroke-linecap="round" stroke-linejoin="round"/>
<path d="M198.908 149.769C198.533 147.039 197.937 144.343 197.128 141.708" stroke="#171717" stroke-width="4.652" stroke-linecap="round" stroke-linejoin="round"/>
<path d="M169.538 249.556L166.739 246.012" stroke="#171717" stroke-width="4.652" stroke-linecap="round" stroke-linejoin="round"/>
<path d="M159.141 263.322C159.679 262.175 160.472 261.165 161.459 260.37" stroke="#171717" stroke-width="4.652" stroke-linecap="round" stroke-linejoin="round"/>
<path d="M192.552 253.612C191.468 252.138 190.383 250.664 189.297 249.19" stroke="#171717" stroke-width="4.652" stroke-linecap="round" stroke-linejoin="round"/>
<path d="M201.91 247.498C202.56 246.12 203.475 244.884 204.603 243.861" stroke="#171717" stroke-width="4.652" stroke-linecap="round" stroke-linejoin="round"/>
<path d="M168.901 278.605C168.19 277.413 167.478 276.221 166.767 275.03" stroke="#171717" stroke-width="4.652" stroke-linecap="round" stroke-linejoin="round"/>
<path d="M159.59 290.397C160.676 288.978 162.497 288.134 163.212 286.495" stroke="#171717" stroke-width="4.652" stroke-linecap="round" stroke-linejoin="round"/>
<path d="M148.337 255.388C147.346 254.304 146.355 253.22 145.364 252.136" stroke="#171717" stroke-width="4.652" stroke-linecap="round" stroke-linejoin="round"/>
<path d="M136.688 259.996C135.225 260.731 133.978 261.833 133.068 263.193C132.926 263.406 132.667 263.656 132.458 263.508" stroke="#171717" stroke-width="4.652" stroke-linecap="round" stroke-linejoin="round"/>
<path d="M128.301 271.797C127.765 271.561 127.298 271.192 126.944 270.727C126.045 269.769 125.018 268.94 123.892 268.264" stroke="#171717" stroke-width="4.652" stroke-linecap="round" stroke-linejoin="round"/>
<path d="M114.412 285.178C115.285 283.298 116.368 281.522 117.64 279.884" stroke="#171717" stroke-width="4.652" stroke-linecap="round" stroke-linejoin="round"/>
<path d="M126.299 288.936C125.001 288.196 123.717 287.434 122.447 286.648" stroke="#171717" stroke-width="4.652" stroke-linecap="round" stroke-linejoin="round"/>
<path d="M133.497 279.645L137.001 274.336" stroke="#171717" stroke-width="4.652" stroke-linecap="round" stroke-linejoin="round"/>
<path d="M133.454 293.482C132.187 295.462 131.011 297.496 129.926 299.584" stroke="#171717" stroke-width="4.652" stroke-linecap="round" stroke-linejoin="round"/>
<path d="M109.251 273.568C110.261 271.785 111.272 270.003 112.283 268.223L112.069 268.446" stroke="#171717" stroke-width="4.652" stroke-linecap="round" stroke-linejoin="round"/>
<path d="M110.214 302.316C109.001 301.532 107.789 300.747 106.576 299.962" stroke="#171717" stroke-width="4.652" stroke-linecap="round" stroke-linejoin="round"/>
<path d="M146.404 305.785C144.935 304.762 143.421 303.811 141.861 302.932C141.852 302.827 141.843 302.722 141.834 302.617" stroke="#171717" stroke-width="4.652" stroke-linecap="round" stroke-linejoin="round"/>
<path d="M129.069 318.078C129.746 316.07 130.615 314.131 131.665 312.289" stroke="#171717" stroke-width="4.652" stroke-linecap="round" stroke-linejoin="round"/>
<path d="M123.032 309.644C121.82 309.102 120.85 308.131 120.309 306.919" stroke="#171717" stroke-width="4.652" stroke-linecap="round" stroke-linejoin="round"/>
<path d="M109.277 315.792C110.35 314.13 111.542 312.548 112.844 311.06" stroke="#171717" stroke-width="4.652" stroke-linecap="round" stroke-linejoin="round"/>
<path fill-rule="evenodd" clip-rule="evenodd" d="M175.079 377.384C173.613 377.128 172.12 376.845 170.827 376.105C170.717 376.043 170.611 375.976 170.509 375.901L170.343 376.157C164.337 381.487 157.524 385.831 150.158 389.028C148.008 389.961 145.706 390.805 143.383 390.514C142.021 390.306 140.719 389.806 139.567 389.049C136.263 386.968 134.003 383.61 132.067 380.221C131.154 378.618 130.277 376.958 129.924 375.147C129.399 372.438 130.104 369.611 131.383 367.163C132.661 364.714 134.487 362.607 136.339 360.568C140.893 355.557 145.73 350.812 150.829 346.356C152.821 344.609 154.944 342.862 157.448 342.081C143.866 337.2 128.375 339.806 114.419 344.773C113.879 344.965 113.286 344.684 113.094 344.144C112.902 343.604 113.184 343.011 113.723 342.819C128.56 337.539 145.542 334.725 160.325 340.979C160.619 341.103 160.825 341.347 160.912 341.63C162.447 341.663 163.996 341.94 165.512 342.222C157.998 335.716 149.885 329.936 141.282 324.959L141.268 324.848C130.961 326.464 120.461 327.078 111.26 322.441C102.28 322.987 93.1275 323.658 84.8528 327.183C76.3851 330.792 68.8777 338.071 67.599 347.189C66.6173 354.24 69.4863 361.436 74.0556 366.89C78.625 372.352 84.7494 376.278 91.0472 379.589C105.246 387.048 120.737 391.776 136.395 395.226C166.376 401.834 197.248 403.894 227.934 403.106C231.57 403.011 235.725 402.588 238.165 400.113C238.518 399.752 238.831 399.353 239.098 398.924C239.666 397.961 240.026 396.89 240.156 395.779C240.282 394.83 240.326 393.873 240.287 392.917C240.195 389.446 239.59 386.007 238.49 382.714L238.421 381.373C217.224 382.411 195.978 381.073 175.079 377.384ZM104.074 327.124C104.375 327.094 104.674 327.197 104.893 327.405C106.918 329.338 108.742 331.472 110.335 333.775C110.661 334.246 110.543 334.892 110.072 335.218C110.039 335.241 110.004 335.262 109.969 335.28C109.745 335.721 109.231 335.951 108.742 335.802C108.018 335.581 107.26 335.492 106.505 335.54C106.485 335.542 106.464 335.542 106.443 335.543C103.927 335.552 101.412 335.561 98.8966 335.571C98.4788 335.572 98.1007 335.323 97.938 334.938C97.7748 334.553 97.8586 334.108 98.1502 333.809C100.042 331.87 101.774 329.78 103.327 327.561C103.501 327.313 103.774 327.153 104.074 327.124ZM107.556 333.479C106.556 332.167 105.472 330.92 104.313 329.744C103.361 331.038 102.35 332.287 101.284 333.487C102.991 333.481 104.698 333.475 106.406 333.469C106.79 333.445 107.174 333.449 107.556 333.479ZM102.709 354.881C102.404 354.701 102.029 354.691 101.713 354.852C101.399 355.012 101.187 355.322 101.153 355.675C100.925 358.019 100.533 360.345 99.9804 362.635C99.8823 363.043 100.04 363.471 100.379 363.718C100.72 363.964 101.175 363.981 101.532 363.761C103.715 362.418 105.837 360.988 107.899 359.473C108.135 359.483 108.371 359.413 108.565 359.269C108.841 359.064 108.997 358.736 108.983 358.392C108.979 358.291 108.975 358.19 108.971 358.089C108.951 357.517 108.472 357.069 107.899 357.088C107.762 357.093 107.632 357.124 107.515 357.177C105.852 356.548 104.244 355.78 102.709 354.881ZM102.526 360.676C103.544 360.01 104.549 359.325 105.54 358.619C104.692 358.259 103.858 357.865 103.041 357.436C102.903 358.521 102.731 359.602 102.526 360.676ZM128.958 348.112C129.318 348.102 129.658 348.28 129.855 348.581C131.015 350.352 132.055 352.198 132.971 354.107C133.219 354.623 133.001 355.242 132.485 355.49C132.331 355.564 132.169 355.596 132.009 355.592C131.849 355.865 131.567 356.063 131.227 356.1L128.738 356.377H128.738L123.7 356.94C123.255 356.989 122.828 356.747 122.642 356.339C122.456 355.932 122.552 355.451 122.882 355.147C124.937 353.251 126.693 351.054 128.089 348.631C128.269 348.319 128.598 348.123 128.958 348.112ZM130.645 354.079C130.133 353.07 129.583 352.08 128.998 351.112C128.204 352.322 127.324 353.474 126.364 354.556L128.508 354.316H128.508L130.645 354.079ZM186.584 384.734C186.275 384.698 185.966 384.803 185.743 385.02C185.519 385.237 185.405 385.542 185.432 385.852C185.625 388.12 185.689 390.398 185.623 392.673C185.612 393.074 185.833 393.446 186.191 393.628C186.549 393.809 186.979 393.768 187.296 393.521C189.509 391.802 191.628 389.973 193.718 388.155C193.948 388.213 194.178 388.274 194.408 388.336C194.961 388.484 195.53 388.157 195.678 387.603C195.827 387.051 195.5 386.481 194.947 386.333C194.667 386.258 194.386 386.184 194.106 386.113C193.891 385.962 193.629 385.9 193.375 385.933C191.138 385.398 188.87 384.998 186.584 384.734ZM187.594 386.953C188.809 387.121 190.018 387.329 191.218 387.578C190.06 388.579 188.9 389.569 187.721 390.53C187.713 389.337 187.671 388.144 187.594 386.953Z" fill="#171717"/>
<path fill-rule="evenodd" clip-rule="evenodd" d="M280.485 374.181C274.554 376.285 268.45 377.867 262.242 378.909C256.506 379.887 250.724 380.577 244.919 380.976C244.048 381.045 243.177 381.101 242.306 381.154C241.013 381.237 239.713 381.307 238.421 381.369C217.224 382.408 195.978 381.071 175.079 377.381C173.613 377.126 172.12 376.842 170.827 376.103C170.718 376.043 170.611 375.976 170.509 375.902C169.285 375.102 168.331 373.95 167.772 372.598C166.514 369.75 166.576 366.031 167.103 362.83C167.515 360.239 168.189 357.696 169.114 355.24C170.821 350.823 173.524 346.924 177.713 344.906L177.692 344.677C189.559 343.744 201.611 343.761 213.661 343.777C228.037 343.796 242.409 343.815 256.458 342.223C256.712 342.336 257.01 342.348 257.286 342.231C264.666 339.1 272.887 338.554 280.616 340.681C281.168 340.833 281.739 340.509 281.891 339.957C282.043 339.404 281.719 338.834 281.166 338.682C272.987 336.43 264.286 337.008 256.477 340.322C255.847 332.505 255.621 324.66 255.8 316.819L256.048 316.826C266.335 315.975 276.958 315.948 286.651 319.522C296.336 323.088 304.991 330.859 307.189 340.951C307.438 342.104 307.604 343.273 307.687 344.449C308.123 350.505 306.263 356.768 302.274 361.344C300.083 363.853 297.332 365.81 294.484 367.545C290.048 370.213 285.359 372.436 280.485 374.181ZM199.014 351.105C198.781 350.802 198.401 350.651 198.024 350.712C197.646 350.773 197.333 351.037 197.209 351.399C196.414 353.714 195.149 355.867 193.8 358.067C193.694 358.213 193.616 358.379 193.569 358.554C193.514 358.761 193.506 358.977 193.543 359.187C193.552 359.242 193.566 359.297 193.585 359.35C193.774 359.89 194.228 360.1 194.498 360.171C194.752 360.238 194.991 360.23 195.129 360.219C198.044 360.03 200.967 360 203.885 360.127C204.457 360.152 204.941 359.708 204.966 359.136C204.986 358.684 204.714 358.287 204.317 358.128C204.281 358.024 204.228 357.923 204.158 357.831C202.443 355.589 200.728 353.347 199.014 351.105ZM198.482 353.824C199.543 355.212 200.604 356.599 201.665 357.986C199.85 357.958 198.033 357.989 196.219 358.079C197.033 356.723 197.827 355.311 198.482 353.824ZM277.351 349.351C277.617 349.121 277.76 348.762 277.697 348.39C277.6 347.825 277.064 347.446 276.499 347.543L266.974 349.173C266.68 349.223 266.422 349.397 266.266 349.651C266.109 349.905 266.07 350.214 266.157 350.499C266.447 351.446 267.035 352.169 267.587 352.751C267.792 352.966 268.01 353.182 268.214 353.382L268.214 353.383L268.215 353.383L268.307 353.473L268.383 353.549L268.413 353.579C268.678 353.842 268.914 354.085 269.119 354.332L269.119 354.333C269.893 355.265 270.351 356.394 270.875 357.688C270.976 357.938 271.08 358.194 271.189 358.456L272.588 356.388H272.588L271.189 358.456C271.477 359.148 271.97 360.284 273.056 360.831C273.336 360.973 273.665 360.979 273.95 360.85C274.236 360.721 274.447 360.47 274.526 360.167C275.468 356.561 276.41 352.956 277.351 349.351ZM273.861 354.508L275.066 349.892L268.774 350.969C268.871 351.084 268.976 351.202 269.092 351.324C269.27 351.511 269.451 351.69 269.647 351.883L269.648 351.883C269.721 351.956 269.797 352.03 269.874 352.107C270.149 352.38 270.443 352.68 270.715 353.008L275.066 349.892L270.715 353.009C271.564 354.031 272.122 355.253 272.588 356.388L273.861 354.508ZM273.861 354.508L272.588 356.388C272.67 356.589 272.75 356.786 272.827 356.979L272.829 356.982C272.908 357.18 272.986 357.374 273.063 357.561L273.861 354.508ZM294.979 336.675C294.997 336.309 294.82 335.959 294.513 335.757C294.206 335.554 293.815 335.53 293.485 335.692L287.781 338.497C287.488 338.641 287.279 338.915 287.219 339.237C287.159 339.559 287.254 339.89 287.476 340.13C288.367 341.095 289.39 341.928 290.517 342.602L290.517 342.603C290.721 342.724 290.908 342.831 291.084 342.931C291.418 343.122 291.715 343.292 292.013 343.499C292.437 343.794 292.721 344.077 292.888 344.398C293.154 344.906 293.781 345.102 294.288 344.837C294.796 344.571 294.992 343.945 294.727 343.437C294.699 343.384 294.67 343.332 294.64 343.281C294.753 341.079 294.866 338.877 294.979 336.675ZM292.817 338.332L292.657 341.449C292.439 341.316 292.218 341.19 292.015 341.074L292.012 341.072H292.012L291.909 341.013C291.792 340.946 291.681 340.882 291.582 340.823C291.032 340.493 290.51 340.12 290.023 339.705L292.817 338.332ZM232.801 366.053C233.08 366.237 233.254 366.545 233.267 366.879C233.371 369.605 233.363 372.328 233.241 375.049C233.235 375.182 233.205 375.307 233.154 375.421C233.141 375.568 233.097 375.715 233.017 375.851C232.729 376.346 232.095 376.514 231.6 376.226C229.434 374.966 227.331 373.609 225.253 372.268L223.306 371.011C222.978 370.8 222.796 370.422 222.836 370.034C222.877 369.645 223.131 369.312 223.495 369.172L231.858 365.951C232.17 365.831 232.521 365.869 232.801 366.053ZM231.221 373.587C231.273 371.863 231.279 370.138 231.239 368.412L226.144 370.375L226.378 370.525C227.993 371.568 229.596 372.602 231.221 373.587ZM248.44 358.368L246.755 355.19C247.172 355.26 247.613 355.36 248.094 355.469L248.263 355.507C248.778 355.623 249.342 355.747 249.936 355.816L248.44 358.368ZM252.956 354.463C253.07 354.931 252.847 355.403 252.441 355.622C252.423 355.668 252.401 355.713 252.375 355.757L249.289 361.021C249.099 361.345 248.748 361.541 248.372 361.533C247.997 361.525 247.654 361.314 247.478 360.982C246.346 358.846 245.214 356.71 244.082 354.574C243.923 354.274 243.921 353.914 244.077 353.612C244.234 353.31 244.528 353.104 244.866 353.06C246.145 352.896 247.411 353.186 248.463 353.426C248.516 353.438 248.569 353.45 248.62 353.462C248.653 353.469 248.686 353.477 248.719 353.484C249.903 353.75 250.831 353.915 251.702 353.702C252.259 353.566 252.82 353.906 252.956 354.463Z" fill="#171717"/>
<path d="M158.85 227.607C158.146 230.044 157.443 232.48 156.738 234.915" stroke="#171717" stroke-width="4.652" stroke-linecap="round" stroke-linejoin="round"/>
<path d="M197.767 231.071C197.826 234.462 197.801 237.853 197.69 241.244L197.704 240.951" stroke="#171717" stroke-width="4.652" stroke-linecap="round" stroke-linejoin="round"/>
<path d="M190.195 231.135C190.299 234.462 190.357 237.79 190.367 241.118C190.379 241.043 190.39 240.967 190.402 240.891" stroke="#171717" stroke-width="4.652" stroke-linecap="round" stroke-linejoin="round"/>
<path d="M182.83 231.134C182.267 234.491 182.82 237.94 182.492 241.328C182.486 241.386 182.488 241.459 182.541 241.484C182.593 241.509 182.638 241.395 182.579 241.401" stroke="#171717" stroke-width="4.652" stroke-linecap="round" stroke-linejoin="round"/>
<path d="M175.815 230.949C175.889 234.404 175.918 237.861 175.901 241.318" stroke="#171717" stroke-width="4.652" stroke-linecap="round" stroke-linejoin="round"/>
<path d="M187.383 241.378C187.294 246.773 187.205 252.168 187.116 257.561" stroke="#171717" stroke-width="4.652" stroke-linecap="round" stroke-linejoin="round"/>
<path d="M149.063 295.859C148.328 304.984 148.383 314.155 149.226 323.27" stroke="#171717" stroke-width="4.652" stroke-linecap="round" stroke-linejoin="round"/>
<g opacity="0.1">
<path d="M170.95 234.242C171.128 235.933 171.98 239.341 170.103 240.329C169.16 240.826 167.779 240.853 166.735 240.989C165.125 241.199 163.515 241.412 161.909 241.654C155.757 242.536 149.681 243.885 143.733 245.69C132.334 249.236 121.501 254.689 113.065 263.28C105.153 271.337 99.5809 281.697 98.5261 293.029C97.4369 304.734 102.081 317.026 112.704 322.889C126.03 330.242 141.339 326.411 154.982 322.206C160.902 320.381 158.377 311.06 152.415 312.895C141.833 316.156 129.487 320.257 118.743 315.287C109.7 311.104 106.394 300.902 107.683 291.53C110.721 269.486 131.863 256.318 151.699 251.272C154.712 250.505 157.755 249.862 160.814 249.316C163.997 248.747 167.292 248.533 170.444 247.829C173.583 247.128 176.229 245.181 177.338 242.097C178.339 239.314 177.847 236.181 177.062 233.413C176.141 230.166 170.56 230.639 170.946 234.241L170.95 234.242Z" fill="#171717"/>
</g>
<g opacity="0.1">
<path d="M279.245 109.971C267.477 111.335 260.337 123.693 262.005 134.783L267.033 129.754C258.703 126.575 250.865 134.733 250.988 142.759C251.137 152.451 259.186 158.581 266.726 163.1L267.89 154.192C260.873 155.38 254.974 160.759 252.792 167.475C250.521 174.463 252.901 182.557 258.221 187.505L260.379 179.332C251.699 181.691 246.239 191.342 248.908 199.989L253.623 193.799C245.573 192.849 235.826 193.254 231.337 201.277C226.811 209.364 232.436 217.308 238.231 222.811L243.009 214.602C238.058 213.461 233.523 216.351 231.842 221.061C230.223 225.596 232.309 230.197 234.568 234.092L236.322 227.4C233.989 228.665 232.051 230.552 230.724 232.851C229.396 235.15 228.731 237.772 228.802 240.425L237.118 236.981C232.481 233.377 226.168 232.575 221.285 236.317C217.082 239.538 215.22 245.612 217.228 250.588L221.924 244.424C216.201 244.885 211.001 247.118 206.95 251.242C202.573 255.698 209.41 262.546 213.806 258.099C215.945 255.845 218.83 254.446 221.924 254.163C224.704 253.947 227.925 251.165 226.619 247.999C226.001 246.5 225.835 245.204 226.984 244.153C227.766 243.439 229.408 243.232 230.226 243.873C231.804 245.108 233.581 245.745 235.549 244.88C236.429 244.513 237.183 243.895 237.716 243.104C238.248 242.312 238.536 241.381 238.544 240.427C238.49 238.36 239.331 236.871 241.257 235.848C243.6 234.605 244.291 231.374 243.012 229.156C242.338 227.987 240.981 226.19 241.06 224.745C241.137 223.353 241.66 224.369 240.395 224.076C244.98 225.142 248.895 219.37 245.173 215.868C242.815 213.65 237.594 209.084 240.091 205.703C242.866 201.944 249.461 203.091 253.619 203.582C256.775 203.954 259.189 200.158 258.335 197.391C257.269 193.939 259.213 189.788 262.975 188.765C266.433 187.826 267.85 183.119 265.133 180.592C262.251 177.912 260.898 173.87 262.204 170.073C263.463 166.423 266.782 164.224 270.477 163.594C274.785 162.86 274.98 156.683 271.641 154.686C267.361 152.127 261.898 149.267 260.207 144.22C259.638 142.519 259.4 140.546 260.558 139.045C261.658 137.618 263.204 137.055 264.857 137.641C268.067 138.777 270.376 135.412 269.886 132.612C268.527 124.854 274.132 118.493 280.739 115.504C283.354 114.321 282.122 109.64 279.241 109.976L279.245 109.971Z" fill="#171717"/>
</g>
<g opacity="0.1">
<path d="M304.483 183.995C302.174 183.908 299.854 186.272 298.371 187.859C296.505 189.882 295.034 192.237 294.032 194.801C293.135 197.228 292.749 199.814 292.896 202.399C293.044 204.982 293.722 207.508 294.889 209.818C299.606 219.084 313.888 220.662 319.168 211.01L310.769 209.912C311.541 212.815 313.184 215.411 315.477 217.351C317.769 219.291 320.601 220.482 323.592 220.762C328.451 221.189 336.814 217.369 335.522 211.317C335.296 210.262 334.036 209.226 332.922 209.338C331.173 209.514 330.185 210.539 328.612 211.113C327.313 211.613 325.929 211.857 324.537 211.831C322.035 211.674 320.237 209.796 319.633 207.469C318.646 203.679 313.158 202.93 311.234 206.371C310.328 207.99 308.336 208.624 306.624 208.393C304.416 208.096 302.746 206.398 301.845 204.202C300.661 201.322 301.15 198.431 301.993 195.547C302.496 193.825 303.45 192.245 304.266 190.659C305.095 189.054 306.479 187.884 306.448 185.96C306.437 185.442 306.227 184.948 305.861 184.582C305.494 184.215 305.001 184.005 304.483 183.995Z" fill="#171717"/>
</g>
<g opacity="0.1">
<path d="M307.489 241.873L307.516 241.65C307.516 241.435 307.46 241.223 307.353 241.036C307.246 240.849 307.091 240.694 306.905 240.585C303.217 238.044 297.465 240.47 295.019 243.657C291.987 247.605 291.14 253.207 294.016 257.538C300.481 267.275 316.243 263.138 318.691 252.272L315.809 254.466C319.116 254.184 322.006 252.898 324.879 251.279C327.595 249.748 330.036 247.746 331.544 244.99C332.376 243.474 330.379 241.841 329.116 243.117C327.344 244.906 325.51 246.676 323.2 247.745C320.855 248.831 318.337 248.681 315.809 248.49C314.397 248.383 313.397 249.516 312.927 250.684C311.702 253.733 309.472 256.426 306.026 256.915C304.401 257.133 302.748 256.847 301.289 256.098C299.83 255.349 298.635 254.172 297.864 252.725C296.064 249.503 296.867 245.536 300.16 243.735C301.93 242.767 303.568 242.741 305.523 242.86C306.288 242.904 307.374 242.857 307.489 241.879V241.873Z" fill="#171717"/>
</g>
<g opacity="0.1">
<path d="M241.057 143.708C237.778 144.005 236.272 145.861 234.514 148.45L235.465 147.718C231.823 148.648 232.893 154.114 234.723 156.199C236.834 158.603 241.544 160.091 243.898 157.2C245.272 155.513 244.5 152.632 242.021 152.669C240.739 152.689 239.515 153.284 238.629 152.05C237.762 150.841 238.234 149.209 237.013 148.126L237.479 149.252C237.613 147.468 240.16 145.721 241.47 144.704C241.55 144.622 241.604 144.517 241.625 144.405C241.646 144.292 241.634 144.175 241.59 144.069C241.546 143.964 241.473 143.873 241.378 143.808C241.283 143.743 241.172 143.707 241.057 143.705V143.708Z" fill="#171717"/>
</g>
<g opacity="0.1">
<path d="M238.722 171.431C233.417 171.594 229.765 177.445 231.354 182.417C231.769 183.727 232.465 184.93 233.394 185.944C234.323 186.957 235.462 187.755 236.731 188.282C239.159 189.302 243.276 189.924 244.3 186.781C244.391 186.464 244.395 186.128 244.31 185.81C244.226 185.491 244.057 185.201 243.821 184.971C242.305 183.645 241.02 184.427 239.237 184.143C238.436 184.02 237.677 183.705 237.025 183.224C236.373 182.744 235.847 182.112 235.492 181.384C233.732 177.763 235.816 174.522 239.103 172.833C239.242 172.747 239.35 172.619 239.409 172.467C239.47 172.315 239.478 172.148 239.436 171.99C239.393 171.833 239.301 171.693 239.173 171.592C239.044 171.492 238.887 171.435 238.724 171.431H238.722Z" fill="#171717"/>
</g>
<g opacity="0.1">
<path d="M86.3633 94.9986C80.2308 96.7882 74.3293 99.8537 68.7528 102.927C63.0613 106.111 57.8937 110.152 53.4304 114.908C44.0275 124.931 37.2999 137.701 36.2754 151.556C34.1113 180.827 53.7559 206.595 80.423 216.834C88.3918 219.893 97.1029 220.642 105.583 220.623C109.884 220.613 114.383 219.768 118.624 219.046C120.72 218.762 122.789 218.31 124.812 217.693C126.822 216.999 128.758 215.986 130.705 215.133C132.497 214.348 131.091 211.991 129.481 212.23C125.922 212.758 122.24 212.999 118.654 213.36C115.262 213.738 111.84 213.753 108.444 213.405C104.92 213.018 101.469 213.004 97.995 212.189C94.6495 211.443 91.3468 210.517 88.1002 209.415C76.6387 205.399 66.5607 199.505 58.5477 190.218C42.3508 171.444 39.7257 141.454 55.2963 121.488C59.4693 116.138 64.4113 111.657 69.661 107.406C75.0587 103.037 80.9874 99.9679 87.0873 96.72C88.0293 96.218 87.3838 94.703 86.3624 95.0008L86.3633 94.9986Z" fill="#171717"/>
</g>
<g opacity="0.1">
<path d="M180.151 230.606C181.538 229.05 181.188 227.193 181.189 225.206C181.189 222.911 181.058 220.579 181.21 218.288C181.496 213.969 181.669 209.65 181.898 205.323C182.121 201.123 182.229 196.802 183.483 192.753C184.084 191.003 184.9 189.335 185.914 187.786C186.788 186.343 188.048 185.102 188.78 183.596C188.891 183.394 188.949 183.168 188.947 182.939C188.946 182.709 188.885 182.484 188.77 182.284C188.656 182.085 188.492 181.919 188.295 181.801C188.097 181.684 187.873 181.62 187.643 181.614C183.928 181.436 180.861 185.311 179.489 188.336C177.554 192.599 177.092 197.246 176.799 201.868C176.493 206.718 176.078 211.699 176.389 216.557C176.555 219.152 176.599 221.736 176.682 224.339C176.748 226.434 176.394 229.05 177.994 230.604C178.282 230.886 178.669 231.044 179.073 231.044C179.476 231.044 179.863 230.886 180.151 230.604V230.606Z" fill="#171717"/>
</g>
<defs>
<linearGradient id="paint0_linear_1509_2812" x1="377.375" y1="146.703" x2="377.375" y2="172.391" gradientUnits="userSpaceOnUse">
<stop stop-color="#B1E938"/>
<stop offset="1" stop-color="#61BB00"/>
</linearGradient>
<linearGradient id="paint1_linear_1509_2812" x1="311.786" y1="123.309" x2="311.786" y2="139.61" gradientUnits="userSpaceOnUse">
<stop stop-color="#B1E938"/>
<stop offset="1" stop-color="#61BB00"/>
</linearGradient>
<linearGradient id="paint2_linear_1509_2812" x1="318.965" y1="82.5398" x2="318.965" y2="151.852" gradientUnits="userSpaceOnUse">
<stop stop-color="#B1E938"/>
<stop offset="1" stop-color="#61BB00"/>
</linearGradient>
<linearGradient id="paint3_linear_1509_2812" x1="292.932" y1="78.3062" x2="292.932" y2="140.447" gradientUnits="userSpaceOnUse">
<stop stop-color="#B1E938"/>
<stop offset="1" stop-color="#61BB00"/>
</linearGradient>
<linearGradient id="paint4_linear_1509_2812" x1="299.436" y1="100.359" x2="299.436" y2="120.33" gradientUnits="userSpaceOnUse">
<stop stop-color="#B1E938"/>
<stop offset="1" stop-color="#61BB00"/>
</linearGradient>
<linearGradient id="paint5_linear_1509_2812" x1="316.429" y1="17.8621" x2="316.429" y2="47.3105" gradientUnits="userSpaceOnUse">
<stop stop-color="#B1E938"/>
<stop offset="1" stop-color="#61BB00"/>
</linearGradient>
<linearGradient id="paint6_linear_1509_2812" x1="267.242" y1="71.1791" x2="267.242" y2="130.89" gradientUnits="userSpaceOnUse">
<stop stop-color="#B1E938"/>
<stop offset="1" stop-color="#61BB00"/>
</linearGradient>
<linearGradient id="paint7_linear_1509_2812" x1="266.418" y1="278.785" x2="266.418" y2="313.589" gradientUnits="userSpaceOnUse">
<stop stop-color="#B1E938"/>
<stop offset="1" stop-color="#61BB00"/>
</linearGradient>
<linearGradient id="paint8_linear_1509_2812" x1="265.305" y1="374.178" x2="265.305" y2="410.194" gradientUnits="userSpaceOnUse">
<stop stop-color="#B1E938"/>
<stop offset="1" stop-color="#61BB00"/>
</linearGradient>
<linearGradient id="paint9_linear_1509_2812" x1="263.1" y1="84.2308" x2="263.1" y2="103.02" gradientUnits="userSpaceOnUse">
<stop stop-color="#B1E938"/>
<stop offset="1" stop-color="#61BB00"/>
</linearGradient>
<linearGradient id="paint10_linear_1509_2812" x1="219.431" y1="73.365" x2="219.431" y2="99.3227" gradientUnits="userSpaceOnUse">
<stop stop-color="#B1E938"/>
<stop offset="1" stop-color="#61BB00"/>
</linearGradient>
<linearGradient id="paint11_linear_1509_2812" x1="187.748" y1="230.48" x2="187.748" y2="241.611" gradientUnits="userSpaceOnUse">
<stop stop-color="#B1E938"/>
<stop offset="1" stop-color="#61BB00"/>
</linearGradient>
<linearGradient id="paint12_linear_1509_2812" x1="153.73" y1="341.628" x2="153.73" y2="390.575" gradientUnits="userSpaceOnUse">
<stop stop-color="#B1E938"/>
<stop offset="1" stop-color="#61BB00"/>
</linearGradient>
<linearGradient id="paint13_linear_1509_2812" x1="112.554" y1="92.7752" x2="112.554" y2="168.116" gradientUnits="userSpaceOnUse">
<stop stop-color="#B1E938"/>
<stop offset="1" stop-color="#61BB00"/>
</linearGradient>
<linearGradient id="paint14_linear_1509_2812" x1="158.627" y1="239.146" x2="158.627" y2="326.037" gradientUnits="userSpaceOnUse">
<stop stop-color="#B1E938"/>
<stop offset="1" stop-color="#61BB00"/>
</linearGradient>
<linearGradient id="paint15_linear_1509_2812" x1="95.0673" y1="50.9949" x2="95.0673" y2="77.2152" gradientUnits="userSpaceOnUse">
<stop stop-color="#B1E938"/>
<stop offset="1" stop-color="#61BB00"/>
</linearGradient>
<linearGradient id="paint16_linear_1509_2812" x1="89.0877" y1="170.319" x2="89.0877" y2="219.259" gradientUnits="userSpaceOnUse">
<stop stop-color="#B1E938"/>
<stop offset="1" stop-color="#61BB00"/>
</linearGradient>
<linearGradient id="paint17_linear_1509_2812" x1="215.024" y1="282.554" x2="215.024" y2="314.628" gradientUnits="userSpaceOnUse">
<stop stop-color="#B1E938"/>
<stop offset="1" stop-color="#61BB00"/>
</linearGradient>
<linearGradient id="paint18_linear_1509_2812" x1="381.39" y1="63.1309" x2="381.39" y2="97.5394" gradientUnits="userSpaceOnUse">
<stop stop-color="#B1E938"/>
<stop offset="1" stop-color="#61BB00"/>
</linearGradient>
<linearGradient id="paint19_linear_1509_2812" x1="51.8558" y1="239.182" x2="51.8558" y2="263.66" gradientUnits="userSpaceOnUse">
<stop stop-color="#B1E938"/>
<stop offset="1" stop-color="#61BB00"/>
</linearGradient>
<linearGradient id="paint20_linear_1509_2812" x1="359.491" y1="236.252" x2="359.491" y2="248.445" gradientUnits="userSpaceOnUse">
<stop stop-color="#B1E938"/>
<stop offset="1" stop-color="#61BB00"/>
</linearGradient>
<linearGradient id="paint21_linear_1509_2812" x1="359.705" y1="235.269" x2="359.705" y2="247.601" gradientUnits="userSpaceOnUse">
<stop stop-color="#B1E938"/>
<stop offset="1" stop-color="#61BB00"/>
</linearGradient>
</defs>
</svg>
