<svg width="113" height="101" viewBox="0 0 113 101" fill="none" xmlns="http://www.w3.org/2000/svg">
<path d="M1.91025 77.8839C-0.63675 75.3369 -0.63675 71.2069 1.91025 68.6589L14.3452 56.2229L23.5703 65.4479L11.1353 77.8839C8.58826 80.4309 4.45825 80.4309 1.91025 77.8839Z" fill="black"/>
<path d="M111.084 77.8839C113.631 75.3369 113.631 71.2069 111.084 68.6589L98.6479 56.2229L89.4229 65.4479L101.859 77.8839C104.406 80.4309 108.536 80.4309 111.084 77.8839Z" fill="black"/>
<path d="M108.635 37.622L89.4244 15.71L89.4264 15.726C81.6894 6.138 69.8484 0 56.5684 0C33.2564 0 14.3594 18.898 14.3594 42.209V91.673C14.3594 96.335 18.1384 100.115 22.8014 100.115C27.4634 100.115 31.2434 96.335 31.2434 91.673V91.949C31.2434 87.287 35.0234 83.507 39.6854 83.507C44.3474 83.507 48.1274 87.286 48.1274 91.949V91.673C48.1274 96.335 51.9074 100.115 56.5694 100.115C61.2314 100.115 65.0114 96.335 65.0114 91.673V91.949C65.0114 87.287 68.7904 83.507 73.4534 83.507C78.1154 83.507 81.8954 87.286 81.8954 91.949V91.673C81.8954 96.335 85.6754 100.115 90.3374 100.115C94.9994 100.115 98.7794 96.335 98.7794 91.673V42.594H106.383C108.957 42.595 110.333 39.559 108.635 37.622Z" fill="#ABF600"/>
<path d="M48.5078 58.5501C48.5078 53.8601 52.3098 50.0581 56.9998 50.0581C61.6898 50.0581 65.4918 53.8601 65.4918 58.5501" stroke="#424242" stroke-width="2.1211" stroke-miterlimit="10" stroke-linecap="round"/>
<path d="M80.8544 37.8544L76.0004 33.0004L80.8544 28.1464C80.9474 28.0522 80.9996 27.9252 80.9996 27.7929C80.9996 27.6606 80.9474 27.5335 80.8544 27.4394L78.5614 25.1464C78.4676 25.0527 78.3405 25 78.2079 25C78.0753 25 77.9482 25.0527 77.8544 25.1464L73.0004 30.0004L68.1464 25.1464C68.0526 25.0527 67.9255 25 67.7929 25C67.6603 25 67.5332 25.0527 67.4394 25.1464L65.1464 27.4394C65.0527 27.5332 65 27.6603 65 27.7929C65 27.9255 65.0527 28.0526 65.1464 28.1464L70.0004 33.0004L65.1464 37.8544C65.0527 37.9482 65 38.0753 65 38.2079C65 38.3405 65.0527 38.4676 65.1464 38.5614L67.4394 40.8544C67.5332 40.9481 67.6603 41.0008 67.7929 41.0008C67.9255 41.0008 68.0526 40.9481 68.1464 40.8544L73.0004 36.0004L77.8544 40.8544C77.9482 40.9481 78.0753 41.0008 78.2079 41.0008C78.3405 41.0008 78.4676 40.9481 78.5614 40.8544L80.8544 38.5614C80.9481 38.4676 81.0008 38.3405 81.0008 38.2079C81.0008 38.0753 80.9481 37.9482 80.8544 37.8544Z" fill="black"/>
<path d="M48.8544 37.8544L44.0004 33.0004L48.8544 28.1464C48.9474 28.0522 48.9996 27.9252 48.9996 27.7929C48.9996 27.6606 48.9474 27.5335 48.8544 27.4394L46.5614 25.1464C46.4676 25.0527 46.3405 25 46.2079 25C46.0753 25 45.9482 25.0527 45.8544 25.1464L41.0004 30.0004L36.1464 25.1464C36.0526 25.0527 35.9255 25 35.7929 25C35.6603 25 35.5332 25.0527 35.4394 25.1464L33.1464 27.4394C33.0527 27.5332 33 27.6603 33 27.7929C33 27.9255 33.0527 28.0526 33.1464 28.1464L38.0004 33.0004L33.1464 37.8544C33.0527 37.9482 33 38.0753 33 38.2079C33 38.3405 33.0527 38.4676 33.1464 38.5614L35.4394 40.8544C35.5332 40.9481 35.6603 41.0008 35.7929 41.0008C35.9255 41.0008 36.0526 40.9481 36.1464 40.8544L41.0004 36.0004L45.8544 40.8544C45.9482 40.9481 46.0753 41.0008 46.2079 41.0008C46.3405 41.0008 46.4676 40.9481 46.5614 40.8544L48.8544 38.5614C48.9481 38.4676 49.0008 38.3405 49.0008 38.2079C49.0008 38.0753 48.9481 37.9482 48.8544 37.8544Z" fill="black"/>
</svg>
